<?xml version="1.0" encoding="utf-8"?>
<!-- Generator: Adobe Illustrator 22.1.0, SVG Export Plug-In . SVG Version: 6.00 Build 0)  -->
<svg version="1.1" id="Layer_1" xmlns="http://www.w3.org/2000/svg" xmlns:xlink="http://www.w3.org/1999/xlink" x="0px" y="0px"
	 viewBox="0 0 100 100" style="enable-background:new 0 0 100 100;" xml:space="preserve">
<g>
	<path d="M94.5,21.1H78.9v49.2c0,4.7-3.8,8.5-8.5,8.5H21.1v15.6c0,3,2.5,5.5,5.5,5.5h67.9c3,0,5.5-2.5,5.5-5.5V26.6
		C100,23.6,97.5,21.1,94.5,21.1z"/>
	<path d="M40.1,58.4c-0.9,0.7-1.9,1.1-3,1.1c-1.2,0-2.3-0.4-3.2-1.3L5,29.3c-1.8-1.8-1.8-4.7,0-6.5l6.1-6.1c1.8-1.8,4.7-1.8,6.5,0
		l19.6,19.6L72.4,1c-0.5-0.6-1.2-1-2-1H2.5C1.1,0,0,1.1,0,2.5v67.9c0,1.4,1.1,2.5,2.5,2.5h67.9c1.4,0,2.5-1.1,2.5-2.5V25.8l-32,32
		C40.6,58.1,40.3,58.3,40.1,58.4z"/>
	<path d="M84.4,3.9l-2.3-2.3c-1.1-1.1-2.8-1.1-3.9,0L37.8,42.2c-0.3,0.3-0.9,0.3-1.2,0L15,20.6c-0.3-0.3-0.9-0.3-1.2,0l-4.9,4.9
		c-0.3,0.3-0.3,0.9,0,1.2l27.6,27.6c0.3,0.3,0.9,0.3,1.2,0l0,0l0.2,0L84.4,7.8C85.4,6.7,85.4,5,84.4,3.9z"/>
</g>
</svg>
