<?xml version="1.0" encoding="utf-8"?>
<!-- Generator: Adobe Illustrator 22.1.0, SVG Export Plug-In . SVG Version: 6.00 Build 0)  -->
<svg version="1.1" id="Layer_1" xmlns="http://www.w3.org/2000/svg" xmlns:xlink="http://www.w3.org/1999/xlink" x="0px" y="0px"
	 viewBox="0 0 100 100" style="enable-background:new 0 0 100 100;" xml:space="preserve">
<path d="M50,0.5C22.7,0.5,0.5,22.7,0.5,50S22.7,99.5,50,99.5S99.5,77.3,99.5,50S77.3,0.5,50,0.5z M70.8,70.6c-2,2.1-4.9,2-7.4-0.5
	c-3.9-3.9-7.9-7.7-11.7-11.7c-1.4-1.5-2.2-1.4-3.6,0c-3.7,3.9-7.6,7.7-11.4,11.5c-2.7,2.7-5.6,2.9-7.7,0.7c-2-2.1-1.7-4.7,1-7.4
	c3.9-3.9,7.8-7.9,11.7-11.7c1.2-1.2,1.2-1.9,0-3.1c-4.2-4.1-8.3-8.3-12.5-12.4c-1.6-1.6-1.9-3.5-1.1-5.5c0.8-1.7,2.3-2.6,3.2-2.6
	c2.8,0,4.1,0.9,5.3,2.1c3.8,3.8,7.7,7.6,11.4,11.5c1.4,1.4,2.2,1.5,3.6,0c3.7-3.9,7.6-7.7,11.5-11.5c2.8-2.7,5.6-3,7.7-0.8
	c1.9,2,1.6,4.8-1,7.4c-3.8,3.8-7.6,7.7-11.5,11.4c-1.5,1.4-1.5,2.2,0,3.6c4,3.8,7.9,7.7,11.7,11.7C72.5,65.9,72.7,68.7,70.8,70.6z"
	/>
</svg>
