<?xml version="1.0" encoding="utf-8"?>
<!-- Generator: Adobe Illustrator 22.1.0, SVG Export Plug-In . SVG Version: 6.00 Build 0)  -->
<svg version="1.1" id="Layer_1" xmlns="http://www.w3.org/2000/svg" xmlns:xlink="http://www.w3.org/1999/xlink" x="0px" y="0px"
	 viewBox="0 0 100 100" style="enable-background:new 0 0 100 100;" xml:space="preserve">
<path d="M0.6,88.4c0-2,1.1-3.4,2.4-4.7c10.7-10.7,21.3-21.4,32.1-32c1.3-1.3,1.4-2,0-3.3C24.4,37.8,13.8,27.1,3.2,16.5
	c-3.6-3.6-3.6-6.3,0-9.8c1.3-1.3,2.6-2.6,3.9-3.9c3.1-3.1,6-3.1,9.2,0.1C25.6,12.2,35,21.6,44.4,31c1.3,1.3,2.7,2.5,3.9,3.9
	c1.2,1.5,2,1.6,3.5,0.1C62.2,24.3,72.8,13.8,83.4,3.2c3.7-3.7,6.3-3.7,10,0c1.3,1.3,2.6,2.6,3.9,3.9c3,3,3,5.9-0.1,9
	c-4.3,4.4-8.7,8.7-13,13c-6.5,6.5-13,13-19.5,19.5c-1.2,1.2-1.1,1.7,0,2.8c10.8,10.7,21.5,21.4,32.2,32.2c3.4,3.4,3.4,6.2,0,9.6
	c-1.4,1.4-2.7,2.7-4.1,4c-3.1,3-5.9,3-9-0.1c-2-2-4-4-6-6c-8.7-8.7-17.5-17.4-26.1-26.2c-1.3-1.3-1.9-1.5-3.3-0.1
	C37.9,75.5,27.3,86,16.7,96.6c-3.8,3.8-6.2,3.9-10.1,0.1c-1.5-1.4-2.9-2.9-4.4-4.4C1.1,91.2,0.6,89.9,0.6,88.4z"/>
</svg>
