<?xml version="1.0" encoding="utf-8"?>
<!-- Generator: Adobe Illustrator 22.1.0, SVG Export Plug-In . SVG Version: 6.00 Build 0)  -->
<svg version="1.1" id="Layer_1" xmlns="http://www.w3.org/2000/svg" xmlns:xlink="http://www.w3.org/1999/xlink" x="0px" y="0px"
	 viewBox="0 0 100 100" style="enable-background:new 0 0 100 100;" xml:space="preserve">
<style type="text/css">
	.st0{fill:#FE0000;}
</style>
<path class="st0" d="M14.1,1.1c4.2,0,7.5,1.5,10.3,4.3c8,8,16.1,15.9,24,23.9c1.3,1.4,2,1.2,3.3,0C59.8,21.1,67.9,13.1,76.1,5
	c4.2-4.1,10.2-5.1,15.7-2.6c4.9,2.2,8,7.5,7.7,13.2c-0.2,3.9-2.1,7-4.8,9.7C86.8,33.1,78.9,41,71,48.8c-1.2,1.1-1.2,1.7,0,2.9
	c8,7.8,15.8,15.7,23.7,23.6c3.8,3.7,5.1,8.3,3.7,13.4c-1.5,5.2-4.9,8.7-10.3,9.9c-5.1,1.1-9.4-0.4-13.1-4.1
	c-7.7-7.7-15.5-15.4-23.2-23.1c-1.3-1.4-2-1.5-3.4,0C40.6,79.2,32.8,87,25,94.6c-7.1,6.9-17.8,5.3-22.3-3.2
	c-2.8-5.4-1.8-11.6,2.8-16.2c7.7-7.7,15.4-15.5,23.2-23.1c1.5-1.5,1.5-2.3,0-3.8c-8-7.8-16-15.8-23.9-23.7
	c-7.7-7.7-4.6-19.9,5.8-23.1C11.8,1.2,13.1,1.3,14.1,1.1z"/>
</svg>
