<?xml version="1.0" encoding="utf-8"?>
<!-- Generator: Adobe Illustrator 22.1.0, SVG Export Plug-In . SVG Version: 6.00 Build 0)  -->
<svg version="1.1" id="Layer_1" xmlns="http://www.w3.org/2000/svg" xmlns:xlink="http://www.w3.org/1999/xlink" x="0px" y="0px"
	 viewBox="0 0 100 100" style="enable-background:new 0 0 100 100;" xml:space="preserve">
<g>
	<path d="M93.9,35.5c-0.5,0.6-1,1.2-1.5,1.7C80.2,49.4,68,61.6,55.8,73.7c-4,4-7.5,4-11.5-0.1C32.4,61.7,20.4,49.8,8.5,37.8
		c-0.6-0.6-1.1-1.1-1.6-1.7c-1.3-1.3-2.1-3-2.1-5c0-3.5,2.6-6.4,5.9-6.9c0,0,0.1,0,0.1,0c0.1,0,0.2,0,0.2,0c1.6-0.2,3.3,0.2,4.9,1.2
		c1.2,0.7,2.1,1.6,3.1,2.6c7.3,7.3,14.5,14.5,21.8,21.8c0.1,0.1,0.2,0.2,0.3,0.3c0.5,0.5,1.3,0.2,1.3-0.5v0c0-13.2,0-26.4,0-39.7
		c0-0.6,0-1.1,0-1.7c0-0.1,0-0.3,0-0.4c0-1.1,0.3-2.2,0.7-3.1c0,0,0,0,0,0c1.2-2.4,3.7-4.1,6.5-4.1c2.9,0,5.5,1.7,6.6,4.2
		c0.4,0.9,0.6,1.9,0.6,3c0,0.1,0,0.2,0,0.4c0,0,0,0,0,0c0,0.3,0,0.6,0,0.9c-0.2,14-0.1,28-0.1,42.1c0,0.7,0.9,1.1,1.4,0.5
		c0.1-0.1,0.2-0.2,0.3-0.3c8.1-8,16.1-16.1,24.2-24.1c3.4-3.4,7.7-3.5,10.6-0.4C95.6,29.3,95.8,32.9,93.9,35.5z"/>
	<path d="M5,90.8c1.7-3.9,4.6-5.3,8.8-5.2c24.3,0.1,48.7,0.1,73,0.1c1.5,0,3.1,0,4.5,0.7c2.6,1.3,4.1,4.1,3.8,6.8
		c-0.3,3.2-2.3,5.4-5.6,6.2c-0.7,0.2-1.5,0.1-2.3,0.1c-25.1,0-50.2,0-75.4,0c-4,0-5.5-1.2-6.8-5.2C5,93.1,5,92,5,90.8z"/>
</g>
</svg>
