<?xml version="1.0" encoding="utf-8"?>
<!-- Generator: Adobe Illustrator 22.1.0, SVG Export Plug-In . SVG Version: 6.00 Build 0)  -->
<svg version="1.1" id="Layer_1" xmlns="http://www.w3.org/2000/svg" xmlns:xlink="http://www.w3.org/1999/xlink" x="0px" y="0px"
	 viewBox="0 0 100 100" style="enable-background:new 0 0 100 100;" xml:space="preserve">
<g>
	<path d="M50,0.5C22.7,0.5,0.5,22.7,0.5,50S22.7,99.5,50,99.5c27.3,0,49.5-22.2,49.5-49.5S77.3,0.5,50,0.5z M50,90.8
		C27.5,90.8,9.2,72.5,9.2,50S27.5,9.2,50,9.2c22.5,0,40.8,18.3,40.8,40.8S72.5,90.8,50,90.8z"/>
	<path d="M77.3,61c1.6,1.1,2.1,3.3,1.2,5c-5.6,10-16.3,16.7-28.5,16.7c-12.4,0-23.2-6.9-28.7-17.1c-0.9-1.7-0.4-3.8,1.2-4.9l0.1-0.1
		c1.9-1.3,4.4-0.6,5.5,1.4c4.2,7.8,12.5,13,21.9,13c9.3,0,17.5-5.1,21.8-12.7c1.1-2,3.6-2.6,5.5-1.3L77.3,61z"/>
	<path d="M40.6,37.8c0,3.6-3,6.6-6.6,6.6c-3.2,0-5.9-2.3-6.5-5.3c-0.1-0.4-0.1-0.9-0.1-1.3c0-3.5,2.7-6.4,6.2-6.6c0.1,0,0.3,0,0.4,0
		C37.7,31.2,40.6,34.1,40.6,37.8z"/>
	<path d="M72.6,37.8c0,0.4,0,0.9-0.1,1.3c-0.6,3-3.3,5.3-6.5,5.3c-3.6,0-6.6-3-6.6-6.6s2.9-6.6,6.6-6.6c0.1,0,0.3,0,0.4,0
		C69.8,31.4,72.6,34.3,72.6,37.8z"/>
</g>
</svg>
