<?xml version="1.0" encoding="utf-8"?>
<!-- Generator: Adobe Illustrator 22.1.0, SVG Export Plug-In . SVG Version: 6.00 Build 0)  -->
<svg version="1.1" id="Layer_1" xmlns="http://www.w3.org/2000/svg" xmlns:xlink="http://www.w3.org/1999/xlink" x="0px" y="0px"
	 viewBox="0 0 100 100" style="enable-background:new 0 0 100 100;" xml:space="preserve">
<path d="M74.5,54.6c-14.1,14.3-28.1,28.7-42.2,43c-3.8,3.8-8.8,3-10.4-1.6c-0.8-2.3-0.2-4.3,1.4-6.1c1.7-1.8,3.4-3.5,5.1-5.3
	c11-11.2,21.9-22.4,33-33.5c1.2-1.2,1.2-1.8,0-3c-12.5-12.4-25-24.9-37.5-37.3c-2.9-2.9-3.2-6.4-0.8-8.9c2.4-2.6,6-2.6,8.7,0.1
	c5.3,5.2,10.5,10.5,15.8,15.7C56.4,26.5,65.2,35.3,74,44c0.7,0.7,2.6,2.5,3.9,3.9c0.9,0.9,0.9,2.3,0,3.2
	C76.7,52.3,75.2,53.9,74.5,54.6z"/>
</svg>
