<?xml version="1.0" encoding="utf-8"?>
<!-- Generator: Adobe Illustrator 22.1.0, SVG Export Plug-In . SVG Version: 6.00 Build 0)  -->
<svg version="1.1" id="Layer_1" xmlns="http://www.w3.org/2000/svg" xmlns:xlink="http://www.w3.org/1999/xlink" x="0px" y="0px"
	 viewBox="0 0 100 100" style="enable-background:new 0 0 100 100;" xml:space="preserve">
<g>
	<path d="M92.6,65.6c-0.4,3-1.2,5.9-2.3,8.8c-1.7,4.3-4.2,8-7.2,11.5c-4,4.7-8.8,8.4-14,11.7c-1,0.7-2,1.3-3,1.9
		c-0.1,0.1-0.2,0.2-0.4,0.1c10.5-21.3,0.8-47.8-14.8-58.3c1.6,10.6-3.6,23.4-8,27.3c0.8-5.1,0.2-9.8-2.6-14.3
		c-0.3,1.2-0.6,2.3-1,3.4c-1.5,4.8-3.6,9.3-6.4,13.4c-2.1,3.1-3.8,6.3-4.7,10c-1,4.3-0.6,8.5,0.7,12.7c0.6,2,1.4,3.9,2.3,6
		c-1.1-0.5-2.1-1.1-2.9-1.7c-0.3-0.2-0.5-0.4-0.8-0.6c-4.7-2.9-9.1-6-12.8-10.2c-3.1-3.4-5.5-7.2-6.7-11.8C7,71.8,7,68.1,7.4,64.2
		c0.5-4.2,1.8-8.1,3.5-11.9c1.6-3.6,3.5-7,5.1-10.6c1.6-3.6,3-7.2,3.5-11.1c0-0.2,0-0.4,0.1-0.6c0-0.2,0-0.4,0.1-0.7
		c3,5.1,3.8,10.7,4,16.3c1.4-1.8,2.9-3.5,4.2-5.4c0.9-1.4,2-2.8,2.9-4.2c1.5-2.2,3-4.4,4.2-6.7c2-3.7,3.9-7.4,5.3-11.4
		c1.7-4.9,2.7-10,2.4-15.2c-0.1-0.9-0.1-1.7-0.2-2.6c2.7,1,5.1,2.4,7.3,4.1c4.7,3.6,8.7,7.9,11.8,12.9c2.3,3.6,4.2,7.5,5.7,11.5
		c0.9,2.5,1.7,5,2.5,7.6c0.1,0.2,0.1,0.3,0.2,0.6c1.6-1.4,2.5-3.2,3-5.1c1.1-4.3,0.6-8.5-1-12.6c0.2,0,0.4,0.2,0.5,0.3
		c2.8,2.5,5.3,5.3,7.5,8.3c2.9,3.9,5.5,7.9,7.5,12.3c1.8,3.8,3.3,7.7,4.2,11.9c0.5,2.4,0.9,4.8,1,7.3c0,0.1,0.1,2.2,0.1,2.5
		C92.9,61.7,92.7,64.9,92.6,65.6z"/>
	<path d="M36.4,96c-1-1.4-1.5-2.9-1.6-4.7C34.9,93,35.5,94.6,36.4,96z"/>
	<path d="M63.1,63.6c-4.4,0-8.7,0-13,0c-0.5,0-0.6,0.2-0.6,0.6c0,6.1,0,12.2,0,18.3c0,0.2,0,0.5,0,0.8c-0.1-0.1-0.3-0.2-0.4-0.3
		c-2-1.3-4.4-1.8-6.7-1.3c-0.4,0.1-0.7,0.2-1.1,0.3c0,0-0.1,0-0.1,0C38.8,83,37,84.7,35.9,87c-0.7,1.3-1,2.7-1,4c0,0.1,0,0.2,0,0.3
		c0.1,1.7,0.7,3.3,1.6,4.7c0.1,0.1,0.2,0.2,0.3,0.4c0,0,0,0,0,0c1,1.3,2.5,2.4,4.2,3.1c0.2,0.1,0.3,0.1,0.5,0.2
		c0.8,0.3,1.7,0.4,2.6,0.4c0.6,0,1.2-0.1,1.8-0.2c0,0,0,0,0.1,0c1.6-0.3,3-0.9,4.2-2c0.5-0.5,1-1,1.3-1.5c0,0,0.1-0.1,0.1-0.2
		c1.1-1.6,1.6-3.5,1.5-5.7c0-0.5,0-0.9,0-1.4c0-5.9,0-11.8,0-17.7c0-0.5,0.1-0.6,0.6-0.6c3.2,0,6.4,0,9.6,0c0.3,0,0.5-0.2,0.5-0.5
		c0-2,0-4,0-6C63.7,63.8,63.6,63.6,63.1,63.6z"/>
	<path d="M40.9,99.4c-1.7-0.6-3.1-1.7-4.2-3.1C37.7,97.7,39.2,98.8,40.9,99.4z"/>
</g>
</svg>
