<?xml version="1.0" encoding="utf-8"?>
<!-- Generator: Adobe Illustrator 22.1.0, SVG Export Plug-In . SVG Version: 6.00 Build 0)  -->
<svg version="1.1" id="Layer_1" xmlns="http://www.w3.org/2000/svg" xmlns:xlink="http://www.w3.org/1999/xlink" x="0px" y="0px"
	 viewBox="0 0 100 100" style="enable-background:new 0 0 100 100;" xml:space="preserve">
<path d="M45.4,74.5c-14.3-14.1-28.7-28.1-43-42.2c-3.8-3.8-3-8.8,1.6-10.4c2.3-0.8,4.3-0.2,6.1,1.4c1.8,1.7,3.5,3.4,5.3,5.1
	c11.2,11,22.4,21.9,33.5,33c1.2,1.2,1.8,1.2,3,0c12.4-12.5,24.9-25,37.3-37.5c2.9-2.9,6.4-3.2,8.9-0.8c2.6,2.4,2.6,6-0.1,8.7
	c-5.2,5.3-10.5,10.5-15.7,15.8C73.5,56.4,64.7,65.2,56,74c-0.7,0.7-2.5,2.6-3.9,3.9c-0.9,0.9-2.3,0.9-3.2,0
	C47.7,76.7,46.1,75.2,45.4,74.5z"/>
</svg>
