<?xml version="1.0" encoding="utf-8"?>
<!-- Generator: Adobe Illustrator 22.1.0, SVG Export Plug-In . SVG Version: 6.00 Build 0)  -->
<svg version="1.1" id="Layer_1" xmlns="http://www.w3.org/2000/svg" xmlns:xlink="http://www.w3.org/1999/xlink" x="0px" y="0px"
	 viewBox="0 0 100 100" style="enable-background:new 0 0 100 100;" xml:space="preserve">
<g>
	<path d="M5.3,12.8h58.3c2.9,0,5.3,2.4,5.3,5.3v0.1c0,2.9-2.4,5.3-5.3,5.3H5.3c-2.9,0-5.3-2.4-5.3-5.3v-0.1
		C0,15.2,2.4,12.8,5.3,12.8z"/>
	<path d="M5.3,34h58.3c2.9,0,5.3,2.4,5.3,5.3v0.1c0,2.9-2.4,5.3-5.3,5.3H5.3c-2.9,0-5.3-2.4-5.3-5.3v-0.1C0,36.4,2.4,34,5.3,34z"/>
	<path d="M5.3,55.2h38.6c2.9,0,5.3,2.4,5.3,5.3v0c0,2.9-2.4,5.3-5.3,5.3H5.3c-2.9,0-5.3-2.4-5.3-5.3v0C0,57.6,2.4,55.2,5.3,55.2z"/>
	<path d="M94.4,12.8h-14c-0.2,0-0.4,0-0.6,0H79c-2.7,0-4.9,2.2-4.9,4.9v37.9c0,0.2-0.2,0.4-0.4,0.3c-3-1-6.4-1.1-9.9,0
		c-4.7,1.4-8.4,5-10,9.6c-3.9,11.2,4.4,21.7,15,21.7c7.5,0,13.9-5.2,15.6-12.2c0.2-0.7,0.3-1.5,0.4-2.2c0,0,0,0,0,0V28.8v-3.3
		c0-0.2,0.1-0.5,0.2-0.7l0,0c0.3-0.5,0.8-0.8,1.3-0.8h4.4l4.2,0c1.7,0,3.3-0.8,4.2-2.3C101.7,17.4,98.5,12.8,94.4,12.8z"/>
</g>
</svg>
