<?xml version="1.0" encoding="utf-8"?>
<!-- Generator: Adobe Illustrator 22.1.0, SVG Export Plug-In . SVG Version: 6.00 Build 0)  -->
<svg version="1.1" id="Layer_1" xmlns="http://www.w3.org/2000/svg" xmlns:xlink="http://www.w3.org/1999/xlink" x="0px" y="0px"
	 viewBox="0 0 100 100" style="enable-background:new 0 0 100 100;" xml:space="preserve">
<g>
	<g>
		<path d="M31.5,60.9c0.1-1.2,0-16.4,0-16.4l-6.7-6.7H1.3c0,0-1.1,0-1.3,0.9v22.6c0,0,0.4,1.1,1.4,1.1s28.7,0,28.7,0
			S31.5,62.2,31.5,60.9z M24.9,55.7H6.6v-2.4h18.3V55.7z M6.6,46.7v-2.4h15.9l2.4,2.4H6.6z"/>
		<polygon points="34.1,37.6 34.1,44.7 45.3,44.7 45.3,62.4 54.1,62.4 54.1,44.4 65.7,44.4 65.7,37.6 		"/>
		<path d="M75,55.6v-2.4l24.9,0c0-2.4,0-4.9,0-6.6l-24.9,0v-2.4l24.7,0l-6.5-6.5H69.8c0,0-1.1,0-1.3,0.9v22.6c0,0,0.4,1.1,1.4,1.1
			c1,0,28.7,0,28.7,0s1.5-0.1,1.4-1.5c0-0.4,0-2.5,0-5.1L75,55.6z"/>
	</g>
</g>
</svg>
