<?xml version="1.0" encoding="utf-8"?>
<!-- Generator: Adobe Illustrator 22.1.0, SVG Export Plug-In . SVG Version: 6.00 Build 0)  -->
<svg version="1.1" id="Capa_1" xmlns="http://www.w3.org/2000/svg" xmlns:xlink="http://www.w3.org/1999/xlink" x="0px" y="0px"
	 viewBox="0 0 100 100" style="enable-background:new 0 0 100 100;" xml:space="preserve">
<style type="text/css">
	.st0{fill:#00ECBC;}
</style>
<path class="st0" d="M76.9,54.8l-12.7-3.9c-0.3-0.9-1-1.7-1.9-2.4c1.1-1.2,1.9-2.3,2.6-3.3c1.6-2.3,2.9-4.8,3.9-7.2
	c0.5-1,0.8-2,1.2-3c1.2-1,2-2.6,2-4.2v-4c0-1.1-0.4-2.3-1-3.2v-5.6C70.8,8,62.7,0,52.9,0h-5.8c-9.9,0-17.9,8-17.9,17.9v5.6
	c-0.7,0.9-1,2-1,3.2v4c0,1.6,0.7,3.2,2,4.2c0.3,1,0.7,2,1.2,3c0.9,2.4,2.3,4.9,3.9,7.2c0.7,1,1.6,2.2,2.6,3.3
	c-1,0.7-1.6,1.5-1.9,2.4l-12.7,3.9c-9,2.6-14.3,41.3-14.3,41.3h0c0,0.2,0,0.3,0,0.5c0,1.9,1.5,3.4,3.4,3.4h75.8
	c1.9,0,3.4-1.5,3.4-3.4C91.3,95,85.9,57.3,76.9,54.8z M46.9,57.8c0.2,0.2,0.3,0.6,0.3,0.9l-0.6,6.1c0,0.5-0.4,0.9-0.8,1
	c-0.1,0-0.2,0-0.3,0c-0.4,0-0.7-0.2-0.9-0.5l-3.2-4.3c-0.1-0.2-0.2-0.4-0.2-0.7l0-6.8c0-0.4,0.2-0.8,0.6-1c0.3-0.2,0.8-0.2,1.1,0
	c0.9,0.5,1.9,0.8,2.8,1c0.5,0.1,0.9,0.6,0.9,1.1v2.9C46.6,57.6,46.8,57.7,46.9,57.8z M52.8,58.7c0-0.3,0.1-0.6,0.3-0.9
	c0.1-0.1,0.3-0.2,0.4-0.3v-2.9c0-0.6,0.4-1,0.9-1.1c0.9-0.2,1.8-0.5,2.8-1c0.4-0.2,0.8-0.2,1.1,0c0.3,0.2,0.6,0.6,0.6,1l0,6.8
	c0,0.2-0.1,0.5-0.2,0.7l-3.2,4.3c-0.2,0.3-0.6,0.5-0.9,0.5c-0.1,0-0.2,0-0.3,0c-0.5-0.1-0.8-0.5-0.8-1L52.8,58.7z M36,32.1L36,31.6
	l-1.1-0.7c-0.3-0.2-0.5-0.6-0.5-1v-1.9c0-0.6,0.5-1.1,1.1-1.1h0.5v-2c0-0.4,0.2-0.8,0.6-1c1.6-0.8,4.7-2.1,7.9-2.1
	c2.6,0,4.7,0.9,6.4,2.6c2,2.1,4.4,3.2,7,3.2c1.5,0,3-0.3,4.5-1c0.4-0.2,0.8-0.1,1.1,0.1c0.2,0.1,0.3,0.2,0.4,0.4h0.6
	c0.6,0,1.1,0.5,1.1,1.1v1.9c0,0.4-0.2,0.7-0.5,1L64,31.6L64,32.1c-0.4,2.7-1.9,6.3-4.1,9.5c-2.8,4.1-5.4,5.9-6.8,5.9h-6.2
	c-1.4,0-4-1.8-6.8-5.9C37.9,38.4,36.4,34.8,36,32.1z"/>
</svg>
