<?xml version="1.0" encoding="utf-8"?>
<!-- Generator: Adobe Illustrator 22.1.0, SVG Export Plug-In . SVG Version: 6.00 Build 0)  -->
<svg version="1.1" id="Layer_1" xmlns="http://www.w3.org/2000/svg" xmlns:xlink="http://www.w3.org/1999/xlink" x="0px" y="0px"
	 viewBox="0 0 100 100" style="enable-background:new 0 0 100 100;" xml:space="preserve">
<g>
	<path d="M7.4,13h85.2c4.1,0,7.4,3.3,7.4,7.4v0c0,4.1-3.3,7.4-7.4,7.4H7.4c-4.1,0-7.4-3.3-7.4-7.4v0C0,16.3,3.3,13,7.4,13z"/>
	<path d="M7.4,42.6h85.2c4.1,0,7.4,3.3,7.4,7.4v0c0,4.1-3.3,7.4-7.4,7.4H7.4C3.3,57.4,0,54.1,0,50v0C0,45.9,3.3,42.6,7.4,42.6z"/>
	<path d="M7.4,72.2h85.2c4.1,0,7.4,3.3,7.4,7.4v0c0,4.1-3.3,7.4-7.4,7.4H7.4C3.3,87,0,83.7,0,79.6v0C0,75.5,3.3,72.2,7.4,72.2z"/>
</g>
</svg>
