<?xml version="1.0" encoding="utf-8"?>
<!-- Generator: Adobe Illustrator 22.1.0, SVG Export Plug-In . SVG Version: 6.00 Build 0)  -->
<svg version="1.1" id="Layer_1" xmlns="http://www.w3.org/2000/svg" xmlns:xlink="http://www.w3.org/1999/xlink" x="0px" y="0px"
	 viewBox="0 0 100 100" style="enable-background:new 0 0 100 100;" xml:space="preserve">
<g>
	<path d="M81.4,33.9L81.4,33.9c-2.5,0-4.6,2-4.6,4.6v10.8c0,14.3-11.7,25.9-25.9,25.9h-1.8c-14.3,0-25.9-11.7-25.9-25.9V38.4
		c0-2.5-2-4.6-4.6-4.6c-2.5,0-4.6,2-4.6,4.6v12.9c0,17,13.4,31,30.2,32v5.8H33.9c-2.6,0-4.9,1.8-5.3,4.4c-0.5,3.2,2,6,5.1,6h32.3
		c2.6,0,4.9-1.8,5.3-4.4c0.5-3.2-2-6-5.1-6H55.8v-5.8c16.8-1,30.2-15,30.2-32V38.4C86,35.9,83.9,33.9,81.4,33.9z"/>
	<path d="M51.3,67.8C60.8,67.1,68,59,68,49.5V33.9v-15v-0.4c0-7.6-4.8-14.1-11.5-16.8c0,0-0.1,0-0.1,0c-0.2-0.1-0.4-0.2-0.6-0.2
		c-0.1,0-0.2-0.1-0.4-0.1c-0.1,0-0.3-0.1-0.4-0.1c-0.2-0.1-0.4-0.1-0.6-0.2c-0.1,0-0.2,0-0.3-0.1c-0.3-0.1-0.5-0.1-0.8-0.2
		c0,0-0.1,0-0.1,0c-0.6-0.1-1.2-0.2-1.8-0.2c-0.1,0-0.3,0-0.4,0c-0.2,0-0.4,0-0.6,0c-0.1,0-0.3,0-0.4,0c-0.2,0-0.4,0-0.6,0
		c-0.2,0-0.3,0-0.5,0c-0.2,0-0.3,0-0.5,0c-0.6,0.1-1.2,0.1-1.8,0.2c0,0-0.1,0-0.1,0c-0.3,0.1-0.5,0.1-0.8,0.2c-0.1,0-0.2,0-0.3,0.1
		c-0.2,0.1-0.4,0.1-0.6,0.2c-0.1,0-0.3,0.1-0.4,0.1c-0.1,0-0.2,0.1-0.4,0.1c-0.2,0.1-0.4,0.1-0.6,0.2c0,0-0.1,0-0.1,0
		C36.8,4.4,32,10.9,32,18.5v0.4v15v16c0,5,2,9.5,5.3,12.7C40.8,66.1,45.9,68.2,51.3,67.8z"/>
</g>
</svg>
