<?xml version="1.0" encoding="utf-8"?>
<!-- Generator: Adobe Illustrator 22.1.0, SVG Export Plug-In . SVG Version: 6.00 Build 0)  -->
<svg version="1.1" id="Layer_1" xmlns="http://www.w3.org/2000/svg" xmlns:xlink="http://www.w3.org/1999/xlink" x="0px" y="0px"
	 viewBox="0 0 100 100" style="enable-background:new 0 0 100 100;" xml:space="preserve">
<style type="text/css">
	.st0{fill:none;}
</style>
<g id="Bounding_Boxes_1_">
	<path class="st0" d="M38,38h24v24H38V38z"/>
</g>
<g>
	<path d="M51,65.3c10.9-0.5,19.2-8.3,19.2-17.1V17.1C70.2,8.3,61.9,0,51,0C39.1-0.5,29.8,6.8,29.8,16.1v32.6
		C29.8,58.6,39.1,65.8,51,65.3z M43.3,16.1c0-3.1,3.1-5.7,6.7-5.7s6.7,2.6,6.7,5.7v32.6c0,3.1-3.1,5.7-6.7,5.7s-6.7-2.6-6.7-5.7
		V16.1z"/>
	<path d="M80.6,48.2c-2.6,0-4.7,2.1-5.2,4.7C73.3,64.8,62.9,74.1,50,74.1s-23.3-9.3-25.4-21.2c-0.5-2.6-2.6-4.7-5.2-4.7l0,0
		c-3.1,0-5.7,2.6-5.2,5.7c2.6,15.5,15,27.5,30.6,30v10.9c0,3.1,2.1,5.2,5.2,5.2l0,0c3.1,0,5.2-2.1,5.2-5.2V83.9
		c15.5-2.1,28-14.5,30.6-30C86.3,50.8,83.7,48.2,80.6,48.2L80.6,48.2z"/>
</g>
</svg>
