<?xml version="1.0" encoding="utf-8"?>
<!-- Generator: Adobe Illustrator 22.1.0, SVG Export Plug-In . SVG Version: 6.00 Build 0)  -->
<svg version="1.1" id="Layer_1" xmlns="http://www.w3.org/2000/svg" xmlns:xlink="http://www.w3.org/1999/xlink" x="0px" y="0px"
	 viewBox="0 0 100 100" style="enable-background:new 0 0 100 100;" xml:space="preserve">
<style type="text/css">
	.st0{fill:none;}
</style>
<g>
	<g id="Bounding_Boxes">
		<path class="st0" d="M70.1,17L56.7,30.4V16.5c0-3.1-3.1-5.7-6.7-5.7s-6.7,2.6-6.7,5.7v27.3L31.4,55.7c-1-2.1-1.5-4.1-1.5-6.7V16.5
			C29.9,7.2,39.7,0,51,0C61.9,0.5,70.1,8.3,70.1,17z"/>
		<path class="st0" d="M14.4,54.1c0-0.5,0-0.5,0-1c0-2.6,2.6-5.2,5.2-5.2s4.6,2.1,5.2,4.1c0.5,2.6,1.5,5.2,2.6,7.7l-7.7,7.7
			C17,63.4,15.5,58.8,14.4,54.1z"/>
		<path class="st0" d="M85.6,54.1C83,69.6,70.6,81.4,55.2,84v10.8c0,3.1-2.6,5.2-5.2,5.2s-5.2-2.1-5.2-5.2V84
			c-4.1-0.5-8.2-2.1-11.9-4.1l7.7-7.7c3.1,1,6.2,2.1,9.3,2.1c12.9,0,23.2-9.3,25.3-21.6c0.5-2.6,2.6-4.1,5.2-4.1
			C83.5,48,86.1,51,85.6,54.1z"/>
		<path class="st0" d="M47.4,65l22.7-22.7V48c0,8.8-8.2,16.5-19.1,17C50,65.5,48.5,65.5,47.4,65z"/>
	</g>
	<g>
		<path d="M70.1,17c0-8.8-8.2-16.5-19.1-17C39.7-0.5,29.9,7.2,29.9,16.5V49c0,2.6,0.5,4.6,1.5,6.7l11.9-11.9V16.5
			c0-3.1,3.1-5.7,6.7-5.7c3.6,0,6.7,2.6,6.7,5.7v13.9L70.1,17z M47.4,65c1,0,2.6,0,3.6,0c10.8-0.5,19.1-8.2,19.1-17v-5.7L47.4,65z"
			/>
		<path d="M27.3,59.8l-7.7,7.7c-2.6-4.1-4.6-8.8-5.2-13.4c0-0.5,0-0.5,0-1c0-2.6,2.6-5.2,5.2-5.2s4.6,2.1,5.2,4.1
			C25.3,55.2,25.8,57.7,27.3,59.8z"/>
		<path d="M85.6,54.1C83,69.6,70.6,81.4,55.2,84v10.8c0,3.1-2.6,5.2-5.2,5.2s-5.2-2.1-5.2-5.2V84c-4.1-0.5-8.2-2.1-11.9-4.1l7.7-7.7
			c3.1,1,6.2,2.1,9.3,2.1c12.9,0,23.2-9.3,25.3-21.6c0.5-2.6,2.6-4.1,5.2-4.1C83.5,48,86.1,51,85.6,54.1z"/>
	</g>
	<g>
		<path d="M92.3,15L70.1,37.1L56.2,51l-2.6,3.1l0,0L15,92.8c-1,1-2.1,1.5-3.6,1.5c-1.5,0-2.6-0.5-3.6-1.5c-2.1-2.1-2.1-5.2,0-7.2
			l14.4-14.4l7.2-7.7l4.6-4.6l22.7-22.7l13.4-13.4L85,7.8c1-1,2.6-1.5,3.6-1.5c1,0,2.6,0.5,3.6,1.5C94.3,9.3,94.3,12.9,92.3,15z"/>
	</g>
</g>
</svg>
