<?xml version="1.0" encoding="utf-8"?>
<!-- Generator: Adobe Illustrator 22.1.0, SVG Export Plug-In . SVG Version: 6.00 Build 0)  -->
<svg version="1.1" id="Layer_1" xmlns="http://www.w3.org/2000/svg" xmlns:xlink="http://www.w3.org/1999/xlink" x="0px" y="0px"
	 viewBox="0 0 250 250" style="enable-background:new 0 0 250 250;" xml:space="preserve">
<g id="XMLID_23_">
	<path id="XMLID_25_" d="M219.8,114.9h-3.2c-0.9,0-1.6,0.7-1.6,1.6v12.1c0,1.5-0.2,2.8-0.6,3.7c-0.8,1.7-2.2,2.6-4.4,2.6
		c-1.7,0-2.8-0.6-3.3-1.8c-0.3-0.7-0.5-1.7-0.5-3.1v-13.5c0-0.9-0.7-1.6-1.6-1.6h-3.2c-0.9,0-1.6,0.7-1.6,1.6v13.5
		c0,2.7,0.3,4.8,1,6.2c1.2,2.6,3.6,3.8,7.1,3.8c1.2,0,2.3-0.2,3.2-0.5c0.9-0.3,1.9-0.9,2.8-1.8c0.3-0.3,0.6-0.6,0.8-1
		c0.2-0.4,0.4-0.6,0.4-0.7v1.9c0,0.9,0.7,1.6,1.6,1.6h2.9c0.9,0,1.6-0.7,1.6-1.6v-21.6C221.4,115.6,220.7,114.9,219.8,114.9z"/>
	<path id="XMLID_26_" d="M168.5,106.6h-3.2c-0.9,0-1.6,0.7-1.6,1.6v29.9c0,0.9,0.7,1.6,1.6,1.6h3.2c0.9,0,1.6-0.7,1.6-1.6v-29.9
		C170.1,107.3,169.4,106.6,168.5,106.6z"/>
	<path id="XMLID_27_" d="M112.6,114.9h-3.2c-0.9,0-1.6,0.7-1.6,1.6v21.6c0,0.9,0.7,1.6,1.6,1.6h3.2c0.9,0,1.6-0.7,1.6-1.6v-21.6
		C114.2,115.6,113.5,114.9,112.6,114.9z"/>
	<path id="XMLID_28_" d="M107.9,110.8c0,0.9,0.7,1.6,1.6,1.6h3.2c0.9,0,1.6-0.7,1.6-1.6v-2.6c0-0.9-0.7-1.6-1.6-1.6h-3.2
		c-0.9,0-1.6,0.7-1.6,1.6V110.8z"/>
	<path id="XMLID_31_" d="M194.3,136.4c-2,2.5-5.1,3.8-9.2,3.8c-4.1,0-7.2-1.3-9.2-3.8c-2-2.5-3-5.5-3-9c0-3.5,1-6.5,3-9
		c2-2.5,5.1-3.8,9.2-3.8c4.1,0,7.2,1.3,9.2,3.8c2,2.5,3,5.5,3,9C197.3,130.9,196.3,133.9,194.3,136.4z M189.3,132.9
		c1-1.3,1.5-3.2,1.5-5.6c0-2.4-0.5-4.3-1.5-5.6c-1-1.3-2.4-1.9-4.2-1.9c-1.8,0-3.2,0.6-4.2,1.9c-1,1.3-1.5,3.2-1.5,5.6
		c0,2.4,0.5,4.3,1.5,5.6c1,1.3,2.4,2,4.2,2C186.9,134.9,188.3,134.2,189.3,132.9z"/>
	<path id="XMLID_34_" d="M245.9,106.6h-3.2c-0.9,0-1.6,0.7-1.6,1.6v10.1c-0.7-1.1-1.6-2-2.7-2.7c-1.1-0.6-2.4-1-3.9-1
		c-3.1,0-5.7,1.2-7.5,3.5c-1.9,2.4-2.8,5.6-2.8,9.7c0,3.6,1,6.5,2.9,8.7c1.9,2.3,4.3,3.4,7.1,3.4c1.7,0,3.1-0.3,4.3-1
		c1.1-0.6,2.2-1.7,3.1-3.1v2.1c0,0.9,0.7,1.6,1.6,1.6h2.9c0.9,0,1.6-0.7,1.6-1.6v-29.9C247.5,107.3,246.8,106.6,245.9,106.6z
		 M240,132.8c-0.9,1.3-2.3,2-4,2c-1.8,0-3.1-0.7-4-2c-0.9-1.3-1.3-3.1-1.3-5.3c0-2.1,0.4-3.8,1.3-5.2c0.9-1.4,2.2-2.1,4-2.1
		c1.2,0,2.3,0.4,3.2,1.1c1.5,1.3,2.2,3.4,2.2,6.3C241.3,129.8,240.9,131.5,240,132.8z"/>
	<path id="XMLID_35_" d="M138.5,137.3L138.5,137.3l-6.8-10l6.4-10l0,0c0.1-0.2,0.2-0.5,0.2-0.8c0-0.9-0.7-1.6-1.6-1.6h-3.5
		c-0.6,0-1.1,0.3-1.4,0.8l-3.7,6.6l-3.7-6.6v0c-0.3-0.5-0.8-0.8-1.4-0.8h-3.8c-0.9,0-1.6,0.7-1.6,1.6c0,0.3,0.1,0.6,0.2,0.8v0
		l6.4,10l-6.8,10v0c-0.1,0.2-0.2,0.5-0.2,0.8c0,0.9,0.7,1.6,1.6,1.6h3.7c0.6,0,1.1-0.3,1.4-0.8v0l3.9-6.8l3.9,6.8
		c0.3,0.5,0.8,0.8,1.4,0.8h3.9c0.9,0,1.6-0.7,1.6-1.6C138.7,137.8,138.6,137.6,138.5,137.3z"/>
	<path id="XMLID_36_" d="M160.9,132.2c0-0.1,0-0.3-0.1-0.4c0-0.1-0.1-0.3-0.2-0.4c-0.3-0.5-0.8-0.8-1.4-0.8h-3.2
		c-0.7,0-1.4,0.5-1.5,1.2c-0.2,0.7-0.5,1.4-0.9,1.9c-0.6,0.8-1.7,1.2-3.1,1.2c-2.1,0-3.5-1-4.2-3c-0.4-1.1-0.6-2.5-0.6-4.2
		c0-1.8,0.2-3.3,0.6-4.4c0.8-2.1,2.2-3.2,4.3-3.2c1.5,0,2.6,0.5,3.3,1.5c0.3,0.4,0.5,0.8,0.6,1.2v0c0,0.1,0.1,0.3,0.2,0.4
		c0.3,0.5,0.8,0.8,1.4,0.8h3.3c0.9,0,1.6-0.7,1.6-1.6c0-0.1,0-0.3,0-0.4h0c-0.5-2.4-1.6-4.1-3.1-5.2c-1.9-1.4-4.4-2-7.4-2
		c-3.5,0-6.3,1.1-8.3,3.4c-2,2.3-3,5.5-3,9.6c0,3.7,0.9,6.6,2.7,8.9c1.8,2.3,4.6,3.4,8.5,3.4c3.9,0,6.8-1.4,8.7-4.1
		c0.8-1.1,1.3-2.2,1.7-3.3c0-0.1,0.1-0.2,0.1-0.3l0,0C160.8,132.3,160.9,132.2,160.9,132.2z"/>
	<path id="XMLID_38_" d="M102.3,106.6h-8.1c-0.6,0-1.1,0.3-1.4,0.8c-0.1,0.1-0.1,0.3-0.2,0.4L88.2,130l-4.5-22.2
		c0-0.1-0.1-0.3-0.2-0.4c-0.3-0.4-0.7-0.8-1.3-0.8l-8.3,0c-0.9,0-1.6,0.7-1.6,1.6v29.9c0,0.9,0.7,1.6,1.6,1.6h3.2
		c0.9,0,1.6-0.7,1.6-1.6c0,0,0-24.5,0-25.1l5.8,25.5c0,0.1,0.1,0.3,0.2,0.4c0.3,0.5,0.8,0.8,1.4,0.8h4.1c0.6,0,1.1-0.3,1.4-0.8
		c0.1-0.1,0.1-0.3,0.2-0.4l0.1-0.4l5.8-25.1c0,0.6,0,25.1,0,25.1c0,0.9,0.7,1.6,1.6,1.6h3.2c0.9,0,1.6-0.7,1.6-1.6l0-29.9
		C103.9,107.3,103.2,106.6,102.3,106.6z"/>
	<path id="XMLID_39_" d="M59.3,143.4c-0.4,0-0.8-0.1-1.1-0.4c-0.9-0.6-1.2-1.9-0.6-2.9c1.9-2.9,2.9-6.2,2.9-9.7c0-3.5-1-6.8-2.9-9.7
		c-0.6-1-0.4-2.2,0.6-2.9c0.9-0.6,2.2-0.4,2.9,0.6c2.4,3.5,3.6,7.7,3.6,12c0,4.3-1.2,8.4-3.6,12C60.6,143.1,59.9,143.4,59.3,143.4z"
		/>
	<path id="XMLID_40_" d="M53.4,140c-0.4,0-0.8-0.1-1.2-0.4c-0.9-0.6-1.2-1.9-0.6-2.9c1.3-1.9,1.9-4,1.9-6.3c0-2.3-0.7-4.4-1.9-6.3
		c-0.6-0.9-0.4-2.2,0.6-2.9c0.9-0.6,2.2-0.4,2.9,0.6c1.7,2.6,2.6,5.5,2.6,8.6c0,3.1-0.9,6.1-2.6,8.6C54.7,139.7,54,140,53.4,140z"/>
	<path id="XMLID_45_" d="M43.7,121.4c-0.8-8.3-7.8-14.8-16.3-14.8c-7,0-13.3,4.5-15.5,11.1c-5.3,0.8-9.4,5.4-9.4,10.9
		c0,6.1,4.9,11,11,11h28.2c5.1,0,9.2-4.2,9.2-9.3C51,126.1,47.8,122.4,43.7,121.4z M41.7,135.6H13.5c-3.8,0-6.9-3.1-6.9-6.9
		c0-3.8,3.1-6.9,6.9-6.9c1.8,0,3.6,0.7,4.9,2c0.8,0.8,2.1,0.8,2.9,0c0.8-0.8,0.8-2.1,0-2.9c-1.4-1.4-3.2-2.4-5.1-2.9
		c2-4.3,6.3-7.2,11.2-7.2c6.8,0,12.3,5.5,12.3,12.3c0,1.3-0.2,2.6-0.6,3.8c-0.4,1.1,0.2,2.3,1.3,2.6c0.2,0.1,0.4,0.1,0.7,0.1
		c0.9,0,1.7-0.6,2-1.4c0.3-0.8,0.5-1.6,0.6-2.5c1.9,0.7,3.2,2.6,3.2,4.8C46.8,133.3,44.5,135.6,41.7,135.6z"/>
</g>
</svg>
