<?xml version="1.0" encoding="utf-8"?>
<!-- Generator: Adobe Illustrator 22.1.0, SVG Export Plug-In . SVG Version: 6.00 Build 0)  -->
<svg version="1.1" id="Layer_1" xmlns="http://www.w3.org/2000/svg" xmlns:xlink="http://www.w3.org/1999/xlink" x="0px" y="0px"
	 viewBox="0 0 100 100" style="enable-background:new 0 0 100 100;" xml:space="preserve">
<style type="text/css">
	.st0{fill:#00EBBB;}
</style>
<g>
	<path class="st0" d="M48.7,2.9C58,3.1,66.1,5.2,73.5,9.7c2.1,1.3,2.8,3.1,1.8,4.8c-1.1,1.7-3,2-5.1,0.8c-10-5.9-20.6-7.3-31.7-4.2
		c-28.9,8-38.9,45.1-17.8,66.4C32.2,89,46.3,92.6,61.8,87.7c15.4-4.9,24.5-16,27.3-31.9c1.7-9.2-0.3-18-4.9-26.2
		c-1.6-2.9-1.5-4.7,0.5-5.8c1.8-1,3.6-0.1,5.2,2.6c15.9,27.8,0.3,62.6-31,69.1C32.7,100.9,7.1,82.7,3.4,56.1
		C-0.1,30.1,17.9,6.6,44,3.3C45.8,3,47.6,3,48.7,2.9z"/>
	<path class="st0" d="M84.5,18.8c0,1.1-0.5,1.9-1.1,2.6C70.9,36.3,58.5,51.3,46,66.2c-1.7,2-3.6,2.1-5.5,0.2
		c-4.8-4.8-9.7-9.6-14.5-14.5c-1.6-1.7-1.8-3.6-0.4-5s3.4-1.3,5.1,0.3c3.7,3.7,7.4,7.3,11.1,11.1c0.9,1,1.4,0.9,2.2-0.1
		C55,45,66,31.8,77.1,18.6c0.6-0.8,1.2-1.6,2-2.2c1.1-1,2.4-1.1,3.7-0.5C84,16.5,84.4,17.6,84.5,18.8z"/>
</g>
</svg>
