<?xml version="1.0" encoding="utf-8"?>
<!-- Generator: Adobe Illustrator 22.1.0, SVG Export Plug-In . SVG Version: 6.00 Build 0)  -->
<svg version="1.1" id="Layer_1" xmlns="http://www.w3.org/2000/svg" xmlns:xlink="http://www.w3.org/1999/xlink" x="0px" y="0px"
	 viewBox="0 0 100 100" style="enable-background:new 0 0 100 100;" xml:space="preserve">
<style type="text/css">
	.st0{fill:#FE2626;}
</style>
<g>
	<path class="st0" d="M56.9,51.3c-1.4-1.3-1.7-2.2-0.1-3.6c3.9-3.6,7.6-7.5,11.4-11.3c2-2,2.1-4,0.6-5.5c-1.5-1.6-3.6-1.4-5.5,0.6
		c-3.9,3.9-7.8,7.7-11.6,11.7c-1.2,1.3-1.8,1.1-3-0.1c-3.9-4-7.8-7.9-11.8-11.8c-1.8-1.8-3.9-1.9-5.4-0.4c-1.5,1.5-1.3,3.6,0.5,5.4
		c2.6,2.6,5.2,5.2,7.8,7.8c1.7,1.8,4.7,3.5,4.8,5.4c0.1,2.1-3.1,3.7-4.9,5.5c-2.7,2.8-5.4,5.4-8.1,8.2c-1.1,1.1-1.4,2.5-0.8,4
		c0.5,1.3,1.6,2,3,2.1c1.4,0.1,2.4-0.7,3.3-1.6c3.8-3.8,7.7-7.6,11.5-11.5c1.2-1.2,1.8-1.4,3.1-0.1c3.8,4,7.7,7.8,11.6,11.7
		c0.8,0.8,1.5,1.5,2.7,1.5c1.5,0,2.8-0.5,3.5-2c0.7-1.7,0.2-3.1-1-4.3C64.6,59,60.8,55.1,56.9,51.3z"/>
	<path class="st0" d="M50,0C22.4,0,0,22.4,0,50c0,27.6,22.4,50,50,50c27.6,0,50-22.4,50-50C100,22.4,77.6,0,50,0z M50,92.8
		C26.4,92.8,7.2,73.6,7.2,50C7.2,26.4,26.4,7.2,50,7.2c23.6,0,42.8,19.2,42.8,42.8C92.8,73.6,73.6,92.8,50,92.8z"/>
</g>
</svg>
