<?xml version="1.0" encoding="iso-8859-1"?>
<!-- Generator: Adobe Illustrator 18.0.0, SVG Export Plug-In . SVG Version: 6.00 Build 0)  -->
<!DOCTYPE svg PUBLIC "-//W3C//DTD SVG 1.1//EN" "http://www.w3.org/Graphics/SVG/1.1/DTD/svg11.dtd">
<svg version="1.1" id="Capa_1" xmlns="http://www.w3.org/2000/svg" xmlns:xlink="http://www.w3.org/1999/xlink" x="0px" y="0px"
	 viewBox="0 0 430 430" style="enable-background:new 0 0 430 430;" xml:space="preserve">
<path d="M323.423,107.531c-4.114,0-8.213,0.235-12.277,0.703c-4.898-20.224-15.654-38.646-31.177-53.024
	c-19.752-18.294-45.464-28.37-72.401-28.37c-49.559,0-91.801,33.842-103.422,80.719C46.495,108.853,0,156.152,0,214.108
	c0,55.816,43.129,101.744,97.81,106.217c-4.881,8.066-7.655,17.341-7.655,27.161c0,30.698,27.013,55.673,60.217,55.673
	s60.216-24.975,60.216-55.673v-26.798h9.259c-0.278,2.169-0.434,4.37-0.434,6.602c0,30.698,27.013,55.673,60.215,55.673
	c33.204,0,60.217-24.975,60.217-55.673v-7.868C390.843,311.501,430,267.293,430,214.108C430,155.342,382.19,107.531,323.423,107.531
	z M319.845,327.291c0,19.671-18.041,35.673-40.217,35.673c-22.175,0-40.215-16.002-40.215-35.673
	c0-19.669,18.04-35.672,40.215-35.672c1.983,0,3.996,0.133,5.979,0.395l2.482,0.328v-82.975l-97.502,24.902v113.218
	c0,19.671-18.041,35.673-40.216,35.673s-40.217-16.002-40.217-35.673c0-19.669,18.041-35.672,40.217-35.672
	c1.983,0,3.994,0.133,5.978,0.396l2.484,0.328v-97.006c0-5.295,3.606-9.908,8.744-11.187l137.958-34.322
	c3.443-0.855,7.088-0.08,9.882,2.104c2.795,2.185,4.428,5.535,4.428,9.082V327.291z"/>
<g>
</g>
<g>
</g>
<g>
</g>
<g>
</g>
<g>
</g>
<g>
</g>
<g>
</g>
<g>
</g>
<g>
</g>
<g>
</g>
<g>
</g>
<g>
</g>
<g>
</g>
<g>
</g>
<g>
</g>
</svg>
