<?xml version="1.0" encoding="utf-8"?>
<!-- Generator: Adobe Illustrator 22.1.0, SVG Export Plug-In . SVG Version: 6.00 Build 0)  -->
<svg version="1.1" id="Layer_1" xmlns="http://www.w3.org/2000/svg" xmlns:xlink="http://www.w3.org/1999/xlink" x="0px" y="0px"
	 viewBox="0 0 100 100" style="enable-background:new 0 0 100 100;" xml:space="preserve">
<g>
	<path d="M66.4,44.5C52.6,30.6,38.7,16.8,24.8,2.9c-0.2-0.2-0.3-0.3-0.5-0.4l0,0c-0.1-0.1-0.2-0.2-0.3-0.3C24,2.2,24,2.1,23.9,2.1
		c-1.2-1-2.7-1.6-4.3-1.6c-3.6,0-6.5,2.7-6.8,6.2c0,0,0,0.1,0,0.1v85.3c0,0.2,0,0.4,0,0.6c0,3.8,3,6.8,6.8,6.8
		c1.7,0,3.2-0.6,4.4-1.6c0.7-0.5,1.3-1,1.9-1.6c13.3-13.8,26.9-27.2,40.4-40.7C70.1,51.7,70.1,48.2,66.4,44.5z M52.2,50.8
		c-8.6,8.5-17.1,17.1-25.9,25.9V23.2c3.6,3.6,6.9,6.8,10.1,10.1c5.2,5.2,10.3,10.4,15.5,15.6C52.5,49.4,53.3,49.8,52.2,50.8z"/>
	<path d="M80.7,99.5L80.7,99.5c-3.6,0-6.5-2.9-6.5-6.5V7c0-3.6,2.9-6.5,6.5-6.5h0c3.6,0,6.5,2.9,6.5,6.5V93
		C87.2,96.6,84.3,99.5,80.7,99.5z"/>
</g>
</svg>
