<?xml version="1.0" encoding="utf-8"?>
<!-- Generator: Adobe Illustrator 22.1.0, SVG Export Plug-In . SVG Version: 6.00 Build 0)  -->
<svg version="1.1" id="Layer_1" xmlns="http://www.w3.org/2000/svg" xmlns:xlink="http://www.w3.org/1999/xlink" x="0px" y="0px"
	 viewBox="0 0 100 100" style="enable-background:new 0 0 100 100;" xml:space="preserve">
<style type="text/css">
	.st0{fill:#00ECBC;}
</style>
<path class="st0" d="M75.1,7.3c-0.2-0.1-0.3-0.2-0.5-0.3c-2-1.2-4.1-2.2-6.3-3C62.7,1.8,56.5,0.5,50,0.5C22.7,0.5,0.5,22.7,0.5,50
	S22.7,99.5,50,99.5S99.5,77.3,99.5,50C99.5,31.8,89.7,15.9,75.1,7.3z M41.2,29.1c2-5.9,4.6-11.4,8.1-16.6c0.5-0.8,0.9-1,1.5-0.1
	c3.4,5.3,6.2,10.8,8.1,16.8c0.4,1.3-0.2,1.3-1.1,1.3c-2.6,0-5.2,0-7.8,0c-2.5,0-5.1,0-7.6,0C41.3,30.5,40.8,30.4,41.2,29.1z
	 M13.9,59.6c-1,0-1.4-0.4-1.6-1.3c-1.2-5.6-1.2-11.2,0-16.9c0.2-0.9,0.5-1.3,1.5-1.3c4.6,0.1,9.2,0.1,13.9,0c1.1,0,1.3,0.3,1.1,1.4
	c-0.8,5.5-0.7,11,0,16.6c0.1,1.2-0.1,1.5-1.3,1.5c-2.3-0.1-4.6,0-6.8,0C18.4,59.6,16.1,59.5,13.9,59.6z M37,86.3
	c-5.5-1.9-10.1-4.9-14.2-8.9c-2.1-2-3.9-4.2-5.4-6.7c-0.5-0.8-0.8-1.4,0.6-1.4c3.9,0,7.8,0,11.7,0c0.8,0,1.2,0.3,1.4,1
	c1.4,5.4,3.5,10.5,6,15.4C37.2,85.9,37.1,86.1,37,86.3z M33.7,21.9c-0.9,2.4-1.6,4.8-2.4,7.2c-0.2,0.6-0.2,1.4-1.3,1.4
	c-4.3,0-8.7,0-13.4,0c5-8.3,11.7-13.8,20.7-17C36,16.5,34.7,19.2,33.7,21.9z M58.9,70.6c-2,6.2-4.8,11.9-8.5,17.3
	c-0.1,0.1-0.3,0.2-0.5,0.4c-3.7-5.4-6.6-11.2-8.7-17.4c-0.4-1.1-0.1-1.5,1.1-1.5c5.2,0,10.4,0,15.6,0C58.9,69.4,59.3,69.6,58.9,70.6
	z M61.6,58.1c-0.2,1.2-0.6,1.5-1.7,1.5c-3.3-0.1-6.6,0-10,0c-3.2,0-6.4,0-9.6,0c-1.1,0-1.7-0.2-1.8-1.4c-0.7-5.6-0.7-11.2,0-16.8
	c0.1-1,0.6-1.2,1.5-1.2c6.6,0,13.3,0,19.9,0c1,0,1.4,0.3,1.6,1.4C62.3,47.1,62.4,52.6,61.6,58.1z M83.5,30.5c-4.7,0-9.1,0-13.5,0
	c-1,0-1-0.9-1.2-1.5c-1.5-5.3-3.4-10.4-6.3-15.6C71.8,16.6,78.4,22.3,83.5,30.5z M62.8,86.3c0.8-1.8,1.6-3.5,2.4-5.2
	c1.5-3.3,2.7-6.7,3.7-10.3c0.2-0.8,0.3-1.5,1.4-1.5c4.3,0,8.6,0,13.1,0C79.8,76.6,70.7,84.1,62.8,86.3z M87.9,58.1
	c-0.2,1-0.5,1.6-1.7,1.6c-4.5-0.1-9-0.1-13.5,0c-1.3,0-1.5-0.4-1.4-1.6c0.7-5.4,0.7-10.9,0-16.4c-0.2-1.1,0.1-1.5,1.3-1.5
	c2.3,0.1,4.6,0,6.8,0c2.2,0,4.4,0.1,6.6,0c1.1,0,1.6,0.3,1.8,1.4C89.1,47.1,89.1,52.6,87.9,58.1z"/>
</svg>
