<?xml version="1.0" encoding="utf-8"?>
<!-- Generator: Adobe Illustrator 22.1.0, SVG Export Plug-In . SVG Version: 6.00 Build 0)  -->
<svg version="1.1" id="Capa_1" xmlns="http://www.w3.org/2000/svg" xmlns:xlink="http://www.w3.org/1999/xlink" x="0px" y="0px"
	 viewBox="0 0 100 100" style="enable-background:new 0 0 100 100;" xml:space="preserve">
<g>
	<g>
		<g>
			<path d="M68.2,55.9c1.1,0.5,2.3,1,3.5,1.4c0.6,0.2,0.8,0.6,0.9,1.2c0.3,1.3,0.1,2.6-0.3,3.9c-0.2,1-0.7,1.3-1.6,1.5
				c-0.3,0-0.6,0.2-0.8,0.4c-0.2,0.2-0.4,0.4-0.6,0.5c2.4,1,4.8,2.1,7.3,3.4c1.2,0.6,2.2,1.4,3.1,2.2l0.8,0.8v4c6.4,0,12.8,0,19.2,0
				c-0.5-3.6-2.7-5.8-6.1-7c-2.2-0.8-4.3-1.7-6.4-2.7c-0.6-0.3-1-0.9-1.6-1.3c-0.2-0.2-0.5-0.4-0.8-0.4c-1-0.2-1.4-0.5-1.6-1.5
				c-0.3-1.3-0.5-2.5-0.3-3.8c0.1-0.6,0.3-0.9,0.9-1.2c1.2-0.4,2.3-1,3.5-1.4c0.9-0.4,0.9-0.7,0.6-1.6c-1-2.8-1.7-5.6-2-8.6
				c-0.2-1.9-0.1-3.8-0.6-5.7H85c0-0.2-0.1-0.3-0.1-0.5c-0.8-3.3-4.3-5.1-7.3-5.2c0,0-0.1,0-0.1,0c-0.2,0-0.4,0-0.7,0
				c-1.2,0.2-2.3,1-3.4,1.3c-1.5,0.5-2.5,1.9-3.1,3.4c-0.8,2.2-0.7,4.5-0.8,6.7c-0.2,3-1,5.8-2,8.6C67.3,55.3,67.4,55.6,68.2,55.9z"
				/>
			<path d="M21,71.3l0.9-0.8c0.8-0.8,1.8-1.4,3.1-2.1l0.9-0.5c1.3-0.7,2.5-1.4,3.9-2c0.7-0.3,1.4-0.6,2.1-0.9
				c-0.1-0.4-0.3-0.8-0.4-1.2c-0.2-0.5-0.3-1.1-1-1.2c-0.2,0-0.4-0.3-0.4-0.5c-0.1-1-0.2-2.1-0.3-3.1c0-0.2,0.1-0.5,0.2-0.7
				c0.9-1,1.4-2.2,1.6-3.5c0.1-0.7,0.5-1.3,0.7-2c0.3-0.9,0.5-1.8,0.7-2.7c0.1-0.3,0-0.7,0.1-1c0.1-0.5,0.1-0.9-0.5-1
				c-0.2-0.1-0.3-0.4-0.3-0.7c0-1.4,0-2.9,0-4.3c0-0.9,0-1.8-0.1-2.7c-0.1-1.7-1.1-2.9-2.4-3.9c-1.8-1.5-3.9-2.9-6.2-2.7
				c-0.1,0-0.1,0-0.2,0c-0.1,0-0.1,0-0.2,0c-2.3-0.2-4.4,1.2-6.2,2.7c-1.2,1-2.2,2.2-2.4,3.9c-0.1,0.9-0.1,1.8-0.1,2.7
				c0,1.4,0,2.9,0,4.3c0,0.2-0.1,0.6-0.3,0.7c-0.6,0.2-0.6,0.6-0.5,1c0.1,0.3,0,0.7,0.1,1c0.2,0.9,0.4,1.8,0.7,2.7
				c0.2,0.7,0.6,1.3,0.7,2c0.2,1.3,0.7,2.5,1.6,3.5c0.1,0.2,0.3,0.5,0.2,0.7c-0.1,1-0.2,2.1-0.3,3.1c0,0.2-0.2,0.5-0.4,0.5
				c-0.7,0.1-0.8,0.7-1,1.2c-0.2,0.7-0.4,1.4-0.7,2.1c-0.1,0.2-0.3,0.4-0.5,0.5c-1.2,0.5-2.5,1-3.7,1.5c-1.3,0.5-2.6,1.1-3.9,1.7
				c-1.3,0.6-2.6,1.3-3.9,2C1.8,72,1.1,72.4,0.5,73v2.3c6.8,0,13.6,0,20.4,0L21,71.3L21,71.3L21,71.3L21,71.3z"/>
		</g>
		<path d="M75.2,70.7c-4.5-2.3-9.1-4.2-13.9-6c-0.4-0.1-0.8-0.4-0.9-0.7c-0.4-0.8-0.6-1.7-0.9-2.6c-0.2-0.6-0.3-1.1-1-1.4
			c-0.2-0.1-0.3-0.4-0.3-0.6c0-2.1-0.4-4.2,1.1-6c0.1-0.1,0.1-0.1,0.1-0.2c0.8-1.8,1-3.9,2.1-5.6c0,0,0-0.1,0-0.1
			c0.1-1.3,0.3-2.6,0.4-3.8c0-0.2-0.1-0.4-0.3-0.5c-0.6-0.2-0.6-0.7-0.6-1.2c0-2.5,0-5,0-7.5c0-1.5-0.4-2.8-1.5-3.7
			c-1.3-1.1-2.5-2.2-3.8-3.3c-0.6-0.5-0.7-0.9-0.1-1.5c0.3-0.3,0.6-0.4,0.9-0.7c-0.1-0.1-0.1-0.2-0.2-0.3c-0.4,0-0.8-0.1-1.2,0
			c-1.4,0.2-2.9,0.4-4.3,0.8c-2.7,0.6-5.3,1.5-7.4,3.3c-1.5,1.2-2.7,2.7-2.8,4.7c-0.1,1.1-0.1,2.1-0.1,3.2c0,1.7,0,3.5,0,5.2
			c0,0.3-0.2,0.7-0.4,0.8c-0.7,0.2-0.7,0.7-0.6,1.3c0.1,0.4,0,0.8,0.1,1.2c0.2,1.1,0.5,2.2,0.8,3.2c0.2,0.8,0.7,1.5,0.8,2.3
			c0.2,1.6,0.8,3,1.9,4.2c0.2,0.2,0.3,0.5,0.3,0.8c-0.1,1.2-0.2,2.5-0.4,3.7c0,0.2-0.3,0.6-0.5,0.6c-0.8,0.2-0.9,0.8-1.1,1.4
			c-0.3,0.8-0.5,1.7-0.9,2.5c-0.1,0.3-0.4,0.5-0.6,0.6c-1.5,0.6-2.9,1.2-4.4,1.8c-1.6,0.7-3.1,1.3-4.7,2c-1.6,0.8-3.1,1.6-4.6,2.4
			c-0.9,0.5-1.8,1-2.5,1.7v2.7c17.9,0,35.8,0,53.7,0v-2.8C76.8,71.7,76.1,71.2,75.2,70.7z"/>
	</g>
</g>
</svg>
