<?xml version="1.0" encoding="utf-8"?>
<!-- Generator: Adobe Illustrator 22.1.0, SVG Export Plug-In . SVG Version: 6.00 Build 0)  -->
<svg version="1.1" id="Capa_1" xmlns="http://www.w3.org/2000/svg" xmlns:xlink="http://www.w3.org/1999/xlink" x="0px" y="0px"
	 viewBox="0 0 100 100" style="enable-background:new 0 0 100 100;" xml:space="preserve">
<style type="text/css">
	.st0{fill:#00ECBC;}
</style>
<g>
	<g>
		<path class="st0" d="M32.4,58.4c3.9,0.6,8.7-0.3,13.9-0.6c1,0.2,2,0.4,3,0.4s2-0.1,3.1-0.4c13.6,0.7,24.2,4.5,24.2-23.2
			c0-18.8-12.2-34.1-27.3-34.1S22,15.8,22,34.6c0,15.1,2.9,21,7.6,23C30.5,58,31.4,58.3,32.4,58.4z M28,23.9
			c2.9,4,10.3,3.1,16.6-1.9c1.6-1.3,3-2.7,4.2-4.2c0.1,0,0.3,0,0.4,0.1c0.6,0.1,1.2,0.3,1.8,0.5c0.6,0.3,1.2,0.5,1.7,0.8
			c0.6,0.3,1.1,0.7,1.6,1c0.5,0.4,1,0.8,1.4,1.2c0.4,0.4,0.8,0.8,1.1,1.3c0.3,0.4,0.6,0.8,0.8,1.2c0.2,0.4,0.4,0.7,0.6,1
			c0.3,0.6,0.4,0.9,0.4,0.9s-0.1-0.3-0.2-1c0-0.3-0.1-0.7-0.2-1.1c-0.1-0.4-0.2-1-0.5-1.5c-0.2-0.5-0.4-1.1-0.7-1.7
			s-0.7-1.2-1.1-1.8c-0.5-0.6-0.9-1.2-1.4-1.7c-0.5-0.6-1.1-1.1-1.7-1.6c-0.6-0.4-1.2-0.8-1.8-1.2c0.3-0.6,0.5-1.2,0.7-1.7
			c2.3,1,4.6,2.3,6.5,4.2c6.8,6.8,4.1,14.8,9.4,9.5c0.8-0.8,1.5-1.7,2-2.6c0.2,0,0.4,0,0.5,0c0.7,0.2,1.2,0.7,1.4,1.2
			c0.7,1.2,0.9,2.9,0.4,4.7c-0.7,2.6-2.4,4.1-3.7,4.3L67.3,34L67,35.1c-2.6,9.5-9.7,19.6-17.6,19.6s-15-10.1-17.6-19.6L31.4,34
			l-1.1-0.1c-1.3-0.2-3.1-1.7-3.7-4.3c-0.4-1.7-0.3-3.5,0.4-4.7C27.2,24.6,27.6,24.2,28,23.9z"/>
		<path class="st0" d="M69.8,60.9c-2.1,3.6-4.6,6.7-7.9,8.4c-6.8,3.5-11.8,6.3-11.8,6.3l0,0v-0.1H50h-0.1v0.1l0,0
			c0,0-5-2.8-11.8-6.3c-3.3-1.7-5.7-4.8-7.9-8.4c-10,4.1-17,13.4-17,21.6c0,8.6,0,17,0,17H50h0.1h36.8c0,0,0-8.4,0-17
			C86.8,74.3,79.8,65,69.8,60.9z"/>
	</g>
</g>
</svg>
