<?xml version="1.0" encoding="utf-8"?>
<!-- Generator: Adobe Illustrator 22.1.0, SVG Export Plug-In . SVG Version: 6.00 Build 0)  -->
<svg version="1.1" id="Layer_1" xmlns="http://www.w3.org/2000/svg" xmlns:xlink="http://www.w3.org/1999/xlink" x="0px" y="0px"
	 viewBox="0 0 100 100" style="enable-background:new 0 0 100 100;" xml:space="preserve">
<g>
	<path d="M50,0.5C22.7,0.5,0.5,22.7,0.5,50S22.7,99.5,50,99.5S99.5,77.3,99.5,50S77.3,0.5,50,0.5z M50,92C26.8,92,8,73.2,8,50
		S26.8,8,50,8s42,18.8,42,42S73.2,92,50,92z"/>
	<path d="M44.4,28.6c0-3.2-1.1-4.7-3.3-4.8c-2.3-0.1-3.5,1.5-3.5,4.8c0,14,0,28,0,42.1c0,0.7,0,1.3,0.1,2c0.3,1.6,1.7,2.8,3.3,2.8
		c2,0.1,3.5-1.5,3.5-3.8c0-7.3,0-14.6,0-21.9C44.4,42.6,44.4,35.6,44.4,28.6z"/>
	<path d="M62.3,26.6c-0.3-1.8-2.1-3.1-3.9-2.7c-1.9,0.3-2.8,1.6-2.9,3.9c0,7.3,0,14.5,0,21.8c0,7,0,14.1,0,21.1
		c0,3.2,1.2,4.9,3.5,4.8c2.2-0.1,3.4-1.7,3.4-4.8c0-14,0-28,0-42C62.4,27.9,62.4,27.2,62.3,26.6z"/>
</g>
</svg>
