<?xml version="1.0" encoding="utf-8"?>
<!-- Generator: Adobe Illustrator 22.1.0, SVG Export Plug-In . SVG Version: 6.00 Build 0)  -->
<svg version="1.1" id="Layer_1" xmlns="http://www.w3.org/2000/svg" xmlns:xlink="http://www.w3.org/1999/xlink" x="0px" y="0px"
	 viewBox="0 0 100 100" style="enable-background:new 0 0 100 100;" xml:space="preserve">
<style type="text/css">
	.st0{fill:#00EBBB;}
</style>
<g>
	<path class="st0" d="M70.2,4.8c-2.4-1.1-4.9-2.1-7.5-2.7C58.7,1.1,54.4,0.5,50,0.5c-4.1,0-8,0.5-11.8,1.4c-4.1,0.8-8,2.4-11.8,4.4
		C20.3,9.6,15.1,14,10.8,19.5C6.6,25.1,3.3,31,2,37.9C1,41.8,0.5,45.8,0.5,50c0,4.4,0.6,8.7,1.7,12.8c0,0,0,0,0,0c0,0,0,0,0,0.1
		c0.1,0.4,0.2,0.9,0.4,1.3c0,0.1,0.1,0.2,0.1,0.3c0.1,0.4,0.3,0.8,0.4,1.2c0.1,0.3,0.2,0.5,0.3,0.8c0.1,0.2,0.1,0.4,0.2,0.6
		c0.1,0.3,0.2,0.5,0.3,0.8C3.9,68.1,4,68.3,4,68.4c0.1,0.3,0.2,0.5,0.3,0.8c0.2,0.4,0.3,0.7,0.5,1.1c0.1,0.1,0.1,0.2,0.2,0.4
		c0.2,0.4,0.4,0.8,0.6,1.2c0,0,0,0,0,0.1C13.7,88.2,30.5,99.5,50,99.5c27.3,0,49.5-22.2,49.5-49.5C99.5,29.9,87.5,12.6,70.2,4.8z
		 M50.5,8.1c22.4,0.3,41.4,18.5,41.2,42.3c-0.2,23.1-19.4,41.7-42,41.3C25.6,91.2,7.4,72.3,8.1,48C8.7,26.2,27.4,7.8,50.5,8.1z"/>
	<path class="st0" d="M38.2,50.5c0,7.5,0,15,0,22.5c0,2,1,3.2,2.9,3.8c1.9,0.5,3.4,0,4.8-1.3c8.4-7.3,16.7-14.6,25.1-21.8
		c2.6-2.3,2.6-4.2,0-6.4c-5.1-4.4-10.2-8.8-15.4-13.2c-3.5-3-7-6-10.5-9c-1.5-1.3-3.3-1.4-5-0.6c-1.7,0.8-2,2.2-2,4
		C38.3,35.8,38.2,43.1,38.2,50.5z M46.6,36.3c2.1,1.8,4,3.4,5.8,5c3.3,2.8,6.5,5.6,9.8,8.5c0.5,0.4,1,0.7,0.2,1.4
		c-5.1,4.4-10.2,8.8-15.3,13.2c-0.1,0.1-0.3,0.1-0.5,0.2C46.6,55.2,46.6,45.9,46.6,36.3z"/>
</g>
</svg>
