<?xml version="1.0" encoding="utf-8"?>
<!-- Generator: Adobe Illustrator 22.1.0, SVG Export Plug-In . SVG Version: 6.00 Build 0)  -->
<svg version="1.1" id="Layer_1" xmlns="http://www.w3.org/2000/svg" xmlns:xlink="http://www.w3.org/1999/xlink" x="0px" y="0px"
	 viewBox="0 0 250 250" style="enable-background:new 0 0 250 250;" xml:space="preserve">
<style type="text/css">
	.st0{fill:#00EBBB;}
</style>
<g>
	<path class="st0" d="M175,13.1c-5.9-2.7-12.1-5.2-18.6-6.7c-9.9-2.5-20.5-4-31.4-4c-10.1,0-19.8,1.2-29.2,3.5
		c-10.1,2-19.8,5.9-29.2,10.9C51.5,25,38.6,35.9,28,49.5C17.6,63.4,9.4,78,6.2,95.1c-2.5,9.7-3.7,19.6-3.7,29.9
		c0,10.9,1.5,21.5,4.2,31.7l0,0c0,0,0,0,0,0.2c0.2,1,0.5,2.2,1,3.2c0,0.2,0.2,0.5,0.2,0.7c0.2,1,0.7,2,1,3c0.2,0.7,0.5,1.2,0.7,2
		c0.2,0.5,0.2,1,0.5,1.5c0.2,0.7,0.5,1.2,0.7,2c0,0.5,0.2,1,0.2,1.2c0.2,0.7,0.5,1.2,0.7,2c0.5,1,0.7,1.7,1.2,2.7
		c0.2,0.2,0.2,0.5,0.5,1c0.5,1,1,2,1.5,3c0,0,0,0,0,0.2c20,40.1,61.6,68.1,109.9,68.1c67.6,0,122.5-54.9,122.5-122.5
		C247.5,75.3,217.8,32.4,175,13.1z M126.2,21.3c55.4,0.7,102.5,45.8,102,104.7c-0.5,57.2-48,103.2-103.9,102.2
		c-59.6-1.2-104.7-48-102.9-108.1C22.8,66.1,69.1,20.6,126.2,21.3z"/>
	<path class="st0" d="M95.8,126.2c0,18.6,0,37.1,0,55.7c0,4.9,2.5,7.9,7.2,9.4c4.7,1.2,8.4,0,11.9-3.2
		c20.8-18.1,41.3-36.1,62.1-53.9c6.4-5.7,6.4-10.4,0-15.8c-12.6-10.9-25.2-21.8-38.1-32.7c-8.7-7.4-17.3-14.8-26-22.3
		c-3.7-3.2-8.2-3.5-12.4-1.5c-4.2,2-4.9,5.4-4.9,9.9C96,89.9,95.8,107.9,95.8,126.2z M116.6,91.1c5.2,4.5,9.9,8.4,14.4,12.4
		c8.2,6.9,16.1,13.9,24.3,21c1.2,1,2.5,1.7,0.5,3.5c-12.6,10.9-25.2,21.8-37.9,32.7c-0.2,0.2-0.7,0.2-1.2,0.5
		C116.6,137.9,116.6,114.9,116.6,91.1z"/>
</g>
</svg>
