<?xml version="1.0" encoding="utf-8"?>
<!-- Generator: Adobe Illustrator 22.1.0, SVG Export Plug-In . SVG Version: 6.00 Build 0)  -->
<svg version="1.1" id="Layer_1" xmlns="http://www.w3.org/2000/svg" xmlns:xlink="http://www.w3.org/1999/xlink" x="0px" y="0px"
	 viewBox="0 0 100 100" style="enable-background:new 0 0 100 100;" xml:space="preserve">
<g>
	<path d="M50,11.5c-0.4,0-0.9,0-1.3,0l0.1-10.7c0-0.8-0.9-1.1-1.5-0.6l-15,15.5l-0.7,0.7c-0.3,0.3-0.3,0.8,0,1.2l6.7,6.6l8.7,8.5
		c0.5,0.5,1.4,0.2,1.5-0.6l0.1-10.4c0,0,0,0,0.1-0.1C65.2,21,78.8,34.1,78.8,50.5c0,3-0.5,5.9-1.3,8.7c-0.8,2.4,0.2,5,2.5,6.2l0,0
		c2.7,1.4,6.2,0.1,7.1-2.8c1.2-3.8,1.9-7.9,1.9-12.1C89,29,71.5,11.5,50,11.5z"/>
	<path d="M61.6,76.9l-9.8-9.6c-0.5-0.5-1.4-0.2-1.5,0.6l-0.1,11.5H50c-12.3,0-23.5-7.7-27.3-19.3c-2.2-6.8-1.9-13.5,0.2-19.3
		c0.9-2.4-0.1-5.2-2.4-6.4v0c-2.7-1.4-6.1-0.2-7.1,2.6c-2.9,7.7-3.4,16.5-0.6,25.6C17.7,78.8,33.1,89.5,50,89.5h0.1L50,99.2
		c0,0.8,0.9,1.1,1.5,0.6l12.4-12.8l3.3-3.4c0.3-0.3,0.3-0.9,0-1.2L61.6,76.9z"/>
</g>
</svg>
