<?xml version="1.0" encoding="utf-8"?>
<!-- Generator: Adobe Illustrator 22.1.0, SVG Export Plug-In . SVG Version: 6.00 Build 0)  -->
<svg version="1.1" id="Layer_1" xmlns="http://www.w3.org/2000/svg" xmlns:xlink="http://www.w3.org/1999/xlink" x="0px" y="0px"
	 viewBox="0 0 100 100" style="enable-background:new 0 0 100 100;" xml:space="preserve">
<style type="text/css">
	.st0{fill:#FFCC00;}
</style>
<path class="st0" d="M80.8,8.2c-1.3-1.1-2.6-2.1-4-3.1c-0.5-0.3-1-0.6-1.5-0.8C74.3,4,73.3,4,72.3,4.1c-2.9,0.5-5.1,2.6-5.8,5.4
	c-0.6,2.9,0.6,5.9,3.3,7.7c6.1,4,10.3,9.5,13.1,16.2c6.5,15.7,1.1,33.9-12.9,43.1c-15.2,10-36.2,6.5-47.6-7.8
	c-10.7-13.4-10.1-33,1.4-45.6c0.9-1,1.5-1.5,2.6-0.2c1.2,1.4,2.6,2.7,3.9,3.9c1,0.9,1.8,2.1,3.2,2.9c0-6.8-0.1-13.5,0-20.1
	c0.1-2.9-0.9-4.9-3.7-6h-4H7.4c-0.2,0.9,0.5,1.3,1,1.8c1.7,1.7,3.4,3.4,5,5.1c1.1,1.1,1.4,1.5,0.9,2.1c0,0,0,0,0,0
	c-1,1-1.9,2.1-2.8,3.1c-0.1,0.1-0.2,0.2-0.3,0.3c-0.2,0.2-0.4,0.5-0.6,0.8c-0.1,0.2-0.2,0.3-0.4,0.5s-0.2,0.3-0.4,0.5
	c-0.2,0.2-0.3,0.4-0.5,0.7c-2.9,4.1-5.1,8.6-6.7,13.5c0,0.1,0,0.1-0.1,0.2c-0.1,0.3-0.2,0.5-0.3,0.8c-0.1,0.2-0.1,0.4-0.2,0.6
	c-1.2,4.2-1.8,8.7-1.8,13.4c0,3.5,0.4,6.9,1.1,10.2c0.1,0.8,0.3,1.7,0.5,2.5c0.6,2,1.3,4,2,5.9c0,0.1,0.1,0.2,0.1,0.3
	c0.1,0.2,0.2,0.4,0.3,0.7c7.6,17.6,25.1,30,45.5,30c1.6,0,3.2-0.1,4.7-0.2h0l0,0c25.1-2.4,44.7-23.5,44.7-49.3
	C99.5,31.2,92.2,17.2,80.8,8.2z"/>
</svg>
