<?xml version="1.0" encoding="utf-8"?>
<!-- Generator: Adobe Illustrator 22.1.0, SVG Export Plug-In . SVG Version: 6.00 Build 0)  -->
<svg version="1.1" id="Layer_1" xmlns="http://www.w3.org/2000/svg" xmlns:xlink="http://www.w3.org/1999/xlink" x="0px" y="0px"
	 viewBox="0 0 100 100" style="enable-background:new 0 0 100 100;" xml:space="preserve">
<path d="M78.8,70c5.3-7.2,8.5-16.2,8.5-25.8c0-24-19.4-43.4-43.4-43.4S0.5,20.2,0.5,44.1c0,24,19.4,43.4,43.4,43.4
	c9.9,0,19-3.3,26.3-8.9l20.6,20.6l8.7-8.7L78.8,70z M13.8,44.1c0-16.6,13.5-30.1,30.1-30.1S74,27.5,74,44.1
	c0,16.6-13.5,30.1-30.1,30.1S13.8,60.7,13.8,44.1z"/>
</svg>
