<?xml version="1.0" encoding="utf-8"?>
<!-- Generator: Adobe Illustrator 22.1.0, SVG Export Plug-In . SVG Version: 6.00 Build 0)  -->
<svg version="1.1" id="Layer_1" xmlns="http://www.w3.org/2000/svg" xmlns:xlink="http://www.w3.org/1999/xlink" x="0px" y="0px"
	 viewBox="0 0 100 100" style="enable-background:new 0 0 100 100;" xml:space="preserve">
<style type="text/css">
	.st0{fill:#00EBBB;}
</style>
<g>
	<path class="st0" d="M4.8,60.6c1.3-0.1,2.6,0,3.9,0c1-0.1,1.5,0.2,1.8,1.2c0.7,2.9,1.9,5.6,3.4,8.2c0.5,0.8,0.4,1.4-0.3,2
		c-1.2,1.1-2.4,2.2-3.4,3.4c-1.6,1.8-1.6,3.6,0.1,5.3c3,3,6,6.1,9,9c2.1,2.1,3.8,2,6,0c1.3-1.3,2.5-3.3,4-3.6c1.4-0.3,3.2,1.3,4.8,2
		c1.4,0.6,2.8,1.1,4.3,1.5c1.3,0.3,1.6,0.9,1.5,2.1c-0.1,1.5,0,3,0,4.5c0,2.2,0.8,3.2,3,3.8c4.8,0,9.7,0,14.5,0
		c2.3-0.5,3.3-1.6,3.3-3.9c0-1.6,0.1-3.2,0-4.9c0-0.9,0.2-1.4,1.1-1.7c2.9-0.8,5.7-1.9,8.4-3.4c0.7-0.4,1.2-0.3,1.7,0.3
		c1.1,1.1,2.2,2.2,3.3,3.3c2.1,2.1,3.9,2.1,6,0.1c3-3,6-5.9,8.9-8.9c1.9-1.9,1.9-3.8,0-5.7c-1.3-1.4-3.3-2.5-3.8-4.1
		c-0.6-1.7,1.4-3.3,2-5.1c0.5-1.5,1.1-2.9,1.5-4.4c0.2-0.8,0.6-1.1,1.4-1c1.7,0.1,3.4,0,5,0c2.4-0.1,3.4-0.9,4-3.3
		c0-4.8,0-9.7,0-14.5c-0.6-2.2-1.6-3.1-3.9-3.2c-1.6-0.1-3.3-0.1-4.9,0c-1,0-1.4-0.3-1.6-1.2c-0.7-2.8-1.9-5.5-3.3-8
		c-0.5-0.9-0.4-1.5,0.4-2.1c1.2-1.1,2.3-2.2,3.3-3.3c1.9-2,1.9-3.8-0.1-5.7c-3-3-6-5.9-9-8.8c-2.1-2-3.8-2-5.8,0
		c-1.1,1.1-2.2,2.2-3.3,3.3c-0.5,0.6-0.9,0.8-1.7,0.3c-2.7-1.5-5.5-2.7-8.5-3.5c-0.9-0.2-1.1-0.7-1.1-1.6c0.1-1.4,0-2.8,0-4.2
		c0.1-2.1-0.6-3.7-2.6-4.6c-5.3,0-10.5,0-15.8,0c-1.9,0.9-2.6,2.4-2.5,4.5c0.1,1.8,0.6,4-0.3,5.2c-0.8,1.2-3.1,1.2-4.7,1.9
		c-1.5,0.6-3,1.3-4.4,2.1c-0.9,0.5-1.5,0.4-2.1-0.3c-1.1-1.2-2.2-2.2-3.3-3.3c-1.9-1.8-3.6-1.8-5.4,0c-3.1,3.1-6.3,6.3-9.3,9.4
		c-1.7,1.8-1.6,3.6,0,5.3c1.1,1.2,2.3,2.3,3.5,3.4c0.6,0.5,0.8,0.9,0.3,1.7c-1.6,2.8-2.8,5.7-3.6,8.8c-0.2,0.9-0.6,1-1.4,1
		c-1.3,0-2.6,0.1-3.9,0c-2.2-0.2-3.8,0.5-4.9,2.4c0,5.4,0,10.8,0,16.2C1.1,60,2.6,60.8,4.8,60.6z M7.1,47.6c0-0.9,0.6-0.8,1.2-0.8
		c1.5,0,2.9,0,4.4,0c1.8-0.1,3.1-1,3.5-2.8c1-4.9,2.9-9.4,5.6-13.6c0.9-1.4,0.6-3-0.5-4.3c-1-1.1-2.1-2.2-3.2-3.3
		c-0.6-0.6-0.7-1,0-1.6c1.3-1.2,2.3-3.2,3.8-3.4c1.6-0.3,2.5,2,3.8,3.1c1.9,1.7,3.4,1.9,5.6,0.5c3.7-2.4,7.7-4.1,12-4.9
		c2.5-0.5,3.4-1.6,3.5-4.2c0-1.3,0-2.7,0-4c0-0.8,0.2-1.2,1.1-1.2c1.5,0.1,2.9,0.1,4.4,0c1,0,1.3,0.4,1.2,1.3c0,1.5,0,2.9,0,4.4
		c0.1,2.1,1,3.3,3,3.7c4.5,0.9,8.6,2.7,12.5,5.1c2,1.3,3.5,1.1,5.3-0.6c0.2-0.2,0.5-0.5,0.7-0.7c1-0.9,2.3-3,3-2.6
		c1.7,0.9,3,2.6,4.4,4c0.1,0.1,0.1,0.2,0.2,0.4c-0.2,0.2-0.4,0.5-0.6,0.7c-1.1,1.1-2.2,2.2-3.3,3.4c-1.4,1.5-1.6,2.9-0.5,4.6
		c2.6,4,4.4,8.3,5.4,13c0.4,2,1.7,3,3.9,3.1c1.4,0,2.8,0,4.2,0c0.9,0,1.3,0.2,1.3,1.2c-0.1,1.4-0.1,2.8,0,4.2c0,1-0.4,1.3-1.3,1.2
		c-1.4,0-2.8,0-4.2,0c-2.4,0.1-3.4,1-3.9,3.3c-0.9,4.4-2.6,8.4-5,12.2C77,71,77.1,72.3,79,74.2c0.1,0.1,0.2,0.2,0.3,0.4
		c1,1.2,3.3,2.4,2.9,3.4c-0.6,1.7-2.5,2.9-3.9,4.3c-0.5,0.5-0.8,0.1-1.1-0.2c-1-1-2.1-2.1-3.1-3.1c-1.7-1.7-3.3-1.8-5.3-0.6
		c-3.8,2.5-7.9,4.3-12.3,5.1c-2,0.4-3.1,1.6-3.2,3.7c0,1.5,0,3,0,4.5c0,0.8-0.3,1.2-1.1,1.1c-0.1,0-0.1,0-0.2,0
		c-1.7-0.1-3.9,0.7-5.1-0.3c-1.1-0.9-0.3-3.2-0.4-4.8c-0.1-2.7-1-3.8-3.5-4.3c-4.3-0.9-8.2-2.5-11.9-4.8c-2.4-1.6-3.7-1.4-5.8,0.6
		c-1.1,1.1-2.2,3-3.4,3c-1.4,0.1-2.3-2-3.6-3c-1-0.7-1.1-1.3-0.1-2.2c1-0.9,1.9-1.9,2.8-2.9c1.4-1.5,1.6-3.1,0.5-4.7
		c-2.6-3.9-4.3-8.2-5.3-12.8c-0.5-2.2-1.7-3.1-3.9-3.1c-0.1,0-0.2,0-0.3,0c-1.6-0.1-3.9,0.7-4.6-0.4C6.4,51.8,7.2,49.5,7.1,47.6z"/>
	<path class="st0" d="M49.9,74.8c13.4,0,24.2-10.9,24.1-24.3c-0.1-13.4-11-24.2-24.2-24.1c-13.4,0.1-24.1,11-24.1,24.3
		C25.8,64.1,36.6,74.8,49.9,74.8z M50,33.5c9.4,0,17,7.6,17.1,17.1c0,9.4-7.6,17.1-17,17.1c-9.4,0-17.1-7.6-17.2-17
		C32.7,41.2,40.5,33.5,50,33.5z"/>
</g>
</svg>
