<?xml version="1.0" encoding="utf-8"?>
<!-- Generator: Adobe Illustrator 22.1.0, SVG Export Plug-In . SVG Version: 6.00 Build 0)  -->
<svg version="1.1" id="Layer_1" xmlns="http://www.w3.org/2000/svg" xmlns:xlink="http://www.w3.org/1999/xlink" x="0px" y="0px"
	 viewBox="0 0 100 100" style="enable-background:new 0 0 100 100;" xml:space="preserve">
<style type="text/css">
	.st0{fill:#E72220;}
</style>
<g>
	<path class="st0" d="M50,0.6L50,0.6c3,0,5.5,2.5,5.5,5.5v43.7c0,3-2.5,5.5-5.5,5.5h0c-3,0-5.5-2.5-5.5-5.5V6.1
		C44.5,3.1,47,0.6,50,0.6z"/>
	<path class="st0" d="M50,99.4c27.3,0,49.5-22.2,49.5-49.5c0-12.8-4.9-24.5-12.9-33.3c-2.7-2.8-7.2-2.3-9.2,1
		c-1.4,2.3-1,4.6,1.4,7.3C86.5,33.7,89.7,44,88,55.7c-3.4,24.5-31.2,41.7-55.8,28.7c-15.1-8-23.5-25.6-19.9-42.2
		c1.5-7,4.7-13.1,9.4-18.3c2.4-2.7,2.4-5.9,0-8.1c-2.3-2.1-5.5-2-7.7,0.4c-3.5,3.8-6.3,7.8-8.5,12c-3.2,6.6-5,14-5,21.8
		C0.5,77.2,22.7,99.4,50,99.4z"/>
</g>
</svg>
