<?xml version="1.0" encoding="utf-8"?>
<!-- Generator: Adobe Illustrator 22.1.0, SVG Export Plug-In . SVG Version: 6.00 Build 0)  -->
<svg version="1.1" id="Layer_1" xmlns="http://www.w3.org/2000/svg" xmlns:xlink="http://www.w3.org/1999/xlink" x="0px" y="0px"
	 viewBox="0 0 100 100" style="enable-background:new 0 0 100 100;" xml:space="preserve">
<g>
	<path d="M79.2,90c-22.8,0-45.6,0-68.3,0c-1,0-0.9,0.1-0.9-0.9c0-22.8,0-45.6,0-68.5c0-0.5-0.1-0.7-0.7-0.7c-3.1,0-6.2,0-9.3,0
		c0,23.7,0,47.5,0,71.2c0.1,1.3,0.5,2.5,1.1,3.6c1.8,2.9,4.2,4.8,7.6,5.2c23.7,0,47.5,0,71.2,0c0-3.1,0-6.1,0-9.2
		C80,90.1,79.9,90,79.2,90z"/>
	<path d="M99.7,7.1C99,5,97.7,3.3,96,1.9c-1.4-1.1-3-1.8-4.9-1.9c0,0-0.1,0-0.1,0c-0.3,0-0.5,0-0.8,0C70.1,0,49.9,0,29.8,0
		c-0.3,0-0.5,0-0.8,0c0,0-0.1,0-0.1,0c-0.7,0.1-1.3,0.1-2,0.3c-4.2,1.5-7.1,5.5-7.1,10c0,19.7,0,39.4,0,59.1c0,2.9,0.9,5.4,2.9,7.5
		c2,2,4.4,3.2,7.3,3.2c20,0,40,0,60.1,0c0.9,0,1.7-0.1,2.6-0.4c4.1-1.4,6.8-4.1,7.4-8.6c0-20.8,0-41.6,0-62.4
		C99.9,8.3,99.9,7.7,99.7,7.1z M79.4,25c-4.5,0-9,0-13.5,0C65,25,65,25,65,25.9c0,9,0,18,0,26.9c0,3-0.7,5.7-2.5,8.1
		c-2.2,2.9-5.2,4.3-8.8,4.6c-3.3,0.2-6.3-0.4-9-2.4c-2.4-1.9-4.3-4-4.9-7.1c-1-5.3,0.8-9.5,4.8-12.9c2.5-2.1,5.4-3.2,8.7-3
		c2.5,0.1,4.7,0.9,6.8,2.5c0-0.4,0-0.6,0-0.8c0-8.7,0-17.3,0-26c0-0.5,0.1-0.7,0.7-0.7c6.3,0,12.5,0,18.8,0c0.5,0,0.6,0.1,0.6,0.6
		c0,2.9,0,5.9,0,8.8C80,24.9,79.9,25,79.4,25z"/>
</g>
</svg>
