<?xml version="1.0" encoding="utf-8"?>
<!-- Generator: Adobe Illustrator 22.1.0, SVG Export Plug-In . SVG Version: 6.00 Build 0)  -->
<svg version="1.1" id="Layer_1" xmlns="http://www.w3.org/2000/svg" xmlns:xlink="http://www.w3.org/1999/xlink" x="0px" y="0px"
	 viewBox="0 0 250 250" style="enable-background:new 0 0 250 250;" xml:space="preserve">
<g>
	<g>
		<path d="M3.6,129.2c-0.2,0-0.4,0.2-0.4,0.4L2.5,135l0.7,5.4c0,0.2,0.2,0.4,0.4,0.4c0.2,0,0.4-0.2,0.4-0.4l0,0v0c0,0,0,0,0,0
			l0.9-5.4L4,129.6C4,129.3,3.8,129.2,3.6,129.2z"/>
		<path d="M7.6,126.2c0-0.2-0.2-0.4-0.4-0.4c-0.2,0-0.4,0.2-0.4,0.4c0,0-1,8.8-1,8.8l1,8.6c0,0.2,0.2,0.4,0.4,0.4
			c0.2,0,0.4-0.2,0.4-0.4l1.1-8.6L7.6,126.2z"/>
		<path d="M22.9,118.1c-0.4,0-0.7,0.3-0.7,0.7L21.3,135l0.8,10.5c0,0.4,0.3,0.7,0.7,0.7c0.4,0,0.7-0.3,0.7-0.7v0l0.9-10.5l-0.9-16.2
			C23.6,118.4,23.2,118.1,22.9,118.1z"/>
		<path d="M15,123.7c-0.3,0-0.6,0.2-0.6,0.6L13.5,135l0.9,10.4c0,0.3,0.3,0.6,0.6,0.6c0.3,0,0.5-0.2,0.6-0.6l1-10.4l-1-10.7
			C15.5,124,15.3,123.7,15,123.7z"/>
		<path d="M30.8,146.2c0.5,0,0.9-0.4,0.9-0.9l0.8-10.3l-0.8-21.6c0-0.5-0.4-0.9-0.9-0.9c-0.5,0-0.9,0.4-0.9,0.9
			c0,0-0.7,21.6-0.7,21.6l0.7,10.3C30,145.8,30.4,146.2,30.8,146.2z"/>
		<path d="M47.2,146.3c0.7,0,1.2-0.6,1.2-1.2v0v0l0.5-10l-0.5-24.9c0-0.7-0.6-1.2-1.2-1.2c-0.7,0-1.2,0.6-1.2,1.2L45.5,135
			c0,0,0.5,10,0.5,10C46,145.7,46.5,146.3,47.2,146.3z"/>
		<path d="M39,146.2c0.6,0,1.1-0.5,1.1-1.1v0l0.6-10.1L40,113.3c0-0.6-0.5-1.1-1.1-1.1c-0.6,0-1.1,0.5-1.1,1.1L37.3,135l0.6,10.1
			C37.9,145.8,38.4,146.2,39,146.2z"/>
		<path d="M18.9,146.2c0.3,0,0.6-0.3,0.7-0.6l0.9-10.5l-0.9-10c0-0.4-0.3-0.6-0.7-0.6c-0.4,0-0.6,0.3-0.7,0.7l-0.8,10l0.8,10.5
			C18.3,145.9,18.5,146.2,18.9,146.2z"/>
		<path d="M11.1,145.6c0.3,0,0.5-0.2,0.5-0.5l1-10.1l-1-10.5c0-0.3-0.2-0.5-0.5-0.5c-0.3,0-0.5,0.2-0.5,0.5c0,0-0.9,10.5-0.9,10.5
			l0.9,10.1C10.6,145.4,10.8,145.6,11.1,145.6z"/>
		<path d="M43.1,112.9c-0.6,0-1.2,0.5-1.2,1.2l-0.5,21l0.5,10.1c0,0.6,0.5,1.1,1.2,1.1c0.6,0,1.1-0.5,1.2-1.2v0l0.6-10.1l-0.6-21
			C44.2,113.4,43.7,112.9,43.1,112.9z"/>
		<path d="M26.8,146.3c0.4,0,0.8-0.4,0.8-0.8l0.8-10.4l-0.8-19.9c0-0.5-0.4-0.8-0.8-0.8c-0.4,0-0.8,0.4-0.8,0.8
			c0,0-0.7,19.9-0.7,19.9l0.7,10.4C26,145.9,26.4,146.3,26.8,146.3z"/>
		<path d="M35.9,145.3L35.9,145.3l0.7-10.2l-0.7-22.3c0-0.6-0.5-1-1-1c-0.5,0-1,0.4-1,1L33.3,135l0.6,10.2c0,0.5,0.5,1,1,1
			C35.4,146.3,35.9,145.8,35.9,145.3L35.9,145.3z"/>
		<path d="M88.6,122.2c-1.7,0-3.2,0.3-4.7,0.9c-1-10.9-10.1-19.4-21.2-19.4c-2.7,0-5.4,0.5-7.7,1.4c-0.9,0.4-1.2,0.7-1.2,1.4v38.3
			c0,0.7,0.6,1.4,1.3,1.4c0,0,33.2,0,33.5,0c6.7,0,12.1-5.4,12.1-12.1C100.6,127.6,95.2,122.2,88.6,122.2z"/>
		<path d="M51.3,106.5c-0.7,0-1.3,0.6-1.3,1.3L49.5,135l0.5,9.9c0,0.7,0.6,1.3,1.3,1.3c0.7,0,1.3-0.6,1.3-1.3v0l0.6-9.9l-0.6-27.2
			C52.7,107.1,52.1,106.5,51.3,106.5z"/>
	</g>
	<g>
		<path d="M111.8,126.9c-2.3-0.5-2.9-0.8-2.9-1.8c0-0.6,0.5-1.3,2.1-1.3c1.3,0,2.4,0.5,3.3,1.5l2.1-2c-1.4-1.4-3-2.3-5.3-2.3
			c-2.9,0-5.2,1.6-5.2,4.3c0,2.9,1.9,3.7,4.6,4.4c2.8,0.6,3.3,1,3.3,2c0,1.1-0.8,1.6-2.5,1.6c-1.4,0-2.7-0.5-3.7-1.7l-2.1,1.9
			c1.1,1.6,3.2,2.7,5.7,2.7c4,0,5.7-1.9,5.7-4.7C116.7,128.2,114.2,127.4,111.8,126.9z"/>
		<path d="M125.3,120.9c-4,0-6.3,3.1-6.3,7.5c0,4.5,2.4,7.5,6.3,7.5c4,0,6.4-3.1,6.4-7.5C131.6,124,129.3,120.9,125.3,120.9z
			 M125.3,133.1c-2.4,0-3.3-2-3.3-4.6c0-2.6,1-4.6,3.3-4.6c2.4,0,3.3,2,3.3,4.6C128.6,131.1,127.7,133.1,125.3,133.1z"/>
		<path d="M143.4,129.4c0,2.3-1.2,3.8-3,3.8c-1.9,0-3-1.5-3-3.8v-8.2h-2.9v8.2c0,4.3,2.4,6.6,5.9,6.6c3.7,0,5.9-2.4,5.9-6.7v-8.2
			h-2.9V129.4z"/>
		<path d="M159,127.4c0,0.8,0,2.7,0,3.2c-0.2-0.4-0.7-1.1-1-1.7l-5.2-7.7H150v14.6h2.9v-6.4c0-0.8,0-2.7,0-3.2
			c0.2,0.4,0.7,1.1,1,1.7l5.4,8h2.6v-14.6H159V127.4z"/>
		<path d="M170.2,121.2h-4.6v14.6h4.4c3.8,0,7.5-2.2,7.5-7.3C177.5,123.1,174.4,121.2,170.2,121.2z M170,133h-1.4V124h1.5
			c3.1,0,4.4,1.5,4.4,4.5C174.5,131.2,173.1,133,170,133z"/>
		<path d="M186.5,123.9c1.3,0,2.2,0.6,2.7,1.6l2.7-1.3c-0.9-1.9-2.6-3.2-5.3-3.2c-3.8,0-6.5,3.1-6.5,7.5c0,4.6,2.6,7.5,6.4,7.5
			c2.7,0,4.4-1.2,5.4-3.3l-2.5-1.5c-0.8,1.3-1.5,1.9-2.9,1.9c-2.2,0-3.5-2-3.5-4.6C183.1,125.8,184.3,123.9,186.5,123.9z"/>
		<polygon points="197.4,121.2 194.4,121.2 194.4,135.8 203.2,135.8 203.2,132.9 197.4,132.9 		"/>
		<path d="M210.9,120.9c-4,0-6.4,3.1-6.4,7.5c0,4.5,2.4,7.5,6.4,7.5c4,0,6.3-3.1,6.3-7.5C217.3,124,214.9,120.9,210.9,120.9z
			 M210.9,133.1c-2.4,0-3.3-2-3.3-4.6c0-2.6,1-4.6,3.3-4.6c2.4,0,3.3,2,3.3,4.6C214.3,131.1,213.3,133.1,210.9,133.1z"/>
		<path d="M229.1,129.4c0,2.3-1.1,3.8-3,3.8c-1.9,0-3-1.5-3-3.8v-8.2h-2.9v8.2c0,4.3,2.4,6.6,5.9,6.6c3.7,0,5.9-2.4,5.9-6.7v-8.2
			h-2.9V129.4z"/>
		<path d="M240.2,121.2h-4.6v14.6h4.4c3.8,0,7.5-2.2,7.5-7.3C247.5,123.1,244.4,121.2,240.2,121.2z M240,133h-1.4V124h1.5
			c3.1,0,4.4,1.5,4.4,4.5C244.5,131.2,243.1,133,240,133z"/>
	</g>
</g>
</svg>
