<?xml version="1.0" encoding="utf-8"?>
<!-- Generator: Adobe Illustrator 22.1.0, SVG Export Plug-In . SVG Version: 6.00 Build 0)  -->
<svg version="1.1" id="Layer_1" xmlns="http://www.w3.org/2000/svg" xmlns:xlink="http://www.w3.org/1999/xlink" x="0px" y="0px"
	 viewBox="0 0 100 100" style="enable-background:new 0 0 100 100;" xml:space="preserve">
<style type="text/css">
	.st0{fill:#010100;}
</style>
<g>
	<path d="M64,36.9c3.6-0.3,7.3-0.6,10.9-1c3.1-0.3,6.2-0.6,9.4-0.9c3.5-0.3,6.9-0.6,10.4-1c2-0.2,3.5-2.2,3.1-4.2
		c-0.4-2.5-0.9-5.1-1.3-7.6c-1-6.4-2.1-12.7-3.1-19.1c-0.4-1.8-2-3.2-3.8-3.1c-2.2,0.2-4.5,0.4-6.7,0.7c-2.7,0.3-5.5,0.6-8.2,0.9
		C71.2,2,67.6,2.3,64.1,2.7c-3,0.3-6,0.7-9,1.1C51,4.2,46.9,4.7,42.9,5.5c-4.4,0.9-6.7,3.8-6.7,8.2c0,9.5,0,19,0,28.5
		c0,9.7,0,19.4,0,29.1c0,0.1,0,0.3,0,0.4c0,0.4-0.1,0.4-0.4,0.3c-0.7-0.3-1.5-0.7-2.2-1c-5-2.5-10.2-3.6-15.7-2.5
		c-4.8,1-9.1,3-12.4,6.6c-3,3.3-4.3,7.2-3.3,11.7C2.9,90.3,5,93,7.9,95.1c4,3,8.4,4.7,13.5,4.9c4.6,0.1,9-1.1,13-3.3
		c5.3-2.8,8.3-7.2,8.2-13.3c0-2.7-0.1-5.4-0.1-8.1c0-11.1,0-22.2,0-33.3c0-0.7,0-1.3,0.1-2c0.1-1,0.7-1.6,1.7-1.7
		c1.4-0.1,2.8-0.2,4.2-0.3c2.4-0.2,4.9-0.4,7.3-0.6C58.5,37.4,61.2,37.2,64,36.9z"/>
	<path d="M65.9,74.4c-0.4-1.3-1.6-1.9-2.9-2.3c0.3-0.3,0.5-0.5,0.8-0.7c0.8-0.7,0.5-1.5,0.3-2.4c-0.2-0.7-0.8-0.8-1.5-0.8
		c-1.5-0.2-2.9,0.3-4.4-0.1c-0.3-0.1-0.6,0-0.9,0.2c-0.9,0.3-1,1.3-0.3,1.9c0.6,0.5,0.5,1.3-0.2,1.7c-0.5,0.3-0.8,0.7-0.7,1.3
		c0.1,0.6,0.3,1,1,0.9c0.2,0,0.3,0.1,0.3,0.3c0.1,0.7,0.1,1.4,0,2.1c-0.6,0-1-0.4-1.6-0.4c0.2,0.8,0.3,1.5,0.9,2
		c0.6,0.5,1,1,0.9,1.8c0,0,0.1,0,0.1,0.1c0.4-0.2,0.5-0.8,1.1-0.7c1.4,0.2,2.8,0.2,4.1-0.1C65.9,78.5,66.6,76.6,65.9,74.4z
		 M59.7,70.1c0.6-0.1,1.3-0.3,2-0.1c-0.6,0.5-1.3,0.7-1.9,1c-0.2,0.1-0.3-0.1-0.3-0.2C59.6,70.5,59.3,70.1,59.7,70.1z M59.8,76.8
		c-0.4,0.1-0.5-0.1-0.5-0.5c0.1-0.6,0.2-1.3,0.1-1.9c0-0.3,0.1-0.4,0.4-0.4c0.9,0.1,1.9,0.1,2.8,0.5c0.2,0.1,0.4,0.2,0.6,0.3
		c0.3,0.2,0.6,0.3,0.6,0.6c0,0.4-0.4,0.4-0.6,0.5C62.4,76.5,60.9,76.8,59.8,76.8z"/>
	<path d="M93.8,53.8c-2.3,0.1-4.6,0.2-6.9,0.3c-5.1,0.2-10.2,0.4-15.3,0.5c-2.5,0.1-5.1,0.2-7.6,0.3c-0.3,0-0.5,0-0.5,0.4
		s0.2,0.4,0.5,0.4c2.4,0.1,4.9,0.2,7.3,0.3c4.4,0.2,8.7,0.3,13.1,0.5l0,0c3.2,0.1,6.3,0.2,9.5,0.3c0.5,0,0.6-0.1,0.6-0.6
		c0-0.6,0-1.2,0-1.8C94.5,54,94.3,53.8,93.8,53.8z"/>
	<path d="M68.7,77.5c3,0.1,6,0.2,9,0.3c5.9,0.2,11.9,0.3,17.8,0.5c1.2,0,1.2,0,1.2-1.2s0-1.2-1.2-1.2c-0.3,0-0.5,0-0.8,0.1
		c-5.9,0.2-11.8,0.3-17.7,0.5c-2.8,0.1-5.6,0.1-8.4,0.2c-0.3,0-0.7-0.1-0.7,0.4C68,77.6,68.4,77.5,68.7,77.5z"/>
	<path d="M54.7,47.4c-0.8-0.2-1.6-0.4-2.4-0.3c-0.5,0.1-0.7,0.2-0.8,0.7C51.2,50,50.7,52,49.9,54c-0.3,0.7-0.1,1.3,0.3,1.8
		c0.3,0.5,0.9,0.3,1.4,0.2c0.9-0.1,1.8-0.4,2.7-0.2c1.1,0.2,2.1,0.2,3.2-0.1c-0.9-2.4-1.5-4.9-1.9-7.5
		C55.4,47.8,55.1,47.5,54.7,47.4z M52.6,53.2c0.3-0.6,0.5-1.2,0.9-1.9c0.3,0.8,0.6,1.4,0.9,2.2C53.7,53.4,53.2,53.3,52.6,53.2z"/>
	<path d="M69.7,93c0,0.1-0.1,0.2-0.1,0.2c-0.4,1.4-1.4,2.3-2.7,2.8c-1.7,0.6-3.7-0.4-3.9-1.9c-0.3-1.7,1.6-4.5,4.2-3.6
		c0.7,0.2,1,0,1.2-0.6c0.1-0.3,0.2-0.7,0.3-1c0.1-0.8-0.2-1.3-1.1-1.4c-0.5-0.1-1-0.1-1.5,0.1c-4.7,1.1-5.5,6.7-3.7,9.4
		c1.1,1.7,3.4,2.4,5.3,1.6c2.1-0.9,2.7-2.7,2.4-4.7C70.1,93.4,70.1,93.1,69.7,93z"/>
	<path d="M98.2,98c0-0.4-0.2-0.5-0.5-0.4c-0.8,0.1-1.7,0.1-2.5,0.1c-4.5,0.1-9,0.2-13.5,0.4c-2.6,0.1-5.2,0.1-7.9,0.2
		c-0.3,0-0.6-0.1-0.6,0.4s0.3,0.4,0.6,0.4c1.4,0,2.9,0,4.3,0v0.1c2.4,0.1,4.7,0.2,7.1,0.2c3.7,0.1,7.5,0.2,11.2,0.3
		C98.3,99.9,98.2,99.9,98.2,98z"/>
	<path class="st0" d="M56.4,58.6c1,0.1,1.3-0.3,0.9-1.2c-0.1-0.4-0.5-0.5-0.8-0.6c-1.9-0.6-3.8-0.6-5.7-0.3
		c-1.2,0.2-1.5,0.7-1.3,1.9c0.1,0.7,0.6,1,1.3,0.8c1.7-0.4,3.4-0.6,5.1-0.6C56.1,58.6,56.3,58.6,56.4,58.6z"/>
</g>
</svg>
