<?xml version="1.0" encoding="utf-8"?>
<!-- Generator: Adobe Illustrator 22.1.0, SVG Export Plug-In . SVG Version: 6.00 Build 0)  -->
<svg version="1.1" id="Layer_1" xmlns="http://www.w3.org/2000/svg" xmlns:xlink="http://www.w3.org/1999/xlink" x="0px" y="0px"
	 viewBox="0 0 368 368" style="enable-background:new 0 0 368 368;" xml:space="preserve">
<style type="text/css">
	.st0{fill:#FFFFFF;}
	.st1{fill-rule:evenodd;clip-rule:evenodd;fill:#1B1C20;}
	.st2{fill-rule:evenodd;clip-rule:evenodd;fill:#E50006;}
	.st3{fill-rule:evenodd;clip-rule:evenodd;fill:#003E87;}
</style>
<g>
	<path class="st0" d="M348,368H20c-11,0-20-9-20-20V20C0,9,9,0,20,0h328c11,0,20,9,20,20v328C368,359,359,368,348,368z"/>
	<g>
		<polygon class="st1" points="103.3,84.3 61.4,148.9 51,142.3 92.9,77.6 103.3,84.3 		"/>
		<polygon class="st1" points="63.1,310 21.1,245.4 31.6,238.7 73.5,303.4 63.1,310 		"/>
		<polygon class="st1" points="279.6,74.3 321.8,139 331.9,132.4 290,67.7 279.6,74.3 		"/>
		<polygon class="st1" points="78,67.9 36.1,132.6 46.5,139.2 88.4,74.6 78,67.9 		"/>
		<polygon class="st1" points="306.6,148.7 317,142.1 297.8,112.2 287.4,119.1 306.6,148.7 		"/>
		<polygon class="st1" points="345.9,245.6 335.5,238.7 316.1,268.6 326.5,275.2 345.9,245.6 		"/>
		<polygon class="st1" points="78,300.3 88.4,293.7 69,263.8 58.6,270.7 78,300.3 		"/>
		<polygon class="st1" points="336.7,129.3 346.9,122.6 327.7,92.8 317.3,99.7 336.7,129.3 		"/>
		<polygon class="st1" points="315.8,225.9 305.7,219.3 286.2,249.1 296.7,255.8 315.8,225.9 		"/>
		<polygon class="st1" points="331,235.9 320.6,229 301.2,258.9 311.6,265.5 331,235.9 		"/>
		<polygon class="st1" points="284.1,113.9 294.5,107.2 275.1,77.4 264.7,84.3 284.1,113.9 		"/>
		<polygon class="st1" points="323.2,280.4 312.8,273.6 293.6,303.4 303.8,310 323.2,280.4 		"/>
		<polygon class="st1" points="55.2,265.5 65.7,258.9 46.5,229 36.1,235.6 55.2,265.5 		"/>
		<polygon class="st1" points="313.9,94.5 324.4,87.8 304.9,58 294.5,64.8 313.9,94.5 		"/>
		<polygon class="st1" points="293.3,261 282.9,254.1 263.5,284 273.9,290.6 293.3,261 		"/>
		<polygon class="st1" points="308.3,270.7 297.8,263.8 278.6,293.7 288.8,300.3 308.3,270.7 		"/>
		<polygon class="st1" points="73.5,64.8 31.3,129.5 21.1,122.9 63.1,58.2 73.5,64.8 		"/>
		<polygon class="st1" points="92.9,290.6 51,225.9 61.4,219.3 103.3,284 92.9,290.6 		"/>
		<path class="st2" d="M163.6,108.6c-7.8,2.2-15.5,5.8-22.3,10.3c-6.9,4.6-12.7,10.4-17.9,16.6c-4.8,6.4-8.8,13.2-11.5,20.7
			c-2.7,7.4-4.1,15.2-4.6,23.3c-0.3,7.9,0.7,16,2.9,24c2.2,8,5.8,15.5,10.4,22.5c4.5,6.7,10.1,12.8,16.5,17.6
			c6.2,4.9,13.2,8.8,20.7,11.5c7.4,2.7,15.2,4.3,23.1,4.6c8.1,0.2,16.3-0.6,24.3-3c7.8-2.1,15.5-5.8,22.3-10.3
			c6.9-4.6,12.8-10.1,17.9-16.6c4.9-6.2,8.8-13.2,11.5-20.7c2.7-7.4,4.1-15.2,4.6-23.1c0.2-8.1-0.8-16.2-2.9-24
			c-2.2-8-5.8-15.5-10.4-22.5c-4.6-6.9-10.1-12.8-16.5-17.6c-6.5-5.1-13.3-9-20.7-11.5c-7.4-2.7-15.2-4.3-23.3-4.6
			C179.8,105.3,171.6,106.4,163.6,108.6L163.6,108.6z"/>
		<path class="st3" d="M109.4,164.9c-1.2,4.7-1.7,9.6-2,14.7c-0.3,7.9,0.7,16,2.9,24c2.2,8,5.8,15.5,10.4,22.5
			c4.5,6.7,10.1,12.8,16.5,17.6c6.2,4.9,13.2,8.8,20.7,11.5c7.4,2.7,15.2,4.3,23.1,4.6c8.1,0.2,16.3-0.6,24.3-3
			c7.8-2.1,15.5-5.8,22.3-10.3c6.9-4.6,12.8-10.1,17.9-16.6c4.9-6.2,8.8-13.2,11.5-20.7c0.1-0.5,0.4-1.1,0.6-2c0,0-0.1-0.2,0.2-0.3
			c0.7-2.5,1.1-4.9,1.3-7.2c0.4-3.4,0.2-6.8-0.4-10.1c-0.3-3.1-1.4-6.3-2.7-9.4c-0.8-1.5-1.5-3-2.3-4.5c-1-1.4-1.9-2.6-2.9-4
			c-1.1-1.1-2.1-2.5-3.5-3.6c-1.1-1.1-2.3-2.2-3.6-3.3c-1.3-0.8-2.9-1.8-4.1-2.6c-1.5-0.7-3-1.5-4.5-2.2c-3.2-1.2-6.2-1.9-9.5-2.3
			c-3.2-0.7-6.7-0.5-10-0.1c-3.1,0.5-6.3,1.4-9.3,2.7c-1.6,0.5-3.1,1.3-4.6,2.1c-1.5,0.8-2.9,1.7-4.1,2.7c-1.3,1.2-2.5,2.1-3.9,3.3
			c-1.1,1.1-2.2,2.3-3.6,4.2c-1.3,2-2.7,4.7-3.9,7.6c-1.5,3-3,6-4.2,8.2c-1.3,2.2-2.1,3.5-3.1,4.8c-1,1.4-2.2,2.5-3.3,3.6
			c-1.1,1.1-2.5,2.3-3.9,3.3c-1.2,0.9-2.6,1.9-4.1,2.6c-1.4,1-2.9,1.7-4.5,2.3c-2.8,1.2-6.1,2.1-9.4,2.5c-3.3,0.6-6.6,0.5-10,0.1
			c-3.4-0.4-6.5-1.3-9.6-2.5c-1.4-0.5-2.9-1.3-4.2-2.1c-1.5-0.7-2.9-1.8-4.2-2.8c-1.3-0.8-2.6-1.9-3.8-3c-1.2-1.3-2.3-2.5-3.3-3.9
			c-1.1-1.1-2.1-2.5-2.9-4c-1-1.4-1.7-2.9-2.4-4.2c-1.1-3.1-2.1-6.3-2.8-9.6c-0.4-2.6-0.8-6.7-0.7-10
			C109.7,165.7,109.6,165.3,109.4,164.9L109.4,164.9z"/>
	</g>
</g>
</svg>
