<?xml version="1.0" encoding="utf-8"?>
<!-- Generator: Adobe Illustrator 22.1.0, SVG Export Plug-In . SVG Version: 6.00 Build 0)  -->
<svg version="1.1" id="Layer_1" xmlns="http://www.w3.org/2000/svg" xmlns:xlink="http://www.w3.org/1999/xlink" x="0px" y="0px"
	 viewBox="0 0 368 368" style="enable-background:new 0 0 368 368;" xml:space="preserve">
<style type="text/css">
	.st0{clip-path:url(#SVGID_2_);}
	.st1{fill-rule:evenodd;clip-rule:evenodd;fill:#DE290F;}
	.st2{fill-rule:evenodd;clip-rule:evenodd;fill:#FFDE00;}
</style>
<g>
	<defs>
		<path id="SVGID_1_" d="M348,368H20c-11,0-20-9-20-20V20C0,9,9,0,20,0h328c11,0,20,9,20,20v328C368,359,359,368,348,368z"/>
	</defs>
	<clipPath id="SVGID_2_">
		<use xlink:href="#SVGID_1_"  style="overflow:visible;"/>
	</clipPath>
	<g class="st0">
		<rect class="st1" width="552" height="368"/>
		<polygon class="st2" points="91.3,36.2 103.6,74.3 143.8,74.2 111.2,97.7 123.7,135.8 91.3,112.2 58.8,135.8 71.3,97.7 38.8,74.2 
			78.9,74.3 		"/>
		<polygon class="st2" points="190.3,19.3 189.1,32.6 201.5,37.9 188.4,40.8 187.2,54.2 180.4,42.7 167.3,45.7 176.1,35.6 
			169.2,24.2 181.5,29.4 		"/>
		<polygon class="st2" points="233.2,60.1 227,72 236.4,81.5 223.1,79.2 216.9,91.1 215,77.9 201.8,75.6 213.8,69.7 211.9,56.5 
			221.2,66.1 		"/>
		<polygon class="st2" points="237.4,121.9 226.8,130 231.2,142.6 220.2,135 209.6,143.1 213.4,130.3 202.4,122.7 215.8,122.4 
			219.6,109.6 224,122.2 		"/>
		<polygon class="st2" points="201.4,165.6 188.4,169.1 187.8,182.5 180.5,171.3 167.6,174.8 176,164.4 168.6,153.2 181.1,158 
			189.5,147.6 188.8,160.9 		"/>
	</g>
</g>
</svg>
