<?xml version="1.0" encoding="utf-8"?>
<!-- Generator: Adobe Illustrator 22.1.0, SVG Export Plug-In . SVG Version: 6.00 Build 0)  -->
<svg version="1.1" id="Layer_1" xmlns="http://www.w3.org/2000/svg" xmlns:xlink="http://www.w3.org/1999/xlink" x="0px" y="0px"
	 viewBox="0 0 600 600" style="enable-background:new 0 0 600 600;" xml:space="preserve">
<style type="text/css">
	.st0{clip-path:url(#SVGID_2_);}
	.st1{fill:#DE290F;}
	.st2{fill:#FFDE00;}
</style>
<g>
	<g>
		<defs>
			<path id="SVGID_1_" d="M567.4,600H32.6C14.7,600,0,585.3,0,567.4V32.6C0,14.7,14.7,0,32.6,0h534.8C585.3,0,600,14.7,600,32.6
				v534.8C600,585.3,585.3,600,567.4,600z"/>
		</defs>
		<clipPath id="SVGID_2_">
			<use xlink:href="#SVGID_1_"  style="overflow:visible;"/>
		</clipPath>
		<g class="st0">
			<rect class="st1" width="900" height="600"/>
			<polygon class="st2" points="148.9,59 168.9,121.1 234.5,121 181.3,159.3 201.7,221.4 148.9,182.9 95.9,221.4 116.3,159.3 
				63.3,121 128.6,121.1 			"/>
			<polygon class="st2" points="310.3,31.5 308.3,53.2 328.5,61.8 307.2,66.5 305.2,88.4 294.1,69.6 272.8,74.5 287.1,58 
				275.9,39.5 295.9,47.9 			"/>
			<polygon class="st2" points="380.2,98 370.1,117.4 385.4,132.9 363.8,129.1 353.6,148.5 350.5,127 329,123.3 348.6,113.6 
				345.5,92.1 360.7,107.8 			"/>
			<polygon class="st2" points="387.1,198.8 369.8,212 377,232.5 359,220.1 341.7,233.3 347.9,212.4 330,200.1 351.8,199.6 
				358,178.7 365.2,199.2 			"/>
			<polygon class="st2" points="328.4,270 307.2,275.7 306.2,297.6 294.3,279.3 273.3,285 287,268 274.9,249.8 295.3,257.6 
				309,240.7 307.8,262.3 			"/>
		</g>
	</g>
</g>
</svg>
