<?xml version="1.0" encoding="utf-8"?>
<!-- Generator: Adobe Illustrator 22.1.0, SVG Export Plug-In . SVG Version: 6.00 Build 0)  -->
<svg version="1.1" id="Layer_1" xmlns="http://www.w3.org/2000/svg" xmlns:xlink="http://www.w3.org/1999/xlink" x="0px" y="0px"
	 viewBox="0 0 600 600" style="enable-background:new 0 0 600 600;" xml:space="preserve">
<style type="text/css">
	.st0{fill:#FFFFFF;}
	.st1{fill:#1B1C20;}
	.st2{fill:#E50006;}
	.st3{fill:#003E87;}
</style>
<g>
	<path class="st0" d="M567.4,600H32.6C14.7,600,0,585.3,0,567.4V32.6C0,14.7,14.7,0,32.6,0h534.8C585.3,0,600,14.7,600,32.6v534.8
		C600,585.3,585.3,600,567.4,600z"/>
	<g>
		<polygon class="st1" points="168.4,137.4 100.1,242.8 83.2,232 151.5,126.5 		"/>
		<polygon class="st1" points="102.9,505.4 34.4,400.1 51.5,389.2 119.8,494.7 		"/>
		<polygon class="st1" points="455.9,121.1 524.7,226.6 541.1,215.9 472.8,110.4 		"/>
		<polygon class="st1" points="127.2,110.7 58.9,216.2 75.8,227 144.1,121.6 		"/>
		<polygon class="st1" points="499.9,242.4 516.8,231.7 485.5,182.9 468.6,194.2 		"/>
		<polygon class="st1" points="564,400.4 547,389.2 515.4,437.9 532.3,448.7 		"/>
		<polygon class="st1" points="127.2,489.6 144.1,478.9 112.5,430.1 95.5,441.4 		"/>
		<polygon class="st1" points="549,210.8 565.6,199.9 534.3,151.3 517.3,162.6 		"/>
		<polygon class="st1" points="514.9,368.3 498.4,357.6 466.6,406.1 483.8,417.1 		"/>
		<polygon class="st1" points="539.7,384.6 522.7,373.4 491.1,422.1 508,432.9 		"/>
		<polygon class="st1" points="463.2,185.7 480.2,174.8 448.5,126.2 431.6,137.4 		"/>
		<polygon class="st1" points="527,457.2 510,446.1 478.7,494.7 495.3,505.4 		"/>
		<polygon class="st1" points="90,432.9 107.1,422.1 75.8,373.4 58.9,384.1 		"/>
		<polygon class="st1" points="511.8,154.1 528.9,143.2 497.1,94.6 480.2,105.7 		"/>
		<polygon class="st1" points="478.2,425.5 461.2,414.3 429.6,463 446.6,473.8 		"/>
		<polygon class="st1" points="502.7,441.4 485.5,430.1 454.2,478.9 470.9,489.6 		"/>
		<polygon class="st1" points="119.8,105.7 51,211.1 34.4,200.4 102.9,94.9 		"/>
		<polygon class="st1" points="151.5,473.8 83.2,368.3 100.1,357.6 168.4,463 		"/>
		<path class="st2" d="M266.7,177.1c-12.7,3.6-25.3,9.5-36.4,16.8c-11.2,7.5-20.7,17-29.2,27.1c-7.8,10.4-14.3,21.5-18.8,33.7
			c-4.4,12.1-6.7,24.8-7.5,38c-0.5,12.9,1.1,26.1,4.7,39.1c3.6,13,9.5,25.3,17,36.7c7.3,10.9,16.5,20.9,26.9,28.7
			c10.1,8,21.5,14.3,33.8,18.8c12.1,4.4,24.8,7,37.7,7.5c13.2,0.3,26.6-1,39.6-4.9c12.7-3.4,25.3-9.5,36.4-16.8
			c11.2-7.5,20.9-16.5,29.2-27.1c8-10.1,14.3-21.5,18.8-33.8c4.4-12.1,6.7-24.8,7.5-37.7c0.3-13.2-1.3-26.4-4.7-39.1
			c-3.6-13-9.5-25.3-17-36.7c-7.5-11.2-16.5-20.9-26.9-28.7c-10.6-8.3-21.7-14.7-33.8-18.8c-12.1-4.4-24.8-7-38-7.5
			C293.2,171.7,279.8,173.5,266.7,177.1L266.7,177.1z"/>
		<path class="st3" d="M178.4,268.9c-2,7.7-2.8,15.7-3.3,24c-0.5,12.9,1.1,26.1,4.7,39.1s9.5,25.3,17,36.7
			c7.3,10.9,16.5,20.9,26.9,28.7c10.1,8,21.5,14.3,33.8,18.8c12.1,4.4,24.8,7,37.7,7.5c13.2,0.3,26.6-1,39.6-4.9
			c12.7-3.4,25.3-9.5,36.4-16.8c11.2-7.5,20.9-16.5,29.2-27.1c8-10.1,14.3-21.5,18.7-33.8c0.2-0.8,0.7-1.8,1-3.3
			c0,0-0.2-0.3,0.3-0.5c1.1-4.1,1.8-8,2.1-11.7c0.7-5.5,0.3-11.1-0.7-16.5c-0.5-5.1-2.3-10.3-4.4-15.3c-1.3-2.4-2.4-4.9-3.8-7.3
			c-1.6-2.3-3.1-4.2-4.7-6.5c-1.8-1.8-3.4-4.1-5.7-5.9c-1.8-1.8-3.8-3.6-5.9-5.4c-2.1-1.3-4.7-2.9-6.7-4.2c-2.4-1.1-4.9-2.4-7.3-3.6
			c-5.2-2-10.1-3.1-15.5-3.8c-5.2-1.1-10.9-0.8-16.3-0.2c-5.1,0.8-10.3,2.3-15.2,4.4c-2.6,0.8-5.1,2.1-7.5,3.4s-4.7,2.8-6.7,4.4
			c-2.1,2-4.1,3.4-6.4,5.4c-1.8,1.8-3.6,3.8-5.9,6.8c-2.1,3.3-4.4,7.7-6.4,12.4c-2.4,4.9-4.9,9.8-6.8,13.4c-2.1,3.6-3.4,5.7-5.1,7.8
			c-1.6,2.3-3.6,4.1-5.4,5.9s-4.1,3.8-6.4,5.4c-2,1.5-4.2,3.1-6.7,4.2c-2.3,1.6-4.7,2.8-7.3,3.8c-4.6,2-9.9,3.4-15.3,4.1
			c-5.4,1-10.8,0.8-16.3,0.2c-5.5-0.7-10.6-2.1-15.7-4.1c-2.3-0.8-4.7-2.1-6.8-3.4c-2.4-1.1-4.7-2.9-6.8-4.6
			c-2.1-1.3-4.2-3.1-6.2-4.9c-2-2.1-3.8-4.1-5.4-6.4c-1.8-1.8-3.4-4.1-4.7-6.5c-1.6-2.3-2.8-4.7-3.9-6.8c-1.8-5.1-3.4-10.3-4.6-15.7
			c-0.7-4.2-1.3-10.9-1.1-16.3C178.9,270.2,178.7,269.5,178.4,268.9L178.4,268.9z"/>
	</g>
</g>
</svg>
