<?xml version="1.0" encoding="utf-8"?>
<!-- Generator: Adobe Illustrator 22.1.0, SVG Export Plug-In . SVG Version: 6.00 Build 0)  -->
<svg version="1.1" id="Layer_1" xmlns="http://www.w3.org/2000/svg" xmlns:xlink="http://www.w3.org/1999/xlink" x="0px" y="0px"
	 viewBox="0 0 100 100" style="enable-background:new 0 0 100 100;" xml:space="preserve">
<style type="text/css">
	.st0{fill:#FFD600;}
</style>
<path class="st0" d="M94.3,46.6c0-3.4-1.8-5.8-4.2-8.1C77.8,26.3,65.5,14,53.3,1.7c-0.8-0.8-1.6-1.4-2.7-1.7c-0.5,0-1,0-1.4,0
	c-1.1,0.3-1.9,0.9-2.7,1.7C34.2,13.9,22.1,26.1,9.9,38.3c-2.1,2.1-4,4.3-4.1,7.4c0,1.4,0,2.9,0,4.3c0.3,2.9,1.6,5.3,4,7.1
	c3.8,2.9,10.4,3,13.9-0.2c3.6-3.3,6.8-6.8,10.4-10.1c1.6-1.5,3.1-3.1,4.8-4.7c0.4,0.7,0.2,1.3,0.2,1.8c0,15.2,0,30.4,0,45.6
	c0,6,4.1,10.1,10.1,10.3c0,0,0,0.1,0,0.1c0.5,0,1,0,1.4,0c0,0,0-0.1,0-0.1c0,0,0,0,0,0c2.4,0,4.7-0.5,6.6-2.3
	c2.6-2.4,3.8-5.4,3.8-8.9c0-14.9,0-29.9,0-44.8c0-0.5-0.2-1.1,0.2-1.6c0.6,0.3,0.9,0.7,1.2,1.1c4.2,4.2,8.4,8.4,12.6,12.6
	c5.1,5,13.1,4.4,17.6-1.3c1.2-1.6,1.2-3.5,1.7-5.2c0-0.2,0-0.4,0-0.6c-0.2-0.7-0.2-1.3,0-2C94.3,46.7,94.3,46.6,94.3,46.6z"/>
</svg>
