<?xml version="1.0" encoding="utf-8"?>
<!-- Generator: Adobe Illustrator 22.1.0, SVG Export Plug-In . SVG Version: 6.00 Build 0)  -->
<svg version="1.1" id="Layer_1" xmlns="http://www.w3.org/2000/svg" xmlns:xlink="http://www.w3.org/1999/xlink" x="0px" y="0px"
	 viewBox="0 0 100 100" style="enable-background:new 0 0 100 100;" xml:space="preserve">
<g>
	<path d="M50,84.9c0-23.7,0-47.4,0-71.1c0-1.7,0-3.4-1.8-4.2c-2-0.9-3.2,0.5-4.4,1.7c-6.5,6.7-13.1,13.4-19.6,20.1
		c-1.2,1.3-2.4,1.7-4.1,1.7c-5.1-0.1-10.2,0-15.3-0.1c-1.6,0-3.1,0.2-4.2,1.4c0,10.1,0,20.1,0,30.2c1,1.2,2.2,1.5,3.7,1.5
		c5.5-0.1,10.9,0,16.4-0.1c1.3,0,2.2,0.4,3.1,1.3c5.7,5.8,11.5,11.6,17.3,17.3c1.1,1.1,2.1,2.1,3.2,3.2c1,1,2.1,2,3.7,1.3
		c1.6-0.7,2.1-2,2-3.6C50,85.3,50,85.1,50,84.9z M38.9,66.6c-3.3-3.1-6.4-5.9-9.2-8.9c-1.8-2-3.8-2.8-6.5-2.6
		c-3.3,0.2-6.6,0-9.9,0.1c-1.3,0-1.9-0.2-1.9-1.7c0.1-2.5,0.1-5.1,0-7.7c0-1.3,0.4-1.7,1.7-1.7c3.8,0.1,7.7,0,11.5,0.1
		c1.6,0,2.8-0.4,3.9-1.6c3.3-3.5,6.7-6.8,10.4-10.4C38.9,43.8,38.9,55,38.9,66.6z"/>
	<path d="M96.1,32.3C90.6,18.2,80.3,8.8,66.2,3.4c-0.6,0-1.2,0-1.8,0c-1.7,0.8-2.9,1.8-3.3,3.8c-0.7,3.8,0.4,6,4.2,7.6
		c8.8,3.8,15.3,10.1,19.4,18.8c10.2,21.5-1.5,45.7-21.3,52.5c-0.5,0.2-0.9,0.5-1.3,0.8c-1.4,1.5-1.6,5.3-0.3,7.2
		c1.5,2.2,3.9,3,6.5,1.9c3.2-1.3,6.2-2.9,9.1-4.8C96.9,78.2,104.6,54.1,96.1,32.3z"/>
	<path d="M61,60.3c0,3.1,1.1,4.8,3.3,5.5c2.1,0.7,4.2-0.1,6-2.4c6-7.5,6-19.9-0.1-27.6c-1.9-2.4-3.7-3.1-6-2.4
		C62,34.2,61,35.8,61,38.9c0,3.5,0,7,0,10.6C61,53.1,60.9,56.7,61,60.3z"/>
</g>
</svg>
