<?xml version="1.0" encoding="utf-8"?>
<!-- Generator: Adobe Illustrator 22.1.0, SVG Export Plug-In . SVG Version: 6.00 Build 0)  -->
<svg version="1.1" id="Layer_1" xmlns="http://www.w3.org/2000/svg" xmlns:xlink="http://www.w3.org/1999/xlink" x="0px" y="0px"
	 viewBox="0 0 100 100" style="enable-background:new 0 0 100 100;" xml:space="preserve">
<path d="M80.2,2.9c-0.1-0.1-0.1-0.2-0.2-0.3c-0.4-1.2-1.6-2.2-2.9-2.2c-0.5,0-0.9,0.1-1.4,0.3c-0.7,0.3-1.3,0.7-2,1.4
	C66.2,10,58.5,17.5,51.3,25.5c-3,3.3-6.1,4.8-10.6,4.5c-5.4-0.4-10.9-0.1-16.4-0.1c-3.6,0-4.5,0.9-4.5,4.5c0,10.4,0,20.9,0,31.3
	c0,3.6,1,4.7,4.6,4.7c6.9,0,13.8,0,20.7,0c1.2,0,2.1,0.2,2.9,1.1c8.8,8.9,17.7,17.8,26.5,26.6c0.2,0.3,0.5,0.6,0.9,0.9c0,0,0,0,0,0
	c0,0,0,0,0,0c0.5,0.3,1.1,0.5,1.7,0.5c1.4,0,2.6-1,3-2.3c0.1-0.2,0.1-0.3,0.1-0.5C80.2,65.4,80.2,34.2,80.2,2.9z M67,70.9
	C62.9,67,59,63.6,55.5,59.8c-2.2-2.3-4.4-3.3-7.6-3.1c-4.2,0.3-8.5,0-12.8,0.1c-1.3,0-1.8-0.3-1.8-1.7c0.1-3.3,0.1-6.6,0-10
	c0-1.5,0.4-1.9,1.9-1.9c5,0.1,10,0,14.9,0.1c1.4,0,2.5-0.3,3.5-1.4c4.3-4.4,8.6-8.8,13.4-13.6C67,42.8,67,56.6,67,70.9z"/>
</svg>
