<?xml version="1.0" encoding="utf-8"?>
<!-- Generator: Adobe Illustrator 22.1.0, SVG Export Plug-In . SVG Version: 6.00 Build 0)  -->
<svg version="1.1" id="Layer_1" xmlns="http://www.w3.org/2000/svg" xmlns:xlink="http://www.w3.org/1999/xlink" x="0px" y="0px"
	 viewBox="0 0 100 100" style="enable-background:new 0 0 100 100;" xml:space="preserve">
<style type="text/css">
	.st0{fill:#00ECBC;}
</style>
<g>
	<g>
		<path class="st0" d="M99,20c1.1-1.6,0.4-3.6-1.6-4.4C83,9.3,66.7,6,50.1,6c-16.6,0-33,3.3-47.5,9.7c-2,0.9-2.7,2.9-1.5,4.4
			c0.8,1.1,2.1,1.7,3.6,1.7c0.7,0,1.4-0.2,2-0.4c13.3-5.8,28.3-8.9,43.5-8.9c15.1,0,30.1,3,43.3,8.8C95.4,22.1,97.9,21.6,99,20z"/>
		<path class="st0" d="M82.5,40.8c1.5,0,2.8-0.6,3.6-1.7c1.2-1.5,0.4-3.6-1.5-4.4c-10.5-4.6-22.4-7.1-34.5-7.1
			c-12,0-23.9,2.4-34.4,7c-2,0.9-2.7,2.9-1.5,4.4c1.2,1.5,3.7,2.1,5.6,1.2C29,36.1,39.5,34,50.1,34s21.2,2.2,30.4,6.3
			C81.1,40.6,81.9,40.8,82.5,40.8z"/>
		<path class="st0" d="M72.2,57.6c1.1-1.6,0.4-3.6-1.6-4.4c-12.7-5.5-29-5.4-41.6,0.3c-1.9,0.9-2.6,2.9-1.5,4.4
			c0.8,1.1,2.1,1.6,3.6,1.6c0.7,0,1.5-0.2,2-0.5c10.2-4.5,23.2-4.6,33.5-0.2C68.6,59.8,71.1,59.2,72.2,57.6z"/>
		<path class="st0" d="M35.2,82.3c0,6.4,6.7,11.7,14.9,11.7S65,88.8,65,82.3s-6.7-11.7-14.9-11.7S35.2,75.9,35.2,82.3z M56.7,82.3
			c0,2.9-3,5.1-6.6,5.1c-3.7,0-6.6-2.3-6.6-5.1c0-2.9,3-5.1,6.6-5.1C53.7,77.2,56.7,79.5,56.7,82.3z"/>
	</g>
</g>
</svg>
