<?xml version="1.0" encoding="utf-8"?>
<!-- Generator: Adobe Illustrator 22.1.0, SVG Export Plug-In . SVG Version: 6.00 Build 0)  -->
<svg version="1.1" id="Layer_1" xmlns="http://www.w3.org/2000/svg" xmlns:xlink="http://www.w3.org/1999/xlink" x="0px" y="0px"
	 viewBox="0 0 480 108" style="enable-background:new 0 0 480 108;" xml:space="preserve">
<style type="text/css">
	.st0{fill:#FF0000;}
	.st1{fill:#FFFFFF;}
</style>
<g>
	<g>
		<path class="st0" d="M150.9,17.6C149.1,11,144,5.9,137.5,4.2C125.7,1,78.3,1,78.3,1S31,1,19.1,4.2C12.6,5.9,7.5,11,5.8,17.6
			C2.6,29.4,2.6,54,2.6,54s0,24.6,3.2,36.4c1.7,6.5,6.9,11.6,13.4,13.4C31,107,78.3,107,78.3,107s47.4,0,59.2-3.2
			c6.5-1.7,11.6-6.9,13.4-13.4C154,78.6,154,54,154,54S154,29.4,150.9,17.6z"/>
		<polygon class="st1" points="63.2,76.7 102.5,54 63.2,31.3 		"/>
	</g>
	<g>
		<path class="st1" d="M222.4,97.4c-3-2-5.1-5.2-6.4-9.4c-1.3-4.3-1.9-9.9-1.9-17v-9.6c0-7.1,0.7-12.9,2.2-17.2
			c1.4-4.3,3.7-7.5,6.8-9.5c3.1-2,7.1-3,12.1-3c4.9,0,8.8,1,11.8,3c3,2,5.1,5.2,6.5,9.5c1.4,4.3,2.1,10,2.1,17.2V71
			c0,7.1-0.7,12.8-2,17.1c-1.3,4.3-3.5,7.4-6.5,9.4c-3,2-7.1,3-12.2,3C229.5,100.5,225.4,99.5,222.4,97.4z M239.2,87
			c0.8-2.2,1.2-5.7,1.2-10.6V55.7c0-4.8-0.4-8.2-1.2-10.5c-0.8-2.2-2.3-3.3-4.4-3.3c-2,0-3.4,1.1-4.3,3.3c-0.8,2.2-1.2,5.7-1.2,10.5
			v20.7c0,4.9,0.4,8.4,1.2,10.6c0.8,2.2,2.2,3.2,4.3,3.2C236.9,90.3,238.3,89.2,239.2,87z"/>
		<path class="st1" d="M452.4,71.2v3.4c0,4.3,0.1,7.5,0.4,9.6c0.3,2.1,0.8,3.7,1.6,4.7c0.8,1,2,1.5,3.7,1.5c2.2,0,3.8-0.9,4.6-2.6
			c0.8-1.7,1.3-4.6,1.4-8.7l12.9,0.8c0.1,0.6,0.1,1.4,0.1,2.4c0,6.1-1.7,10.7-5,13.8c-3.4,3-8.1,4.5-14.2,4.5
			c-7.4,0-12.5-2.3-15.5-6.9c-3-4.6-4.4-11.8-4.4-21.4V60.5c0-10,1.5-17.2,4.6-21.8c3.1-4.6,8.3-6.9,15.8-6.9
			c5.1,0,9.1,0.9,11.8,2.8c2.7,1.9,4.7,4.8,5.8,8.8c1.1,4,1.7,9.5,1.7,16.5v11.4H452.4z M454.3,43.2c-0.8,0.9-1.3,2.5-1.5,4.6
			c-0.3,2.1-0.4,5.4-0.4,9.7v4.8h10.9v-4.8c0-4.3-0.1-7.5-0.4-9.7c-0.3-2.2-0.8-3.8-1.6-4.7c-0.8-0.9-1.9-1.4-3.5-1.4
			C456.2,41.8,455,42.3,454.3,43.2z"/>
		<path class="st1" d="M186,69.9L169,8.5h14.8l6,27.8c1.5,6.9,2.6,12.7,3.4,17.5h0.4c0.5-3.5,1.6-9.3,3.4-17.4l6.2-27.9h14.8
			l-17.2,61.4v29.5H186V69.9z"/>
		<path class="st1" d="M303.7,33v66.4H292l-1.3-8.1h-0.3c-3.2,6.1-7.9,9.2-14.3,9.2c-4.4,0-7.7-1.4-9.7-4.3
			c-2.1-2.9-3.1-7.4-3.1-13.5V33h14.9v48.7c0,3,0.3,5.1,1,6.3c0.6,1.3,1.7,1.9,3.2,1.9c1.3,0,2.5-0.4,3.7-1.2c1.2-0.8,2.1-1.8,2.7-3
			V33H303.7z"/>
		<path class="st1" d="M380.4,33v66.4h-11.7l-1.3-8.1h-0.3c-3.2,6.1-7.9,9.2-14.3,9.2c-4.4,0-7.7-1.4-9.7-4.3
			c-2.1-2.9-3.1-7.4-3.1-13.5V33h14.9v48.7c0,3,0.3,5.1,1,6.3c0.6,1.3,1.7,1.9,3.2,1.9c1.3,0,2.5-0.4,3.7-1.2c1.2-0.8,2.1-1.8,2.7-3
			V33H380.4z"/>
		<path class="st1" d="M344.3,20.6h-14.8v78.8h-14.6V20.6H300v-12h44.3V20.6z"/>
		<path class="st1" d="M429.8,43.6c-0.9-4.2-2.4-7.2-4.4-9.1c-2-1.9-4.8-2.8-8.3-2.8c-2.7,0-5.3,0.8-7.7,2.3
			c-2.4,1.6-4.2,3.6-5.5,6.1h-0.1l0-35h-14.4v94.2h12.3l1.5-6.3h0.3c1.2,2.2,2.9,4,5.2,5.3c2.3,1.3,4.9,1.9,7.7,1.9
			c5.1,0,8.8-2.3,11.2-7c2.4-4.7,3.6-11.9,3.6-21.8V61.1C431.2,53.6,430.7,47.8,429.8,43.6z M416.1,70.7c0,4.8-0.2,8.6-0.6,11.4
			c-0.4,2.7-1.1,4.7-2,5.8c-0.9,1.2-2.2,1.7-3.8,1.7c-1.2,0-2.4-0.3-3.4-0.9c-1-0.6-1.9-1.4-2.5-2.6V48.5c0.5-1.8,1.4-3.3,2.6-4.4
			c1.2-1.2,2.6-1.7,4-1.7c1.5,0,2.7,0.6,3.5,1.8c0.8,1.2,1.4,3.2,1.7,6c0.3,2.8,0.5,6.8,0.5,12V70.7z"/>
	</g>
</g>
</svg>
