<?xml version="1.0" encoding="utf-8"?>
<!-- Generator: Adobe Illustrator 22.1.0, SVG Export Plug-In . SVG Version: 6.00 Build 0)  -->
<svg version="1.1" id="Layer_1" xmlns="http://www.w3.org/2000/svg" xmlns:xlink="http://www.w3.org/1999/xlink" x="0px" y="0px"
	 viewBox="0 0 250 250" style="enable-background:new 0 0 250 250;" xml:space="preserve">
<style type="text/css">
	.st0{fill:none;}
</style>
<g>
	<path class="st0" d="M48,115.2c-2.9,0-4.4,2.3-3.9,7.2v19.6c-0.5,4.9,1,7.3,3.9,7.3s4.4-2.4,3.9-7.3l0-19.6
		C52.4,117.5,50.9,115.2,48,115.2z"/>
	<path d="M246,95.9L246,95.9c0,0-1.4-10-5.8-14.4c-5.6-5.8-11.8-5.8-14.6-6.2c-20.4-1.5-51.1-1.5-51.1-1.5h-0.1c0,0-30.7,0-51.1,1.5
		c-2.9,0.3-9.1,0.4-14.6,6.2c-4.4,4.4-5.8,14.4-5.8,14.4s-1.5,11.8-1.5,23.5v11c0,11.8,1.5,23.5,1.5,23.5s1.4,10,5.8,14.4
		c5.6,5.8,12.9,5.6,16.1,6.2c11.7,1.1,49.6,1.5,49.6,1.5s30.7,0,51.1-1.5c2.9-0.3,9.1-0.4,14.6-6.2c4.4-4.4,5.8-14.4,5.8-14.4
		s1.5-11.8,1.5-23.5v-11C247.5,107.7,246,95.9,246,95.9z M133.6,156.6h-9.8v-56.2h-10.3v-9.3l30.8,0v9.3h-10.8V156.6z M168.8,156.6
		h-9.3v-5.4c-3.5,4-6.5,6.1-9.8,6.1c-2.9,0-4.8-1.3-5.8-3.8c-0.6-1.5-1-3.8-1-7.2v-38.6h9.3v36.2v3.4c0.2,1.4,0.8,1.9,2,1.9
		c1.8,0,3.4-1.5,5.4-4.3v-37.2h9.3V156.6z M202.5,141.9c0,4.5-0.4,7.7-1,9.8c-1.2,3.6-3.8,5.5-7.3,5.5c-3.1,0-6.4-1.9-9.3-5.6l0,4.9
		h-8.8V91.1h8.8l0,21.4c2.9-3.5,6.1-5.5,9.4-5.5h0c3.5,0,5.9,2,7.1,5.7c0.6,2,1.2,5.1,1.2,9.8V141.9z M222,149.2
		c2.2,0,3.4-1.2,4-3.6c0.1-0.5,0.1-2.6,0.1-6.1h9.3v1.4c0,2.9-0.2,4.9-0.3,5.8c-0.3,2-1,3.7-2.1,5.3c-2.4,3.5-6.1,5.3-10.7,5.3
		c-4.6,0-8.2-1.7-10.7-5c-1.9-2.4-3.1-6.1-3.1-11.3v-17.1c0-5.2,1.1-9.3,3-11.7c2.6-3.3,6.1-5.1,10.6-5.1c4.4,0,8,1.8,10.4,5.1
		c1.9,2.5,2.9,6.3,2.9,11.5l0,10h-17.6v8.8C217.6,146.9,218.9,149.2,222,149.2z"/>
	<path d="M189.5,115.1c-1.5,0-3.1,0.8-4.6,2.2l0,29.7c1.5,1.5,3.2,2.2,4.6,2.2c2.6,0,3.7-1.9,3.7-6.8v-21
		C193.2,116.5,192.1,115.1,189.5,115.1z"/>
	<path d="M226,121c0-4.5-1.2-5.9-4.1-5.9c-3,0-4.2,1.2-4.2,5.8v5.4l8.3,0V121z"/>
	<path d="M84.7,144.9c-2,2.8-3.6,4.3-5.4,4.3c-1.2,0-1.8-0.5-2-1.9v-3.4v-36.7H68v39.1c0,3.4,0.4,5.7,1,7.2c1,2.4,3,3.8,5.8,3.8
		c3.3,0,6.2-2,9.8-6.1v5.4h9.3v-49.4h-9.3V144.9z"/>
	<path d="M48,106.9c-4.4,0-7.8,1.4-10.3,4.8c-1.9,2.5-2.9,6.5-2.9,11.8l0,17.6c0,5.2,0.9,8.9,2.8,11.3c2.5,3.4,6.5,5.2,10.4,5.2
		c3.9,0,8-1.8,10.5-5.2c1.9-2.5,2.7-6.1,2.7-11.3v-17.6c0-5.3-1.1-9.2-2.9-11.7C55.8,108.2,51.9,106.9,48,106.9z M48,149.3
		c-2.9,0-4.4-2.4-3.9-7.3v-19.6c-0.5-4.9,1-7.2,3.9-7.2c2.9,0,4.4,2.3,3.9,7.2l0,19.6C52.4,146.8,50.9,149.3,48,149.3z"/>
	<path d="M26.5,90.6l-6.8,25.8l-6.9-25.8H2.5c2.1,6.1,12.2,39.1,12.2,39.1v26.9h9.8v-26.9l12.2-39.1H26.5z"/>
</g>
</svg>
