<?xml version="1.0" encoding="utf-8"?>
<!-- Generator: Adobe Illustrator 22.1.0, SVG Export Plug-In . SVG Version: 6.00 Build 0)  -->
<svg version="1.1" id="Layer_1" xmlns="http://www.w3.org/2000/svg" xmlns:xlink="http://www.w3.org/1999/xlink" x="0px" y="0px"
	 viewBox="0 0 100 100" style="enable-background:new 0 0 100 100;" xml:space="preserve">
<style type="text/css">
	.st0{fill:#FED24D;}
	.st1{fill:#A7A9AB;}
	.st2{fill:#FEE78B;}
	.st3{fill:#FEFEFE;}
	.st4{fill:#FEB624;}
	.st5{fill:#F27344;}
	.st6{fill:#8E3114;}
	.st7{fill:#FEB726;}
	.st8{fill:#C83609;}
	.st9{fill:#E17620;}
	.st10{fill:#FDCD4A;}
	.st11{fill:#CE4710;}
	.st12{fill:#FEC337;}
	.st13{fill:#FEC134;}
	.st14{fill:#D09135;}
	.st15{fill:#FEE077;}
	.st16{fill:#FCDD7C;}
	.st17{fill:#E8E7E7;}
	.st18{fill:#01D2A1;}
	.st19{fill:#01D2A0;}
	.st20{fill:#01B877;}
	.st21{fill:#FE2121;}
	.st22{fill:#FE2525;}
	.st23{fill:#FE2929;}
	.st24{fill:#FE2828;}
	.st25{fill:#FE5858;}
	.st26{fill:#FEC0C0;}
	.st27{fill:#FE4040;}
	.st28{fill:#FEEBEB;}
	.st29{fill:#FEA6A6;}
	.st30{fill:#FE7878;}
	.st31{fill:#FECACA;}
	.st32{fill:#FEADAD;}
	.st33{fill:#FE3C3C;}
	.st34{fill:#FE7E7E;}
	.st35{fill:#FEDEDE;}
	.st36{fill:#FE6D6D;}
	.st37{fill:#FE7171;}
	.st38{fill:#FE9E9E;}
	.st39{fill:#FE9B9B;}
	.st40{fill:#FE8686;}
	.st41{fill:#01C093;}
	.st42{fill:#00B774;}
	.st43{fill:#008E69;}
	.st44{fill:#FBFDFD;}
	.st45{fill:#00E7CA;}
	.st46{fill:#00D2B8;}
	.st47{fill:#005F3B;}
	.st48{fill:#EC1C24;}
	.st49{fill:#EC1D25;}
	.st50{fill:#FE3333;}
	.st51{fill:#FE4747;}
	.st52{fill:#FE8181;}
	.st53{fill:#FEA1A1;}
	.st54{fill:#FEB4B4;}
	.st55{fill:#FDF4F4;}
	.st56{fill:#F16066;}
</style>
<g>
	<path class="st0" d="M60.5,90.5c-4.4,1.9-9.1,2.9-13.9,3.2c-8.3,0.5-16.1-1.1-23.3-5C11.4,82.2,3.9,72.4,1.1,59.1
		c-2.8-13.4,0.1-25.6,8.5-36.3C16.4,14,25.5,8.6,36.4,6.8c13.8-2.2,26.2,1.3,36.7,10.6c7.3,6.5,11.8,14.6,13.7,24.2
		c0.3,1.4,0.6,2.8,0.6,4.2c-0.7,0.7-1.6,0.7-2.4,0.8c-2.9,0.4-5.9,0.6-8.9,0.8c-2.8,0.2-5.5-0.1-8.3-0.1c-3.2-0.1-6.5-0.4-9.7-0.9
		c-1-0.2-1.2,0.3-1.4,1c-0.3,1.7-0.5,3.4-0.6,5.2c-0.4,4.2-0.3,8.3,0,12.5c0.5,6.5,1.5,12.9,3.1,19.2c0,0.2,0.1,0.4,0,0.5
		c-0.1,0.2-0.3,0.3-0.5,0.4c-6,1.7-12.2,2.5-18.4,2.1c-9.2-0.6-17.6-3.6-24.7-9.5c-4.2-3.5-7.8-7.5-10.3-12.5
		c-0.1-0.4-0.4-0.6-0.4-1c0,0.4,0.3,0.6,0.4,1c2.6,5.5,5.8,10.6,10.2,14.8c5.2,4.9,11.2,8.1,18.2,9.7c4.9,1.1,9.8,1.3,14.8,1
		c3.3-0.2,6.5-1,9.6-2.2c0.6-0.2,1.1-0.6,1.8-0.5C60.5,88.7,60.8,89.5,60.5,90.5z"/>
	<path class="st1" d="M60.5,90.5c-0.1-0.8-0.3-1.7-0.7-2.5c-0.6-1-1-2-0.7-3.1c-1.2-5-2.1-10-2.8-15.1c-0.2-2-0.4-4-0.5-6.1
		c-0.2-3.5-0.2-6.9,0-10.4c0.2-2.3,0.4-4.6,0.8-6.8c0.1-0.6,0.3-0.8,0.9-0.7c4.3,0.7,8.6,1,12.9,1.1c5.7,0.2,11.3-0.2,17-1.2
		c1.1-0.3,2.2-0.5,3.3-0.8c1-0.4,1.2,0.1,1.3,0.9c0.1,1.1,0.1,2.3,0.2,3.4c0.8,9.6,2,19.1,4.1,28.5c0.8,3.3,1.6,6.7,3.7,9.6
		c-2.8,0.9-5.5,1.6-8.2,2.2c-3.6,0.9-7.3,1.6-11,2.2c-6.2,1-12.5,1.4-18.8,1.2c-0.7,0-0.9-0.3-1.1-0.9C60.9,91.6,60.9,91,60.5,90.5z
		"/>
	<path class="st2" d="M22.9,13.2c4.4-2.5,9.2-3.9,14.2-4.5s10-0.4,15,0.4c6.7,1.1,12.8,3.7,18.1,8c3.9,3.1,7,7,9.3,11.4
		c2.4,4.4,4.1,9.1,5,14c0.1,0.3,0.1,0.6,0,1c-0.8-2.4-1.6-4.6-2.7-6.7C77.5,28.2,71,21.8,62,17.9c-4.4-1.9-9.1-3-13.9-3.4
		c-5.2-0.5-10.4-0.3-15.5,0.7c-0.8,0.1-1.5,0.4-2.2,0.6c-0.1,0-0.2,0-0.2,0c-2-1.6-4.5-2-7-2.2C23,13.5,22.9,13.4,22.9,13.2z"/>
	<path class="st3" d="M36.3,39.5c0,2.7-0.5,5.3-1.8,7.7c-2.8,5.3-8.5,6.3-13,2.2c-3.2-2.9-4.8-6.7-5.5-10.9c-0.5-3.4-0.3-6.6,1-9.8
		c2.8-6.5,9.3-7.7,14.2-2.6C34.9,30,36.2,34.5,36.3,39.5z"/>
	<path class="st4" d="M59.1,84.9c0.2,1,0.5,2.1,0.7,3.1c-3.4,1.4-6.8,2.3-10.4,2.8c-2.2,0.3-4.5,0.1-6.8,0.1
		c-4.3,0-8.6-0.7-12.7-2.1c-4.9-1.6-9.2-4.1-13.1-7.4c-5.1-4.4-8.8-9.7-11.5-15.8c-0.1-0.2-0.1-0.5-0.2-0.7c0.1-0.1,0.1-0.1,0.2,0
		c4,7,9.5,12.6,16.6,16.6c4.9,2.8,10.1,4.5,15.7,5.1c6.8,0.7,13.5,0.4,20.1-1.6C58.2,84.9,58.6,84.6,59.1,84.9z"/>
	<path class="st5" d="M47.8,58.7c0.3-0.3,0.5-0.7,0.6-1c0.1-0.4,0.4-0.8,0-1.1c-0.3-0.2-0.8-0.1-1.2,0.1c-0.3,0.1-0.5,0.5-0.9,0.4
		c0.1-1.3,0.7-2.2,1.9-2.8c1.2-0.5,2.3,0,2.7,1.3c0.6,2.1-0.6,5.2-2.6,6.7c-2.2,1.6-4.7,2.3-7.3,2.7c-4.2,0.7-8.5,0.7-12.8,1
		c-4.1,0.2-8.1,0.9-11.8,2.5c-0.1,0-0.2,0-0.5,0c1.2-1.3,2.6-2.2,4.1-2.8c3.1-1.3,6.4-1.7,9.7-2.1c3.7-0.4,7.3-0.6,11-1.3
		c0.3-0.4,0.8-0.4,1.3-0.5c1.9-0.5,3.8-1.1,5.2-2.7C47.4,58.9,47.6,58.8,47.8,58.7z"/>
	<path class="st2" d="M3.2,41.4c0.5-3,1.6-5.8,2.8-8.6c1.7-4.2,4.1-8,7-11.4c1.9-2.2,4-4.3,6.4-5.9c0.2-0.2,0.5-0.2,0.8-0.3
		c0.2,1-0.8,1.5-0.9,2.4c2.4-2.4,5.3-2.7,8.4-1.7c0.3,0.1,0.6,0.2,0.7,0.5c-0.8,0.7-1.8,0.8-2.7,1.2C17.7,21,11.8,26.6,7.2,33.8
		c-1.5,2.4-2.8,5-3.8,7.6C3.3,41.5,3.2,41.5,3.2,41.4z"/>
	<path class="st6" d="M62.9,36.3c-8.2,1.1-14.7,5-19.2,12.1c-1.1-2.9,0.2-9.6,3.8-12c-0.2,1-1,1.9-0.7,3c5.3-3,10.7-4.7,16.8-3.5
		C63.7,36.5,63.1,36,62.9,36.3z"/>
	<path class="st4" d="M40.7,62.1c-2.9,0.3-5.8,0.6-8.7,0.8c-2.5,0.2-5,0.4-7.4,0.9c-3.1,0.7-6.1,1.5-8.5,3.7
		c-0.1,0.1-0.2,0.1-0.6,0.2c0.8-2.1,2.3-3.4,4-4.4c2.5-1.5,5.2-2,8-2.2c3.1-0.2,6.3,0,9.4-0.2c2.8-0.2,5.8-0.2,8.4-1.6
		c0.9-0.5,1.8-0.9,2.4-2c0.2,0.5-0.1,0.8-0.2,1.1c-0.8,1.5-2.3,2.2-3.8,2.8C42.8,61.7,41.8,62,40.7,62.1z"/>
	<path class="st7" d="M34.3,29.8c-1-2-2.3-3.8-4.1-5.1c-3.1-2.3-6.7-2.7-10-0.7c-2.3,1.4-3.4,3.8-4.1,6.4c-0.5,1.8-0.6,3.7-0.6,5.6
		c-0.1-0.2-0.3-0.5-0.3-0.7c-0.1-3.5-0.1-6.9,1.6-10c1.5-2.6,3.8-4,6.8-4.4c4.4-0.6,7.2,1.7,9.3,5.2c0.7,1.1,1.3,2.2,1.6,3.5
		C34.6,29.8,34.5,29.9,34.3,29.8z"/>
	<path class="st2" d="M27,70.8c-1.3,0-2.7,0-3.9-0.6c-0.4-0.2-0.8-0.4-0.8-1s0.4-0.8,0.8-1c0.7-0.3,1.5-0.5,2.2-0.4
		c1.7,0.2,3.3-0.2,4.9-0.2c1.2,0,2.4-0.3,3.6-0.3c0.7,0,1.3,0.2,1.5,0.9c0.1,0.6-0.5,0.9-1,1.2C32,70.4,29.5,70.7,27,70.8z"/>
	<path class="st8" d="M53.9,21.5c-4.2,3-8,6.3-9.9,11.3c-0.9-1.5-0.8-3.7,0.5-5.6c1.4-2.2,3.5-3.4,5.8-4.5
		C51.4,22.1,52.6,21.6,53.9,21.5z"/>
	<path class="st5" d="M35.9,73.9c-2.8,0.7-4.8,2.1-6.6,3.9c-0.8,0.8-3.1,0.6-3.7-0.4c-0.5-0.7-0.2-1.4,0.3-2
		c0.8-0.9,1.9-1.2,2.9-1.4C31.1,73.7,33.4,73.4,35.9,73.9z"/>
	<path class="st9" d="M28.3,16.3c-1.7-0.5-3.4-0.9-5.1-0.6c-1.6,0.3-2.9,1-4,2.3c-0.1,0.1-0.2,0.2-0.3,0.3c0,0-0.1,0-0.2,0
		c0.1-1.2,1-2.1,1.4-3.1c0.7-0.6,1.4-1.1,2.2-1.5c0.2-0.2,0.6-0.1,0.9-0.2c1.9,0,3.8,0.3,5.6,1.2c0.6,0.3,1.2,0.7,1.6,1.3h-0.1h-0.1
		c-0.4,0.5-1,0.5-1.5,0.7C28.6,16.4,28.4,16.4,28.3,16.3z"/>
	<path class="st10" d="M40.7,62.1c1.2-0.4,2.4-0.7,3.6-1.2c1.3-0.6,2.3-1.4,3.3-2.3c0.1,0.1,0.1,0.1,0.2,0.2c-1.5,2.1-3.7,2.7-6,3.3
		c-0.4,0.1-0.7,0.1-1.1,0.2C40.7,62.2,40.7,62.1,40.7,62.1z"/>
	<path class="st11" d="M28.7,16.5c0.4-0.5,1-0.5,1.5-0.7c0.2,0.9-0.1,1.2-0.8,0.9C29.2,16.7,28.9,16.6,28.7,16.5z"/>
	<path class="st12" d="M34.3,29.8c0.1-0.1,0.1-0.1,0.2-0.2c0.3,0.3,0.5,0.7,0.3,1.3C34.6,30.5,34.4,30.1,34.3,29.8z"/>
	<path class="st13" d="M5.4,65c-0.1,0-0.1,0-0.2,0c-0.3-0.2-0.4-0.5-0.5-0.9C5.2,64.2,5.2,64.7,5.4,65z"/>
	<path class="st14" d="M62.9,36.3c0.2-0.1,0.5-0.3,0.7-0.4c0.1,0,0.3,0,0.4,0.2c0,0.2-0.1,0.2-0.3,0.2
		C63.4,36.3,63.2,36.3,62.9,36.3z"/>
	<path class="st15" d="M3.2,41.4c0.1,0,0.1,0,0.2,0c0,0.3-0.1,0.5-0.3,0.7C2.8,41.8,2.9,41.6,3.2,41.4z"/>
	<path class="st16" d="M23.2,13.4c-0.2,0.3-0.6,0.2-0.9,0.2c0.1-0.3,0.4-0.3,0.7-0.5C23,13.2,23.1,13.3,23.2,13.4z"/>
	<path class="st3" d="M66.6,92.3c-1.3,0-2.5-0.1-3.8,0c-0.8,0-1.1-0.3-1.3-1c-1.4-4.9-2.6-9.9-3.5-14.9c-1.2-6.5-1.8-13-1.7-19.6
		c0.1-3.2,0.4-6.4,0.8-9.6c0.1-0.6,0.3-0.6,0.8-0.5c4,0.5,7.9,0.9,11.9,1c4.4,0.1,8.9,0.1,13.3-0.5c2.4-0.3,4.9-0.8,7.3-1.4
		c0.5-0.1,0.8-0.2,0.9,0.5c0.2,4.8,0.7,9.5,1.3,14.2c1,7.6,2,15.2,4.4,22.5c0.4,1.2,0.8,2.4,1.5,3.5c0.2,0.4,0.3,0.6-0.3,0.8
		c-4.7,1.3-9.4,2.4-14.2,3.3c-4.4,0.8-8.8,1.3-13.3,1.7C69.4,92.4,68,92.3,66.6,92.3C66.6,92.3,66.6,92.3,66.6,92.3z"/>
	<path class="st17" d="M33.4,43.6c1-0.7,1.5-1.9,2.6-3c-0.6,3.1-1.6,5.7-3.4,7.9c-1.7,2.2-4.3,3.2-6.9,2.3c-2.4-0.9-4.5-2.5-6.1-4.8
		c1.1,0.3,2.1,0.6,3.1,0.8c0.1-0.1,0.2-0.1,0.3,0c0.7,0.6,1.1,1.5,1.9,2c2,1.2,3.8,1.1,5.6-0.5c1.4-1.3,2-2.9,2.5-4.6
		C33.1,43.7,33.2,43.6,33.4,43.6z"/>
	<path class="st18" d="M33.4,43.6c-0.1,0.1-0.1,0.1-0.2,0.2c-0.4,0.6-0.7,1.4-1.6,1c-0.1-1.1-0.9-1.4-1.8-1.7
		c-0.1-0.9,0.2-1.7,0.4-2.6c0.5-0.5,1-0.3,1.6-0.2c1.2,0.2,1.2,0.1,1-1.1c-0.3-2-1.1-3.7-2.6-5.2c-1-1-2.2-1.5-3.6-1.6
		c2,0.6,2.6,2.9,1.3,4.4c-0.2,0-0.3-0.1-0.2-0.3c0.6-1.9,0.1-3.1-1.3-3.7c-0.6-0.2-1.2,0-1.9,0.1c1.2-1.6,4.2-1.9,6-0.2
		c2.2,2,2.9,4.5,3.1,7.3C33.7,41.4,33.5,42.5,33.4,43.6z"/>
	<path class="st19" d="M22.9,47c-0.1,0-0.1,0-0.2,0c-1.8-3.6-1.9-7.3-0.4-11.2c0.6,2.1,1,2.5,2.8,2.6c0,0.2-0.1,0.3-0.2,0.4
		c-1,0.4-1.8,0.1-2.7-0.7c-0.3,1.9-0.3,3.6,0,5.5c0.8-0.6,1.3-1.5,2.3-1.7c0.4,0.2,0.5,0.6,0.6,1c0.8,1.7,1.7,2,3.4,1.3
		c0.1-0.1,0.2,0,0.3,0.1c0.1,0.9,0.7,1.3,1.5,1.5c0.1,0.4-0.2,0.5-0.4,0.5c-0.9,0.3-1.8,0.8-2.8,0.9c-0.1,0-0.2-0.1-0.2-0.2
		c0-1-0.8-1.9-1.8-2c-0.4,0-0.5,0.2-0.7,0.5c-0.4,0.5-0.6,1.2-1.2,1.5C23.2,47.1,23.1,47.1,22.9,47z"/>
	<path class="st20" d="M24.9,38.7c0.1-0.1,0.1-0.2,0.2-0.3c1-0.2,1.8-0.8,2.5-1.7c0.1,0.1,0.1,0.1,0.2,0.2c0,0,0.1,0.1,0.1,0.1
		c-0.4,1.4-1.6,1.7-2.8,1.8C25,38.8,25,38.7,24.9,38.7z"/>
	<path class="st3" d="M80,57c0.7-0.1,1.2-0.2,1.9,0.3c0.5,0.5,1.3,0.5,2,0.7c-0.1,0.2-0.3,0.1-0.4,0.2c0.2,0,0.4,0.2,0.6,0.2
		c0.2,0.1,0.5,0.3,0.7,0.5c0.2,0.1,0.4,0.3,0.6,0.4c0.1,0,0.2,0.1,0.3,0.1c0.6,0.3,1,0.8,1.4,1.2c0.8,1.1,1.2,2.2,1,3.6
		c-0.1,0.8-0.3,1.7,0.1,2.6c0.3,0.8-0.2,1.5-0.4,2.2c-0.8,1.6-1.4,3.4-2.3,5c-0.2,0.2-0.3,0.4-0.4,0.6c-1.1,1.8-2.4,3.3-4.4,4
		c-1,0.3-1.6,1.3-2.6,1.6c-1.2,0.7-2.4,1.2-3.7,1.3c-0.7,0.1-1.3,0-2-0.3c-1.2-0.5-2.6-0.4-3.9-0.7s-2.3-0.8-3.1-1.9
		c-0.5-0.7-1-1.3-1.6-1.9c-0.7-0.9-1-1.9-0.7-3c0.2-0.7,0.3-1.3,0.1-2c-0.1-0.2-0.1-0.4,0.1-0.6c1.3-1.7,2.1-3.7,3.5-5.2
		c0.3-0.2,0.4-0.4,0.5-0.7c0.8-0.8,1.4-1.8,2.2-2.7c1.4-1.5,3.1-2.6,4.6-3.7c0.9-0.7,1.7-1.5,2.7-1.9C77,57,77.5,57,78,57
		c0.3,0.2,0.7,0,1.1,0.1C79.4,57.2,79.7,57.3,80,57z"/>
	<path class="st21" d="M76.5,57.4c-1.8,1.4-3.7,2.6-5.5,4c-1.2,0.9-2.3,2-3.1,3.4c-0.2,0.4-0.6,0.5-0.8,0.8
		c-0.2,0.2-0.2,0.5-0.5,0.7c-1,1.5-1.9,2.9-2.8,4.4c-0.9,1.6-0.8,3.3-0.8,5.1c0,1,1,1.4,1.4,2.2c1.3,2.3,3.5,2.7,5.8,2.9
		c0.8,0.1,1.5,0.2,2.2,0.6c1,0.5,2.2,0,3.3-0.3c0.7-0.2,1.3-0.6,1.9-0.8c0.3-0.1,0.6-0.2,0.8,0.1c0,0.1,0,0.2-0.1,0.3
		c-1.7,1.5-3.7,1.9-5.8,2c-0.3,0-0.5,0.1-0.8,0.1c-0.5-0.1-0.9-0.5-1.4,0c-0.8-0.9-2.1-1.1-3.2-1.2c-1.4-0.2-2.3-0.6-3.2-1.8
		c-0.7-1.1-1.7-2.1-2.5-3.3c-0.4-0.7-0.4-1.3-0.3-2.1c0.2-1.9,1.2-3.6,1.7-5.3c0.3-1,1.2-2.1,2-2.9c0.2-0.2,0.5-0.3,0.5-0.6
		c0.5-0.7,0.9-1.4,1.8-1.7c0.2-0.1,0.4-0.2,0.4-0.3c0.1-0.8,0.9-1,1.4-1.5c0.8-1,2-1.7,2.9-2.6c2.3-2.1,5.2-3.3,7.8-4.8
		c0.1,0.1,0.1,0.2,0.2,0.3c-0.9,0.7-1.9,1.3-2.8,2C77.1,57.3,76.7,57.2,76.5,57.4z"/>
	<path class="st22" d="M78.5,80.5c-0.2-0.3-0.5-0.2-0.7-0.3c1.9-1.5,4.5-2,6-4.2c0.3-0.5,0.6-0.9,0.9-1.4c0.8,0.2,0.3,0.7,0.2,1.1
		c-1.3,2.5-3.6,3.8-6,4.9C78.9,80.6,78.7,80.5,78.5,80.5z"/>
	<path class="st23" d="M87.4,69.4c0.7-1.9,0-3.9,0.4-5.9c0.2-1-0.5-2-1.1-2.8c-0.1,0-0.1-0.1-0.1-0.1c0-0.1,0-0.1,0-0.1
		c0.3-0.1,0.6,0.3,0.9,0.2c0.8,1.2,0.9,2.7,1.2,4.1c0.1,0.3,0.3,0.7-0.4,0.8c-0.1,0-0.8,0.7,0.1,0.9c0.1,0,0.1,0.1,0.2,0.1
		c0.4,0.5-0.1,3.4-0.6,3.8c-0.3-0.2-0.2-0.5-0.3-0.7c0-0.1-0.1-0.2-0.2-0.2C87.5,69.5,87.5,69.5,87.4,69.4z"/>
	<path class="st24" d="M87.4,69.4c0.1,0,0.1,0,0.1,0c0.4,0.2,0.2,0.6,0.3,0.9c0,0.2,0.1,0.5-0.1,0.6c-0.3,0-0.5,0.1-0.5,0.4
		c0.1,1.4-1.3,2.2-1.5,3.4c0,0-0.2,0-0.3,0.1c-0.5,0-0.6-0.1-0.4-0.6C85.9,72.6,86.4,70.9,87.4,69.4z"/>
	<path class="st25" d="M85.2,74.3c0,0.3,0.2,0.4,0.4,0.6c0.3,0.6-0.4,0.7-0.6,1c-0.1-0.4,0.2-0.8-0.2-1.1
		C84.7,74.4,84.9,74.3,85.2,74.3z"/>
	<path class="st26" d="M70.5,83c0.5-0.9,0.9-0.3,1.4,0C71.4,83.2,70.9,82.8,70.5,83z"/>
	<path class="st27" d="M84.1,58.7c-0.4-0.2-0.9-0.3-1.3-0.5c0-0.1,0-0.1,0-0.2c0.3,0,0.7,0,1,0c0.1,0.1,0.1,0.2,0.2,0.2
		C84.2,58.4,84.2,58.6,84.1,58.7z"/>
	<path class="st28" d="M69.5,56.4c0.4-0.1,0.7-0.2,1.3,0.1C70.2,56.8,69.9,56.9,69.5,56.4z"/>
	<path class="st29" d="M87.6,60.7c-0.4,0.4-0.6-0.2-0.9-0.2c-0.2-0.1-0.3-0.2-0.3-0.5c0-0.2,0.2-0.3,0.4-0.4
		C87,60,87.2,60.4,87.6,60.7z"/>
	<path class="st30" d="M76.5,57.4c0.2-0.3,0.5-0.4,0.8-0.5c0.3,0,0.6,0,1,0.1c0,0.2,0,0.3-0.2,0.2C77.5,57.3,77,57.3,76.5,57.4z"/>
	<path class="st31" d="M74.9,56.8c0,0.2-0.1,0.3-0.3,0.3c-0.2,0-0.4-0.1-0.4-0.3c0-0.1,0.2-0.2,0.3-0.2
		C74.6,56.5,74.8,56.5,74.9,56.8z"/>
	<path class="st32" d="M85.4,59.6c-0.1,0-0.2-0.1-0.2-0.1c-0.1-0.2-0.2-0.5,0.1-0.6c0.2,0.2,0.6,0.2,0.9,0.2c0.1,0.2,0.1,0.3,0,0.5
		C85.8,59.8,85.6,59.8,85.4,59.6z"/>
	<path class="st33" d="M84.1,58.7c0-0.1,0-0.3,0-0.4c0.3,0,0.5,0.1,0.7,0.4c0.1,0.2,0.1,0.4-0.1,0.6C84.5,59.1,84.2,59,84.1,58.7z"
		/>
	<path class="st34" d="M80,57c-0.1,0.6-0.5,0.4-0.8,0.4c-0.1-0.1-0.1-0.1-0.1-0.2c0-0.1,0.1-0.2,0.1-0.2C79.5,57,79.7,57,80,57z"/>
	<path class="st35" d="M87.8,71c0-0.2,0-0.4,0-0.6c-0.1-0.3-0.3-0.7,0.2-0.9c0,0.3,0,0.7,0.1,1C88.1,70.6,88.1,70.8,87.8,71z"/>
	<path class="st36" d="M65.6,65.6c0.2,0.5,0.2,0.5-0.5,0.6C65.2,66,65.3,65.7,65.6,65.6z"/>
	<path class="st3" d="M86,59.6c0-0.2,0-0.3,0-0.5c0.2,0.2,0.5,0.3,0.7,0.5c0,0.2-0.1,0.4-0.3,0.4C86.3,60,86,60,86,59.6z"/>
	<path class="st37" d="M84.7,59.3c0-0.2,0-0.4,0.1-0.6c0.1,0.1,0.3,0.2,0.4,0.2c0,0.2-0.1,0.4-0.1,0.6C85,59.5,84.9,59.4,84.7,59.3z
		"/>
	<path class="st24" d="M80.3,54.7c0.2-0.4,0.5-0.4,0.7-0.5c0,0.1,0.1,0.1,0.1,0.2C81,54.6,80.8,54.8,80.3,54.7z"/>
	<path class="st38" d="M79.1,57.2c0,0.1,0,0.1,0,0.2c-0.4-0.1-0.8,0.2-1.2-0.2c0.1-0.1,0.1-0.1,0.2-0.2c0.1,0,0.2,0,0.2,0
		C78.7,56.9,79,57,79.1,57.2z"/>
	<path class="st39" d="M78.5,80.5c0.1-0.1,0.3-0.4,0.4-0.4c0.3,0.2-0.1,0.4,0,0.6c-0.1,0.3-0.3,0-0.4,0
		C78.5,80.7,78.5,80.6,78.5,80.5z"/>
	<path class="st40" d="M82.3,53.8c-0.2,0.1-0.3,0.2-0.5,0.2c0,0-0.1-0.1-0.1-0.2c0.1-0.1,0.3-0.2,0.5-0.2
		C82.1,53.5,82.3,53.7,82.3,53.8z"/>
	<path class="st3" d="M79.1,57.2c-0.2,0-0.5,0.1-0.7-0.2c0.2-0.4,0.5-0.1,0.7,0C79.2,57,79.2,57.1,79.1,57.2z"/>
	<path class="st41" d="M27.2,47.2c1-0.6,2.2-0.9,3.3-1.3c0.2-0.5,0.5-0.8,1.1-1c0.7-0.2,1-0.8,1.6-1.1c-0.3,2.2-1.3,4-3.1,5.3
		c-2.5,1.8-5.6,0.8-7.2-2.2c0.1,0,0.3,0,0.5,0c0.2,0,0.3,0.1,0.4,0.2c0.5,0.7,1.2,1.3,2,1.7c0.7,0.3,1,0.1,1.1-0.7
		C26.9,47.8,26.8,47.5,27.2,47.2z"/>
	<path class="st42" d="M27.8,36.9c1-1.8,0.4-3.8-1.8-4.3c1.4-0.5,2.5-0.1,3.5,0.7c2.3,1.7,3.3,4.2,3.6,6.9c0.1,0.5,0,0.8-0.7,0.6
		c-0.7-0.2-1.4-0.2-2.2-0.3c-0.1,0-0.1-0.1-0.1-0.1c-0.2-0.2-0.3-0.6-0.4-0.9C29.5,38.4,28.9,37.5,27.8,36.9L27.8,36.9z"/>
	<path class="st43" d="M28.9,44.3c-0.8,1-2.3,1-3.1-0.1c-0.5-0.6-0.8-1.4-1-2.2c-0.1-0.1-0.1-0.2,0-0.3c1.4-1,2.9-1.4,4.6-1.5
		c0.3,0,0.7,0,0.9,0.3l0.1,0c0,0.9-0.2,1.8-0.5,2.7C29.8,43.8,29.3,44.1,28.9,44.3z"/>
	<path class="st44" d="M28.9,44.3c0.1-0.5,0.6-0.8,1-1.2c1.5-0.1,1.9,0.2,1.7,1.8c-0.3,0.4-0.6,0.8-1.1,1
		C29,45.9,28.9,45.8,28.9,44.3z"/>
	<path class="st20" d="M24.7,41.8c0,0.1,0,0.2,0,0.2c-0.4,0.3-0.9,0.7-1.3,1c-0.4,0.3-0.8,0.7-1.2,1c-0.6-2.2-0.4-4.4-0.1-6.8
		c0.7,1.4,1.7,1.6,2.8,1.4l0.1,0.1C25.1,39.8,25.2,40.9,24.7,41.8z"/>
	<path class="st45" d="M23.6,47.2c-0.1-0.1-0.1-0.1-0.2-0.2c0.2-0.4,0.5-0.7,0.7-1.1c0.5-0.9,0.9-1.5,2.2-0.7
		c0.8,0.5,1.5,0.7,0.9,1.8C26,47.8,24.8,47.7,23.6,47.2z"/>
	<path class="st46" d="M23.6,47.2c1.2,0,2.4,0.1,3.6-0.2c0,0.1,0,0.1,0,0.2c0,0,0,0.1,0,0.1c-0.1,0.7,0.3,1.7-0.5,2
		c-0.8,0.3-1.6-0.4-2.2-0.9C24.1,48.1,23.7,47.8,23.6,47.2z"/>
	<path class="st47" d="M24.7,41.8c0-1-0.2-2.1,0.3-3.1c1.1-0.4,2.3-0.6,2.8-1.8c1.2,0,1.6,0.9,2,1.7c0.2,0.6,0.5,1.2,0.4,1.8
		C28.2,40.4,26.5,41.1,24.7,41.8z"/>
	<path class="st48" d="M69.8,70.7c0-1.6,0-2.9,0-4.1c0-0.3,0.1-0.7,0.5-0.8c0.4-0.1,0.7,0.1,0.8,0.4c1.8,2.5,3.6,5,5.3,7.5
		c0.3,0.4,0.5,0.9,0.5,1.4c0,0.3,0.4,0.7,0.1,0.9c-0.4,0.3-0.8-0.1-1.1-0.3c-0.5-0.3-1-0.6-1.3-1c-0.7-1-1.3-1.2-2.3-0.5
		c-0.6,0.4-0.7,0.8-0.7,1.3c-0.1,0.7,0.2,1.7-0.7,1.7c-0.7,0-0.6-1-0.7-1.6C69.9,73.9,69.8,72.2,69.8,70.7z"/>
	<path class="st49" d="M78,68.2c-0.1-0.5-0.2-0.9-0.2-1.4c-0.1-0.3-0.1-0.7,0.3-0.9c0.4-0.2,0.8,0,1,0.3c0.6,1.4,1.4,1.7,2.8,1
		c0.6-0.2,1,0.2,0.6,0.9c-0.1,0.1-0.1,0.3-0.2,0.4c-1.5,0.6-1.6,1.7-1.2,3.1c0.1,0.3,0.2,0.7-0.2,0.9c-0.3,0.1-0.6-0.2-0.7-0.4
		c-0.7-1.5-1.7-2.1-3.3-1.3c-0.2,0.1-0.8,0.3-0.9-0.2c-0.1-0.4,0-0.8,0.4-1c0.5-0.2,0.9-0.5,1.4-0.7C77.8,68.6,78.1,68.5,78,68.2z"
		/>
	<path class="st50" d="M86,59.6c0.2,0.1,0.3,0.3,0.5,0.4c0.1,0.2,0.1,0.3,0.2,0.5c0,0.1,0,0.1,0,0.2c-0.5-0.4-0.9-0.7-1.4-1.1
		C85.6,59.6,85.8,59.6,86,59.6z"/>
	<path class="st51" d="M81.6,57.6c0.4-0.1,0.6,0.2,0.9,0.4c-0.3,0-0.7,0-0.9-0.2C81.5,57.8,81.5,57.8,81.6,57.6
		C81.6,57.7,81.6,57.6,81.6,57.6z"/>
	<path class="st52" d="M81.6,57.6c0,0.1,0,0.1,0,0.2c-0.2,0-0.5,0.1-0.7-0.1c0,0,0-0.1,0.1-0.2C81.2,57.3,81.4,57.5,81.6,57.6z"/>
	<path class="st53" d="M66.7,66.3c0-0.3,0.2-0.5,0.5-0.7C67.2,66,67.2,66.3,66.7,66.3z"/>
	<path class="st54" d="M88,69.4c-0.3,0.2-0.1,0.6-0.2,0.9c-0.3-0.2-0.2-0.6-0.2-0.9c0.1-0.1,0.2-0.2,0.4-0.3
		C88,69.2,88,69.3,88,69.4z"/>
	<path class="st55" d="M71.8,70.1c0.3,0.7,0.7,1.3,1,2c0.1,0.2,0.5,0.6,0.3,0.7c-0.3,0.2-0.8,0.5-1.2,0.3c-0.4-0.1-0.2-0.5-0.2-0.8
		c-0.1-0.5-0.1-1.1-0.1-1.6C71.6,70.5,71.3,70.2,71.8,70.1z"/>
	<path class="st56" d="M71.8,70.1c-0.3,0.1-0.1,0.4-0.2,0.6c-0.2-0.3-0.3-0.7-0.1-0.9C71.6,69.7,71.8,69.9,71.8,70.1z"/>
</g>
</svg>
