<?xml version="1.0" encoding="utf-8"?>
<!-- Generator: Adobe Illustrator 22.1.0, SVG Export Plug-In . SVG Version: 6.00 Build 0)  -->
<svg version="1.1" id="Layer_1" xmlns="http://www.w3.org/2000/svg" xmlns:xlink="http://www.w3.org/1999/xlink" x="0px" y="0px"
	 viewBox="0 0 100 100" style="enable-background:new 0 0 100 100;" xml:space="preserve">
<style type="text/css">
	.st0{fill:#FED24D;}
	.st1{fill:#27A9E0;}
	.st2{fill:#4A3247;}
	.st3{fill:#FEFEFE;}
	.st4{fill:#FEE78B;}
	.st5{fill:#FEB624;}
	.st6{fill:#C83609;}
	.st7{fill:#8E3114;}
	.st8{fill:#FED259;}
	.st9{fill:#FECC43;}
	.st10{fill:#FEBE30;}
	.st11{fill:#FEE27D;}
	.st12{fill:#FACA46;}
	.st13{fill:#FEE077;}
	.st14{fill:#FEC135;}
	.st15{fill:#E3852B;}
	.st16{fill:#D65F1B;}
	.st17{fill:#BD330A;}
	.st18{fill:#85BB9F;}
	.st19{fill:#87BB9E;}
	.st20{fill:#7E6048;}
	.st21{fill:#AB8849;}
	.st22{fill:#0F7FCC;}
	.st23{fill:#63CFEF;}
	.st24{fill:#D0D2D3;}
	.st25{fill:#F0F1F1;}
	.st26{fill:#FE8E0C;}
	.st27{fill:#E9431E;}
	.st28{fill:#DE260B;}
	.st29{fill:#E2320D;}
	.st30{fill:#A91502;}
	.st31{fill:#9DE5F6;}
	.st32{fill:#9EE5F6;}
	.st33{fill:#E43810;}
	.st34{fill:#E3330D;}
	.st35{fill:#E2300E;}
</style>
<g>
	<path class="st0" d="M6.3,41.6c1.2-6.3,3.7-12.2,7.5-17.4c6.7-9.2,15.5-15.4,26.7-17.8c15.2-3.2,28.7,0.4,40.3,10.9
		c7.3,6.6,11.7,14.9,13.5,24.5c-0.6,0.4-1.2,0-1.8-0.1c-3.3-0.6-6.6,0-9.8,0.9c-0.3,0.1-0.6,0.2-1,0.3c-0.2,0.1-0.5,0.1-0.8,0.2
		c0.4-0.1,0.9-0.2,1.4-0.2c2.2,0.4,3.9,1.6,5.5,3c1.2,1,2.4,2.1,3.4,3.3c0.9,1,1.9,1.8,3.2,2.2c0.2,0.1,0.5,0.2,0.6,0.5
		C94,76,74.3,94.7,50,94.7c-23.7,0-43.6-19-44.4-43.1c0-0.1,0-0.2,0.1-0.2c3-1.5,4.9-4.3,7.5-6.3c1.4-1.1,2.9-2.1,4.7-2.2
		c0.4,0,0.8,0,1.2,0.1c-0.2-0.1-0.5-0.1-0.8-0.1c-2.7-0.9-5.5-1.5-8.4-1.4c-0.8,0-1.6,0.2-2.5,0.3C7,41.8,6.7,42,6.3,41.6z"/>
	<path class="st1" d="M17.9,43.2c-2.3,0.4-4,1.7-5.6,3.1c-1,0.9-2,1.9-2.9,2.8c-1.1,1.1-2.3,2-3.7,2.5C2.3,52.6,0,51.1,0,48
		c0-1.9,1-3.3,2.4-4.5c1.2-0.9,2.6-1.3,3.9-1.9c4.2-0.9,8.3-0.4,12.2,1.2C18.6,43.4,18,42.9,17.9,43.2z"/>
	<path class="st1" d="M95,51.9c-1.8-0.6-3.3-1.7-4.6-3.1c-1.5-1.5-3-3-4.7-4.1c-1-0.7-2.1-1.2-3.4-1.5c-0.2-0.3-0.8,0.2-0.9-0.4
		c4.2-1.6,8.5-2.2,12.9-0.9c1.5,0.6,3.1,1.2,4.2,2.5c1.1,1.2,1.6,2.6,1.5,4.2C99.8,51.1,97.8,52.4,95,51.9z"/>
	<path class="st2" d="M27,80.4c-3.6-2.3-6.2-5.6-8.1-9.4c-2.9-5.7-3.7-11.7-1.7-17.9c0.1-0.4,0.3-0.8,0.5-1.3
		c0.2-0.1,0.3,0.1,0.4,0.2c0.1,0.6,0.4,1.1,0.7,1.6c1,0.5,1.6,1.3,1.8,2.4c0.5,3.3,1.7,6.2,3.9,8.8c2.1,2.5,4.7,4.2,7.7,5.5
		c4.6,2,9.5,2.7,14.4,3c4.7,0.4,9.3,0,13.9-0.7c4.6-0.8,8.9-2.2,12.8-5c3.3-2.3,5.8-5.3,7.2-9.1c0.5-1.5,0.7-3.2,1.3-4.7
		c0.2-0.7,0.7-1.3,0.7-2c0.1-0.1,0.1-0.4,0.4-0.2c2.8,7.4,1.7,14.4-2.2,21.2c-2.1,3.7-5,6.6-8.7,8.7c-0.5-0.1-0.9-0.4-1.3-0.6
		c-5.2-3.5-11-5.1-17.1-5.6c-4.3-0.4-8.6-0.2-12.9,0.5c-4.5,0.8-8.8,2.1-12.8,4.4C27.7,80.3,27.4,80.5,27,80.4z"/>
	<path class="st3" d="M81.8,53.9c-0.3,4-1.9,7.5-4.5,10.5c-3.5,4-8,6.3-12.9,7.6c-7.1,2-14.4,2.1-21.6,1.3
		c-4.3-0.5-8.4-1.5-12.3-3.6c-5.7-3-9.3-7.5-10.1-14c0.1-0.2,0.2-0.4,0.4-0.3c1.1,0.8,2.5,1.2,3.5,2.1c3,1.4,6.3,2,9.6,2.5
		c7.3,1.2,14.7,1.4,22.1,1.1c6.1-0.3,12.3-0.8,18.2-2.7C77,57.5,79.8,56.2,81.8,53.9z"/>
	<path class="st4" d="M9.7,37.8c0.8-3,2.2-5.9,3.7-8.6c2.3-4.2,5.2-8.1,8.7-11.4c3.7-3.5,8-6.2,12.8-7.9c3.7-1.3,7.5-2.1,11.4-2.3
		c7.3-0.5,14.4,0.5,21.3,3c4,1.5,7.7,3.8,11,6.7c6,5.3,9.8,11.9,12.2,19.5c0,0.1,0,0.2,0,0.4c0.1,0.2,0.2,0.5-0.2,0.5
		c-2.1-5.6-5.5-10.4-10-14.3c-5-4.4-11-7.1-17.5-8.6c-5.6-1.3-11.3-1.5-16.9-1.1c-9.4,0.7-18,3.8-25.4,10.1
		c-4.5,3.9-8,8.5-10.6,13.8C10,37.6,10,37.8,10,38C9.7,38,9.6,38,9.7,37.8z"/>
	<path class="st5" d="M62.3,85.4c-0.5,1.2-1.2,2.3-2.4,3c6.9-0.7,19.4-5.3,27.6-16.8c0.2-0.1,0.3,0,0.2,0.2c-2.1,3.7-4.8,7-7.8,10
		c-2.8,2.8-5.9,5.1-9.4,7c-3.6,2-7.4,3.3-11.4,4.1c-1.9,0.4-3.8,0.6-5.7,0.6c-5.8-0.1-11.6-0.4-17.1-2.4
		c-7.1-2.5-12.9-6.6-17.7-12.4c-2.9-3.5-5.3-7.3-7-11.5c-0.1-0.2-0.1-0.3,0-0.5c2.6,4.3,5.6,8.2,9.4,11.5c3.7,3.3,7.8,5.9,12.6,7.8
		c-0.4-0.8-0.7-1.3-1-1.9c0.1-0.1,0.1-0.1,0.1-0.2c0.5,0.4,0.9,0.8,1.4,1.1c2.7,1.8,5.6,2.7,8.7,3.1c2.1,0.3,4.3,0.6,6.4,0.5
		c3.5-0.2,6.9-0.9,10.1-2.4c0.3-0.1,0.7-0.1,0.7-0.6c0.2-0.7,0.9-0.4,1.4-0.6C61.8,85.1,62.1,85.1,62.3,85.4z"/>
	<path class="st6" d="M61.4,85.4c-0.4,0.4-1,0-1.4,0.4c-2.7,0.3-5.4,0.6-8.1,0.6c-4.5,0.1-9,0-13.5-1.1c-4.1-1-8.1-2.4-11.5-5
		c4.1-2.7,8.7-4.1,13.5-5c3.7-0.7,7.4-0.9,11.1-0.7c7.2,0.4,14.1,2,20.1,6.3c0.2,0.1,0.3,0.2,0.4,0.4c-3,1.8-6.1,3-9.5,3.7
		C62.2,85.1,61.8,85.2,61.4,85.4z"/>
	<path class="st5" d="M19,53.6c-0.1-0.4-0.2-0.8-0.4-1.2c4.4,3.6,9.8,4.3,15.1,5.1c4.2,0.6,8.4,0.8,12.7,1c2.1,0.1,4.3,0.2,6.4,0.1
		c7.7-0.3,15.3-0.9,22.6-3.6c2.3-0.8,4.4-1.8,6.6-3.4c-0.2,1.3-0.7,2.2-1.6,2.9c-2.7,2.2-6,3.1-9.3,3.8C66,59.5,60.9,60,55.7,60.3
		c-3,0.1-6,0.2-8.9,0.1c-6.6-0.2-13.2-0.5-19.5-2.2c-1-0.3-2-0.6-3-0.9c-1.3-0.3-2.3-1-3.4-1.7C20.2,55,19.5,54.4,19,53.6z"/>
	<path class="st7" d="M80.5,39.7C72,39.2,64.7,41.6,58.8,48c-0.6-2.9,2.1-9.5,5.8-10.8c-0.4,0.9-1.1,1.5-1.1,2.6
		c2.8-0.9,5.6-1.6,8.6-1.7C75,37.9,77.9,38.3,80.5,39.7z"/>
	<path class="st7" d="M35.4,37c3.4,1.3,6.1,6.7,6,11c-6-6.5-13.4-8.9-22-8.3c0.5-0.5,1.2-0.6,1.7-0.8c0.6-0.2,1.3-0.4,2-0.5
		c4.3-0.9,8.5-0.3,12.6,1c0.3,0.1,0.6,0.4,0.8,0.1c0.2-0.3-0.1-0.6-0.2-0.8C36,38.2,35.7,37.7,35.4,37z"/>
	<path class="st6" d="M75.9,25.1c-3.2-0.1-6.4-0.6-9.3-2c-3.1-1.5-4.9-4.4-4.4-7.5c3.7,5,8.9,7.6,14.6,9.3
		C76.7,25.5,76.3,25.1,75.9,25.1z"/>
	<path class="st6" d="M23.6,24.4c3.3-0.9,6.5-2.1,9.4-3.9c1.8-1.1,3.4-2.4,4.8-4.1c0.1-0.1,0.2-0.2,0.5-0.5c0.1,2.7-1,4.7-3,6.2
		c-2.2,1.6-4.7,2.3-7.4,2.5c-1.4,0.2-2.8,0.4-4.3,0.2C23.4,24.7,23.4,24.5,23.6,24.4z"/>
	<path class="st8" d="M20.8,55.5c1.1,0.6,2.3,1.2,3.4,1.8c0,0.1,0,0.1,0,0.2c-1.3-0.5-2.6-1-3.6-2C20.7,55.4,20.8,55.4,20.8,55.5z"
		/>
	<path class="st9" d="M90,68.3c0.2-1.2,0.9-2.2,1.3-3.3c0.1,0.1,0.2,0.1,0.3,0.1C91.1,66.1,90.5,67.2,90,68.3z"/>
	<path class="st10" d="M87.8,71.8c-0.1-0.1-0.2-0.2-0.2-0.2c0.5-0.8,1.1-1.6,1.6-2.4C88.8,70.1,88.5,71.1,87.8,71.8z"/>
	<path class="st11" d="M90.5,37.6c0.2-0.1,0.2-0.3,0.2-0.5c0.4,0.9,0.6,1.8,0.5,2.8C90.9,39.1,90.7,38.3,90.5,37.6z"/>
	<path class="st12" d="M20.8,55.5c-0.1,0-0.2,0-0.2,0c-0.1,0.1-0.2,0.2-0.4,0.3c-0.1-0.9-1.1-1.3-1.4-2.1c0.1,0,0.1,0,0.2,0
		C19.7,54.2,20.3,54.8,20.8,55.5z"/>
	<path class="st13" d="M9.7,37.8c0.1,0.1,0.2,0.2,0.2,0.2c-0.2,0.5-0.5,1.1-0.7,1.6C9.2,39,9.4,38.3,9.7,37.8z"/>
	<path class="st14" d="M11.5,66.8c0,0.2,0,0.3,0,0.5c-0.2-0.5-0.5-1-0.7-1.5C11.4,65.9,11.6,66.3,11.5,66.8z"/>
	<path class="st15" d="M75.9,25.1c0.3-0.1,0.6,0.1,0.9-0.2c0.3,0,0.6,0,0.8,0.4C77,25.3,76.5,25.4,75.9,25.1z"/>
	<path class="st16" d="M23.6,24.4c0,0.1,0,0.3,0,0.4c-0.4,0-0.8,0-1.2,0C22.7,24.4,23.1,24.4,23.6,24.4z"/>
	<path class="st17" d="M61.4,85.4c0.4-0.2,0.6-0.9,1.1-0.2c-0.1,0.1-0.2,0.1-0.2,0.2C62,85.4,61.7,85.4,61.4,85.4z"/>
	<path class="st18" d="M81.4,42.8c0.2,0.4,0.7,0.1,0.9,0.4c-0.5,0-1,0-1.6,0C80.9,42.9,81.2,42.9,81.4,42.8z"/>
	<path class="st19" d="M17.9,43.2c0.2-0.2,0.6-0.1,0.7-0.4c0.3,0,0.5,0.1,0.8,0.4C18.8,43.2,18.3,43.2,17.9,43.2z"/>
	<path class="st20" d="M18.1,52.1c-0.1-0.1-0.3-0.2-0.4-0.2c0-0.2,0.1-0.5,0.3-0.5C18.3,51.4,18.1,51.8,18.1,52.1z"/>
	<path class="st21" d="M82.9,51.7c-0.1,0.1-0.2,0.1-0.4,0.2c0-0.2-0.2-0.6,0.1-0.7C82.8,51.1,82.9,51.4,82.9,51.7z"/>
	<path class="st22" d="M0.9,49.6c3,1.6,4.9-0.2,6.4-2.1c0.9-1.2,1.7-2.7,3-3.6c2.2-1.5,4.4-2,7.3-1.1c-1.9,0.4-3.4,1-4.7,2
		c-1.1,0.8-2.1,1.8-2.9,2.8c-1.2,1.5-2.7,2.8-4.6,3.6C3.7,51.9,2,51.4,0.9,49.6z"/>
	<path class="st23" d="M11.1,41.9c-1.8,0.9-2.8,2.2-3.7,3.6c-0.8,1.2-1.8,2.3-3.2,3c-0.3,0.1-0.5,0.3-0.8,0.4
		C2.6,49,1.8,49,1.2,48.4c-0.6-0.6-0.4-1.4-0.1-2.1c0.7-1.8,2.2-2.8,3.9-3.5C6.9,42,8.8,41.8,11.1,41.9z"/>
	<path class="st22" d="M99.2,49.5c-0.7,1.6-2.4,2.3-4.2,1.8c-1.2-0.4-2.2-1.1-3.1-2c-1.8-1.7-3.2-3.8-5.4-5c-1.1-0.7-2.4-1-3.9-1.5
		c3-0.9,5.5-0.4,7.6,1.4c1.1,0.9,1.8,2,2.6,3.1c1,1.5,2.2,2.8,4.3,2.9C97.7,50.3,98.4,50.1,99.2,49.5z"/>
	<path class="st23" d="M89.3,42c3.3-0.1,6.5,0.3,8.8,3c0.4,0.5,0.7,0.9,1,1.5c0.3,0.7,0.2,1.5-0.2,2c-0.5,0.6-1.2,0.6-1.9,0.4
		c-1.7-0.5-3-1.5-4-3C92,44.3,91,42.8,89.3,42z"/>
	<path class="st24" d="M81.2,56.1c-0.9,3.1-2.3,5.6-4.6,7.7c0.4-1.1,1.2-2,1.1-3.3c-4.5,1.4-9,2.3-13.7,3c-2.3,0.4-4.6,0.6-6.9,0.8
		c-3.9,0.4-7.8,0.4-11.7,0.2c-7.4-0.3-14.6-1.3-21.5-4.1c-0.1-0.1-0.2-0.1-0.4-0.1c0,1.2,0.4,2.3,0.5,3.4c-1.2-2.1-2.4-4.1-2.9-6.7
		c2.4,1.4,4.9,2.2,7.5,2.8c3,0.7,6.1,1.1,9.2,1.4c5.8,0.6,11.7,0.8,17.5,0.6c7-0.2,14-1,20.7-3.3C77.8,57.9,79.4,57,81.2,56.1z"/>
	<path class="st25" d="M75.6,64.8c0.1-0.4,0.2-0.6,0.6-0.7C76.2,64.6,75.9,64.7,75.6,64.8z"/>
	<path class="st26" d="M42.2,90.2c-2.1-0.1-3.9-0.9-5.6-1.9c-0.8-0.4-1.5-1-2.2-1.6c8,2.9,16.2,3.1,24.8,2.1c-0.8,0.6-1.4,1-2.2,0.9
		c-0.7,0.4-1.4,0.6-2.2,0.8c-0.5,0.1-0.9,0.2-1.4,0.3C52.9,90.9,52.5,91,52,91c-1.6,0.1-3.3,0.1-4.9,0c-1.3-0.1-2.6-0.4-3.9-0.7
		C42.9,90.1,42.6,89.9,42.2,90.2z"/>
	<path class="st27" d="M56.4,90.2c-3.7,3-9.1,3.3-12.8,0.9c-0.2-0.1-0.3-0.2-0.4-0.4c1-0.6,2,0.1,3,0.1c1.9,0.2,3.9,0.3,5.8,0
		c0.5-0.1,1,0,1.5-0.2c0.5-0.1,0.9-0.1,1.4-0.2C55.4,90.4,55.9,89.8,56.4,90.2z"/>
	<path class="st28" d="M46.2,90.9c-1,0.1-2-0.4-3-0.2c-0.4-0.2-0.7-0.3-1.1-0.5c-0.1-1,0.6-0.4,0.8-0.3c1.3,0.4,2.6,0.6,3.9,0.8
		C46.8,91.2,46.5,90.9,46.2,90.9z"/>
	<path class="st29" d="M56.4,90.2c-0.5,0.1-1.1,0.2-1.6,0.2c-0.2,0.1-0.2,0-0.2-0.2c0.8-0.1,1.5-0.6,2.3-0.5
		C56.8,90,56.7,90.1,56.4,90.2z"/>
	<path class="st30" d="M70.4,80.9c-2.1,1.5-4.2,2.2-6.4,2.9c-5.6,1.6-11.4,1.9-17.2,1.5c-5-0.3-9.9-1-14.6-2.9
		c-1-0.4-1.9-0.9-2.9-1.4c-0.5-0.2-0.9-0.5-0.1-1c1.5-1,3.2-1.5,4.9-2.1c0.2-0.1,0.4-0.1,0.6,0.1c1.5,2,3.8,2.3,5.9,2.7
		c4.4,1,8.8,0.8,13.3,0.7c2-0.1,4-0.4,5.9-1.3c0.5-0.2,1-0.5,1.4-0.9c0.5-0.5,0.9-1,0.1-2C64.6,78.3,67.4,79.5,70.4,80.9z"/>
	<path class="st31" d="M3.9,48c-0.9,0.5-1.6,0.6-2.2,0.1c-0.6-0.5-0.4-1.2-0.2-1.9c0.1-0.2,0.1-0.4,0.3-0.5C2.5,45.2,3,44,4,44.8
		c0.7,0.6-0.2,1.4-0.6,2C2.8,47.4,3.1,47.8,3.9,48z"/>
	<path class="st32" d="M97.4,48.5c-0.2-0.2-1.6,0.3-0.5-0.9c0.4-0.4-0.1-0.7-0.4-1.1c-0.4-0.5-1.1-1.1-0.4-1.7
		c0.7-0.6,1.3,0.1,1.8,0.6c0.4,0.4,0.7,0.9,0.8,1.5C98.9,47.7,98.4,48.4,97.4,48.5z"/>
	<path class="st33" d="M46.2,90.9c0.2,0,0.5,0.1,0.7-0.2c1.8,0,3.5,0,5.2,0c0.1,0.1,0.1,0.1,0.1,0.1c0,0.1-0.1,0.1-0.1,0.1
		C50.2,91.2,48.2,91.2,46.2,90.9z"/>
	<path class="st34" d="M54.6,90.2c0.1,0.1,0.1,0.1,0.2,0.2c-0.4,0.4-0.9,0.2-1.4,0.2c-0.2,0.1-0.2,0-0.2-0.2
		C53.7,90.4,54.2,90.3,54.6,90.2z"/>
	<path class="st35" d="M53.3,90.4c0.1,0.1,0.1,0.1,0.2,0.2c-0.4,0.4-0.9,0.2-1.4,0.2c0-0.1,0-0.1,0-0.2
		C52.5,90.6,52.9,90.5,53.3,90.4z"/>
</g>
</svg>
