<?xml version="1.0" encoding="utf-8"?>
<!-- Generator: Adobe Illustrator 22.1.0, SVG Export Plug-In . SVG Version: 6.00 Build 0)  -->
<svg version="1.1" id="Layer_1" xmlns="http://www.w3.org/2000/svg" xmlns:xlink="http://www.w3.org/1999/xlink" x="0px" y="0px"
	 viewBox="0 0 100 100" style="enable-background:new 0 0 100 100;" xml:space="preserve">
<style type="text/css">
	.st0{fill:#FED24D;}
	.st1{fill:#FEE78B;}
	.st2{fill:#4A3247;}
	.st3{fill:#FEFEFE;}
	.st4{fill:#FEB624;}
	.st5{fill:#C83609;}
	.st6{fill:#FEB725;}
	.st7{fill:#FEB726;}
	.st8{fill:#F8AB83;}
	.st9{fill:#E9431E;}
	.st10{fill:#F27344;}
	.st11{fill:#F27443;}
	.st12{fill:#FDB525;}
	.st13{fill:#FEB524;}
	.st14{fill:#FEE380;}
	.st15{fill:#FEBB2B;}
	.st16{fill:#FEE077;}
	.st17{fill:#FEC032;}
	.st18{fill:#FEC83F;}
	.st19{fill:#FEBE2F;}
	.st20{fill:#FEC236;}
	.st21{fill:#F7A047;}
	.st22{fill:#FEDD6E;}
	.st23{fill:#FEBC2C;}
	.st24{fill:#FEBE30;}
	.st25{fill:#F7A148;}
	.st26{fill:#FAC286;}
	.st27{fill:#F9C286;}
	.st28{fill:#E8E7E7;}
	.st29{fill:#01CB99;}
	.st30{fill:#002E1E;}
	.st31{fill:#01CB98;}
	.st32{fill:#0ECC9B;}
	.st33{fill:#72E2C6;}
	.st34{fill:#DB1D0A;}
	.st35{fill:#E9461E;}
	.st36{fill:#FE8F0D;}
	.st37{fill:#A91502;}
	.st38{fill:#01B98B;}
	.st39{fill:#00AD6B;}
	.st40{fill:#005942;}
	.st41{fill:#FBFDFC;}
	.st42{fill:#00AC6B;}
	.st43{fill:#00E3C5;}
	.st44{fill:#02CB99;}
	.st45{fill:#00CFB3;}
</style>
<g>
	<path class="st0" d="M50.1,0c27.4,0,50.2,22.4,49.9,50.7C99.7,77.7,77.6,99.9,50,100C22.3,100-0.5,77.1,0,49.1
		C0.5,22.5,22.2,0,50.1,0z"/>
	<path class="st1" d="M38.9,10.1c-8.4,1.7-15.9,5.1-22.3,10.8c-4.5,3.9-8,8.5-10.7,13.7c-0.1,0.2-0.3,0.4-0.4,0.6
		c-0.5,0-0.4-0.2-0.3-0.5c1.7-5.1,4.3-9.7,7.4-14c4.3-5.9,9.7-10.7,16.3-13.9c4.6-2.3,9.6-3.6,14.7-4.1c7.7-0.7,15.2-0.2,22.6,2.1
		c7.9,2.5,14.6,6.8,19.9,13.2c4.4,5.3,7.4,11.4,9.3,18c0.1,0.2,0.1,0.4,0.1,0.6c0.1,0.3,0.2,0.5-0.2,0.5c-1.6-5.1-4.3-9.5-7.8-13.5
		c-4.9-5.7-11-9.5-18-11.9c-2.3-0.8-4.7-1.5-7.2-1.8c0.1-0.8,0.8-0.9,1.4-1.1c3.6-1.3,7-0.8,10.1,1.3c0.2,0.3,0.6,0.4,0.8,0.7
		c-0.1-0.3-0.4-0.3-0.6-0.5c-1.6-1.1-3-2.6-4.9-3.3c-3.1-1.2-5.2-0.5-7,2.1c-0.2,0.2-0.3,0.5-0.6,0.6C57,9.3,52.6,9,48.2,9.1
		c-2.8,0.1-5.5,0.5-8.2,0.8c-0.6-0.1-0.8-0.6-1.1-1c-1.6-2.2-4-2.9-6.6-1.8c-1.4,0.6-2.7,1.4-3.8,2.4c-0.4,0.4-0.8,0.7-1.3,1
		c-0.3,0.2-0.6,0.4-0.9,0.7c0.3-0.3,0.7-0.6,1.1-0.8c3.2-2.1,6.5-2.6,10.1-1.3C38.1,9.2,38.8,9.3,38.9,10.1z"/>
	<path class="st2" d="M41.6,81.8c-2.6-7.9-2.4-15.6,2.7-22.5c3.4-4.7,8.8-4.7,12.7-0.5c2.7,3,3.9,6.7,4.4,10.5
		c0.4,2.9,0.4,5.9-0.3,8.8c-0.7,0.3-1.3-0.2-1.9-0.4c-2.7-1.1-5.4-1.8-8.4-1.4c-3.3,0.4-5.9,2.2-8,4.6
		C42.5,81.3,42.3,81.8,41.6,81.8z"/>
	<path class="st3" d="M81.2,31.6c-0.3,5.6-1.9,11-6.3,15.3c-5.4,5.2-12.7,4-15.8-3.8c-2.9-7.2-1-17.7,5.2-23.3
		c3.2-2.8,7.2-3.7,10.4-2.1c2.7,1.4,4.3,3.7,5.3,6.5C80.8,26.5,81.2,28.9,81.2,31.6z"/>
	<path class="st3" d="M32.5,50c-3,0-5.4-1.4-7.4-3.5c-6-6-7.8-16.9-3.9-24.2c1.8-3.4,4.5-5.5,8.5-5.3c2.2,0.1,4.1,1,5.8,2.4
		c7,5.7,9.3,18,4.7,25.8C38.5,48.1,36.1,50,32.5,50z"/>
	<path class="st4" d="M59.9,92.9c0.8,0.6,1.6,0,2.4-0.1c6.9-1.4,13.2-4.1,18.9-8.3c3.9-2.9,7.2-6.3,10.1-10.1c0.2-0.1,0.4,0,0.3,0.3
		c-2.9,5-6.6,9.4-11,13.1c-3.1,2.7-6.5,4.9-10.2,6.7c-4.1,2-8.4,3.3-13,3.8c-8.9,0.9-17.5,0-25.8-3.3c-4.8-1.9-9-4.7-12.8-8.2
		C14,82.2,10.2,76.9,7.4,71c-0.3-0.6-0.5-1.2-0.8-1.7c-0.1-0.3,0-0.3,0.2-0.2c2.6,4.5,5.9,8.6,9.7,12.1c5.5,5.1,11.8,8.7,18.9,10.8
		c1,0.3,2.1,0.6,3.1,1c0,0.1,0,0.1,0,0.2c1,1.8,2.9,2.5,4.7,3.2c0.6,0.2,1.3,0.4,2,0.5c0.4,0.1,0.7,0.2,1.1,0.3
		c3.5,1.3,6.9,1.3,10.2-0.9c1.1-0.7,1.9-1.7,2.6-2.8C59.4,93.1,59.5,92.7,59.9,92.9z"/>
	<path class="st5" d="M41.6,81.8c1.1-1.3,2.2-2.6,3.7-3.6c3-2.1,6.2-2.7,9.7-2c2.1,0.4,4.1,1.2,6.1,2c-0.7,3.6-2,6.9-4.6,9.5
		c-3.4,3.5-7.9,3.4-11.3,0C43.5,86,42.3,84,41.6,81.8z"/>
	<path class="st4" d="M40.6,61.1c0.8-3.5,2.5-6.4,5.5-8.4c3.4-2.2,9.1-1.6,11.8,2.1c1.4,2,2.5,4,2.9,6.3c-1.2-1.7-2.5-3.2-4.2-4.3
		c-5.3-3.4-10-2.4-14.2,2.4c-0.6,0.7-1.1,1.6-1.6,2.4C40.4,61.7,40.5,61.4,40.6,61.1z"/>
	<path class="st6" d="M81.5,30.4c-0.1-3-0.6-5.9-2-8.6c-3.1-5.9-10.3-6.4-14.7-2.9c-2.3,1.8-3.8,4.1-5.2,6.5
		c0.6-2.1,1.5-4.1,2.7-5.9c2-3,4.7-5.1,8.4-5c5.8,0,9.6,3.2,10.8,9.1c0.5,2.2,0.9,4.6,0.3,6.9C81.7,30.6,81.6,30.5,81.5,30.4z"/>
	<path class="st7" d="M18.6,31c-0.4-3.2-0.2-6.4,0.9-9.4c1.3-3.8,4-6,7.9-6.8c4.8-1,8.7,1.5,11.2,5.6c0.7,1.2,1.3,2.5,1.7,3.8
		c0.1,0.3,0,0.3-0.3,0.3c-1.3-2.2-2.7-4.2-4.9-5.7c-5.1-3.5-12.6-2.4-15.2,4.8c-0.9,2.4-1.3,5-1.3,7.5C18.8,31.1,18.7,31.1,18.6,31z
		"/>
	<path class="st8" d="M27,10.4c1.4-1.3,2.8-2.4,4.4-3.3c2.7-1.4,6.2-1.2,7.9,1.8c0.2,0.3,0.4,0.6,0.6,1c-0.1,0.9-0.7,0.1-1,0.2
		c-3.2-1.9-6.4-1.8-9.8-0.4c-0.7,0.3-1.3,0.6-1.9,1C27,10.8,26.9,10.6,27,10.4z"/>
	<path class="st8" d="M73.9,10.7c-1.6-0.8-3.3-1.6-5.2-1.9c-2.3-0.3-4.5,0.2-6.5,1.3c-0.3,0-0.6,0.1-0.8-0.2
		c1.2-3.1,4.2-4.4,7.3-3.2c2.1,0.8,3.8,2.2,5.4,3.8C74.2,10.6,74.2,10.7,73.9,10.7z"/>
	<path class="st9" d="M46,93.8c0.2,0,0.5,0.1,0.7,0.1c2.9,0.8,5.8,1.2,8.7,0c0.3-0.1,0.6-0.2,1-0.3c0.8-0.2,1.6-0.8,2.5-0.3
		C59,94,58.4,94,58,94.2c-4.2,2-8.6,2.4-13.1,1.6c-0.5-0.1-1-0.3-1.5-0.3c-0.5,0-0.8-0.4-1.1-0.8c-0.3-0.4-0.9-0.7-0.6-1.4
		c1.1-0.6,2.2-0.1,3.3,0.1C45.3,93.5,45.6,93.7,46,93.8z"/>
	<path class="st10" d="M46,93.8c-1-0.1-2-0.3-3.1-0.4c-0.4-0.1-0.9-0.2-1.3,0.2c-0.4,0.1-0.4-0.2-0.5-0.5c-1-2.1-2-4.2-2.3-6.6
		c-0.2-0.3-0.2-0.5,0.2-0.5C40.3,89.6,42.8,92,46,93.8z"/>
	<path class="st11" d="M58.9,93.4c-0.9-0.1-1.7,0.4-2.6,0.2c2-1.6,3.7-3.5,4.8-5.8c0.5,0,0.4,0.2,0.3,0.5c-0.2,1.6-0.9,3.1-1.6,4.6
		c-0.2,0.2-0.3,0.3-0.5,0.5C59.3,93.5,59.1,93.5,58.9,93.4z"/>
	<path class="st12" d="M55.4,93.9c-1.9,1.4-4.1,1.4-6.3,0.9c-0.8-0.2-1.7-0.3-2.5-0.9C49.6,93.9,52.5,93.9,55.4,93.9z"/>
	<path class="st13" d="M41.2,93.1c0.2,0.2,0.3,0.3,0.5,0.5c0.3,0.3,0.5,0.7,0.8,1c0,0.2,0,0.3-0.2,0.4c-1.1,0.1-3.1-1.1-3.6-2.1l0,0
		C39.5,92.9,40.3,93,41.2,93.1z"/>
	<path class="st14" d="M5.1,34.7c0,0.2,0.1,0.4,0.3,0.5c-0.3,0.7-0.5,1.3-0.8,2c-0.2,0.1-0.4,0-0.2-0.2C4.5,36.2,4.7,35.4,5.1,34.7z
		"/>
	<path class="st15" d="M91.7,74.6c-0.1-0.1-0.2-0.2-0.3-0.3c0.4-0.6,0.9-1.3,1.3-1.9C92.6,73.3,92.2,74,91.7,74.6z"/>
	<path class="st16" d="M95.2,37.3c0.2-0.1,0.2-0.3,0.2-0.5c0.4,0.7,0.4,1.5,0.6,2.6C95.4,38.6,95.5,37.8,95.2,37.3z"/>
	<path class="st17" d="M6.9,69c-0.1,0.1-0.2,0.2-0.2,0.2c-0.3-0.6-0.5-1.2-0.8-1.7c0.1,0,0.2-0.1,0.3-0.1C6.4,67.9,6.6,68.5,6.9,69z
		"/>
	<path class="st18" d="M93.6,71.4c0.1-1,0.5-1.4,0.8-1.9C94.5,70.1,94.2,70.6,93.6,71.4z"/>
	<path class="st19" d="M81.5,30.4c0.1,0,0.2,0,0.2,0c0,0.7,0,1.5,0,2.2c-0.1,0-0.2,0-0.2,0C81.5,31.9,81.5,31.2,81.5,30.4z"/>
	<path class="st20" d="M40.6,61.1c0,0.2,0.1,0.4,0.2,0.5c-0.2,0.4-0.4,0.9-0.7,1.5C40.2,62.3,40.3,61.7,40.6,61.1z"/>
	<path class="st21" d="M39.1,86c-0.2,0.1-0.2,0.3-0.2,0.5c-0.5-0.6-0.1-1.2-0.1-1.8C38.9,85.1,39,85.6,39.1,86z"/>
	<path class="st22" d="M4.4,37c0.1,0.1,0.2,0.2,0.2,0.2C4.4,37.6,4.2,38,4,38.6C3.9,37.8,4.1,37.4,4.4,37z"/>
	<path class="st23" d="M40.1,24.4c0.1-0.1,0.2-0.2,0.3-0.3c0.4,0.3,0.3,0.8,0.3,1.3C40.5,25.1,40.3,24.7,40.1,24.4z"/>
	<path class="st24" d="M18.6,31c0.1,0,0.2,0,0.2,0c0,0.5,0,1,0,1.5c-0.1,0-0.2,0-0.2,0C18.6,31.9,18.6,31.4,18.6,31z"/>
	<path class="st25" d="M61.5,88.3c0-0.2-0.1-0.4-0.3-0.5c0.1-0.2,0.2-0.4,0.4-0.7C61.8,87.6,61.8,88,61.5,88.3z"/>
	<path class="st26" d="M27,10.4c0.1,0.1,0.2,0.2,0.3,0.3c-0.4,0.3-0.8,0.7-1.2,1C26.1,11.1,26.5,10.7,27,10.4z"/>
	<path class="st27" d="M73.9,10.7c0.1-0.1,0.2-0.2,0.3-0.3c0.4,0.4,0.8,0.7,1.2,1c-0.1,0.1-0.1,0.2-0.2,0.2
		C74.7,11.3,74.3,11,73.9,10.7z"/>
	<path class="st28" d="M73.4,44.1c1.1,0.1,2-0.4,3-0.7c0.3,0.2,0.2,0.4,0.1,0.5c-2,2.4-4.3,4.3-7.5,5.1c-2.6,0.6-4.8-0.4-6.5-2.2
		c-2.2-2.3-3.2-5.3-4.1-8.3c0-0.2,0-0.3,0-0.5c0-0.1,0.1-0.1,0.2-0.2c0.6,0.7,1.2,1.4,1.7,2.1c0.6,0.7,0.6,0.2,0.6-0.3
		c0.8,0.2,0.4,1,0.7,1.5c0.5,1.9,1.3,3.6,2.7,4.9c2.1,2,5,2,7.1,0c0.4-0.4,0.8-0.9,1.1-1.4C72.8,44.4,73,44.1,73.4,44.1z"/>
	<path class="st29" d="M61.4,41.1C61,40.7,61.3,40,61,39.5c-0.1-2.8-0.1-5.5,1.2-8c1.4-3,3.7-4.6,6.3-4.4c1,0.1,1.7,0.4,2.7,1.3
		c-1.3,0-2.5-0.1-3.3,1c-0.8,1.1-0.5,2.2-0.1,3.4c-0.2,0.1-0.3,0.2-0.5,0.1c-1.1-1.7-0.6-3.7,1.1-4.7c-1.2,0-2.2,0.4-3.2,1.3
		c-2.1,1.8-3,4.2-3.4,6.9c-0.1,0.6,0.1,0.8,0.7,0.6c0.7-0.2,1.4-0.3,2.1,0c0.1,0.1,0.2,0.2,0.3,0.3c0.2,0.9,0.3,1.9,0.4,2.8
		c0,0.1-0.1,0.2-0.1,0.2c-1.2,0-1.7,0.8-1.8,1.9C62.4,42.5,62.1,41.5,61.4,41.1z"/>
	<path class="st30" d="M67.3,32.7c0.2,0,0.4,0,0.5,0c0.7,0.9,1.6,1.5,2.7,1.8c0.3,0.1,0.5,0.3,0.6,0.6c0.4,1.1,0.5,2.3,0.1,3.4
		c-0.4,0.3-0.7,0.2-1.1,0c-1.5-0.7-3-1.2-4.7-1.2c-0.3,0-0.5-0.1-0.7-0.3l-0.1,0C64.1,35.3,65.5,32.9,67.3,32.7z"/>
	<path class="st31" d="M73.4,44.1c-0.2,0.2-0.3,0.3-0.5,0.5c-0.2,0-0.3-0.1-0.5-0.2c-0.5-0.5-0.8-1.2-1.2-1.8
		c-0.4-0.6-0.8-0.8-1.4-0.3c-0.3,0.3-0.7,0.3-1.1,0.3c-0.2-0.1-0.5-0.2-0.5-0.5c1.1-0.8,2-1.7,2.4-3c0.1-0.2,0.3-0.4,0.6-0.4
		c1.2,0.4,1.9,1.2,2.5,2.1c0.4-1.7,0.5-3.7,0.2-5.8c-0.1-0.4-0.1-0.8,0.1-1.2c0.1-0.1,0.2-0.1,0.4-0.1c1,3.3,0.6,6.6-0.7,9.7
		C73.5,43.7,73.4,43.9,73.4,44.1z"/>
	<path class="st32" d="M74.4,33.7h-0.1h-0.1c-0.6,0.4-0.9,1.2-1.8,1.4c-0.5,0.1-1.1,0.3-1.6-0.1c-0.1-0.2-0.2-0.3-0.3-0.5
		c1.8,0,2.9-0.9,3.1-3C74.1,32.4,74.4,33,74.4,33.7z"/>
	<path class="st28" d="M39.4,39.8c0.4,0.9,0.7,0,0.8-0.2c0.6-0.7,1.2-1.5,1.9-2.2c-0.5,3.5-1.8,6.8-4.3,9.4c-2.1,2.3-4.9,2.9-8,1.6
		c-2.2-0.9-3.9-2.4-5.5-4.1c-0.2-0.2-0.5-0.5-0.4-0.9c1.1,0,2,0.8,3.2,0.7c0.4,0,0.5,0.3,0.7,0.5c1.2,1.7,2.6,2.8,4.8,2.8
		c1.3,0,2.4-0.5,3.3-1.3c1.4-1.4,2.4-3.1,2.8-5C38.9,40.6,38.7,40,39.4,39.8z"/>
	<path class="st29" d="M39.4,39.8c-0.3,0.4-0.1,1-0.4,1.4c-0.6,0.3-0.9,1.3-1.9,1c0.1-1.4-0.9-1.8-2-2c-0.1-0.7,0.2-1.2,0.4-1.8
		c0.4-1.6,0.5-1.6,2.1-1.4c0.9,0.1,1.2-0.2,1.1-1c-0.4-2.7-1.6-5.1-3.8-6.8c-0.7-0.6-1.6-1-2.8-1c0.9,0.6,1.6,1.2,1.6,2.2
		c0.1,0.9,0.2,1.9-0.5,2.6c-0.2,0.1-0.4,0.1-0.5-0.1c0.8-2,0.4-3.5-1-4.1c-0.8-0.4-1.6-0.1-2.4-0.2c1.8-1.8,4.6-1.9,6.7-0.1
		c2.3,2,3.3,4.6,3.5,7.6C39.5,37.2,39.4,38.5,39.4,39.8z"/>
	<path class="st30" d="M32.6,32.7c0.2,0,0.3,0,0.5,0c1.9,0.2,3.2,2.5,2.6,4.4c-0.6,0.4-1.2,0.2-1.9,0.3c-1.1,0.1-2.1,0.5-3.1,1
		c-0.5,0.2-1,0.5-1.5,0c-0.4-1.2-0.2-2.3,0.4-3.4c0.1-0.2,0.3-0.3,0.5-0.4C31,34.2,31.9,33.7,32.6,32.7z"/>
	<path class="st29" d="M30,34.5c-0.1,0.1-0.1,0.2-0.2,0.3c-1.1,0.8-2,0.6-3.2-0.7c-0.3,2.2-0.6,4.3,0.1,6.5c0.7-0.8,1.4-1.6,2.4-1.9
		c0.4,0,0.5,0.2,0.6,0.5c0.4,1.3,1.2,2.2,2.3,2.9c0.1,0.3-0.2,0.4-0.4,0.5c-0.2,0-0.5,0.1-0.6,0c-1.2-1-1.8-0.1-2.4,0.8
		c-0.2,0.4-0.4,0.7-0.7,1c-0.1,0.1-0.3,0.2-0.5,0.2c-0.2-0.2-0.3-0.3-0.5-0.5c-1.9-4-2.2-8-0.5-12.1c0.3-0.2,0.3,0.1,0.4,0.2
		C27.3,33.9,28,34.4,30,34.5z"/>
	<path class="st33" d="M26.9,32.2c-0.1-0.1-0.3-0.2-0.4-0.2c0-0.3,0-0.5,0.4-0.7C27,31.6,26.9,31.9,26.9,32.2z"/>
	<path class="st34" d="M58.9,93.4c0.2,0,0.3,0,0.5,0c-0.6,1.2-1.4,2.1-2.5,2.8c-3.4,1.7-7,2-10.7,1c-0.3-0.1-0.7-0.2-1-0.3
		c-0.7-0.4-1.7-0.5-2-1.5c1.3-0.3,2.6,0.2,3.9,0.4c3.7,0.4,7.1-0.3,10.4-1.6C58,93.9,58.4,93.6,58.9,93.4z"/>
	<path class="st35" d="M46.2,97.2c2,0,4,0.4,6.1,0.1c1.6-0.2,3-0.8,4.6-1.1c-2.6,2.1-5.6,2.3-8.8,1.7C47.5,97.7,46.7,97.7,46.2,97.2
		z"/>
	<path class="st36" d="M43.2,95.4c0.7,0.5,1.4,1,2,1.5c-2.2-0.3-4.2-1.2-5.9-2.5c-0.7-0.5-0.9-1.1-0.7-1.5c1.1,1,2.3,1.8,3.8,1.8
		C42.7,94.9,42.9,95.1,43.2,95.4z"/>
	<path class="st37" d="M53.9,81.9c1.3-0.1,2.7,0.3,4,0.7c0.7,0.2,0.8,0.5,0.4,1.1c-1.2,2.2-2.7,4.1-5,5.2c-2.9,1.4-7.2-0.1-8.7-3
		c-0.3-0.5-0.3-0.9,0.3-1.3C47.7,83,50.5,81.9,53.9,81.9z"/>
	<path class="st38" d="M72.6,44.4c0.1,0.1,0.2,0.2,0.3,0.2c-2.3,3.9-6.7,4.2-9.5,0.8c-1-1.3-1.7-2.7-2-4.3c0.8,0,1,0.9,1.8,1
		c0.7,0.2,1.2,0.7,1.9,0.8c0.9,0.4,1.9,0.7,2.9,1c0.1,0.1,0.2,0.1,0.3,0.2c0.3,0.6,0.4,1.2,0.4,1.8c0,0.7,0.4,0.8,1,0.6
		c1.1-0.5,1.9-1.4,2.7-2.2C72.4,44.3,72.5,44.3,72.6,44.4z"/>
	<path class="st39" d="M67.3,32.7c-1.9,0.8-2.5,2.5-2.6,4.4c-0.8,0-1.5-0.1-2.3,0.2c-0.8,0.3-1.1,0-1-0.9c0.4-2.8,1.2-5.3,3.5-7.2
		c1.3-1.1,2.7-1.8,4.8-1.3c-1.2,0.4-2.2,0.7-2.5,1.9C66.9,30.8,67,31.7,67.3,32.7z"/>
	<path class="st40" d="M71.1,38.8c-0.5,1.4-1.1,2.9-2.8,3.4c-0.8,0.5-1.4,0.2-2-0.3c-0.4-0.6-0.8-1.1-1-1.8c-0.5-1-0.6-2-0.5-3
		c2.3-0.2,4.3,0.6,6.3,1.5C71.1,38.6,71.2,38.7,71.1,38.8C71.1,38.8,71.1,38.8,71.1,38.8z"/>
	<path class="st41" d="M65.2,40.1c0.6,0.4,1,0.9,1.1,1.6c0.2,1.3-0.1,1.6-1.4,1.5c-0.8,0-1.3-0.5-1.8-1.1
		C63.1,40.2,63.5,39.8,65.2,40.1z"/>
	<path class="st42" d="M71.1,38.8c0-0.1,0-0.2-0.1-0.3c0.2-1.2,0.1-2.3-0.2-3.5c1.2-0.1,2.4-0.1,2.9-1.5c0.1-0.2,0.3,0.2,0.4,0.2
		c0.1,2.1,0.6,4.3,0,6.4c-0.1,0.3-0.2,0.6-0.3,1.1C72.9,40.3,72.2,39.4,71.1,38.8z"/>
	<path class="st43" d="M72.6,44.4c-0.1,0-0.2,0-0.2,0c-1.5,0.8-3.3,0.7-4.3-0.3h0c-0.5-1.2-0.4-1.4,0.8-1.8c0.1,0,0.2,0,0.4,0
		c0.7,0.1,0.8-1.3,1.6-0.7c0.5,0.4,0.8,1.1,1.1,1.7C72.2,43.7,72.4,44,72.6,44.4z"/>
	<path class="st29" d="M68.8,42.4c-0.9,0.3-0.8,1.1-0.8,1.8c-1.1,0-2.1-0.5-3-1c1-0.1,1.3-0.7,1.4-1.5c0.6,0.4,1.2,0.5,1.9,0.5
		C68.5,42.2,68.7,42.3,68.8,42.4z"/>
	<path class="st38" d="M27.5,44.6c0.1-0.1,0.2-0.1,0.2-0.2c0.1-0.1,0.2-0.1,0.3,0c0.8,0.8,1.5,1.7,2.6,2.2c0.7,0.3,1.1,0.2,1.1-0.7
		c0-0.5,0.1-0.9,0.3-1.3c0.1-0.1,0.1-0.2,0.2-0.3c0.9-0.6,2-0.8,3-1.3c0.7-0.1,1.2-0.7,1.9-0.8c0.7-0.1,0.9-1.1,1.8-1
		c-0.2,1.6-1,2.9-1.9,4.2C34.2,48.9,29.8,48.6,27.5,44.6z"/>
	<path class="st39" d="M35.5,37c0.1-2-0.7-3.4-2.5-4.3c0.7-2.6,0.3-3.6-2-4.8c1.2-0.5,2.2-0.2,3.1,0.4c2.9,1.8,4.3,4.6,4.7,8
		c0.1,0.9-0.2,1.3-1.1,1c-1.1-0.4-1.9-0.2-2.1,1.1C35.2,37.9,35.3,37.5,35.5,37z"/>
	<path class="st40" d="M35.5,37c0,0.4,0,0.9,0.1,1.3c-0.2,0.6-0.3,1.2-0.5,1.7c-0.1,0.7-0.7,1.1-1,1.7c-0.6,0.5-1.3,0.8-2.1,0.3
		c-1.7-0.4-2.1-2-2.8-3.4c-0.2-0.2-0.1-0.3,0-0.5c0.3,0.3,0.6,0.1,0.9-0.1C31.9,37.2,33.7,36.9,35.5,37z"/>
	<path class="st41" d="M34,41.6c0.1-0.7,0.6-1.2,1.1-1.6c1.7-0.3,2.3,0.3,2,2c-0.5,0.6-1,1-1.8,1.1C33.9,43.1,33.8,42.9,34,41.6z"/>
	<path class="st42" d="M29.3,38.3c0,0.2,0,0.3,0,0.5c-1,0.6-1.9,1.4-2.5,2.4c-1.1-1.3-0.9-6.1-0.2-7.7c0.9,1.4,1.7,1.8,3.2,1.3
		C29.3,35.9,29.1,37.1,29.3,38.3z"/>
	<path class="st43" d="M27.9,44.4c-0.1,0-0.2,0-0.2,0c0.3-0.5,0.5-1,0.8-1.4c0.6-0.9,1.2-2.1,2.5-0.7c0.1,0.1,0.3,0,0.5,0.1
		c1.4,0.2,1.5,0.5,0.8,2h0C30.8,44.9,29.4,45.3,27.9,44.4z"/>
	<path class="st44" d="M32.3,44.4c-0.1-0.7,0.5-1.7-0.8-2c0.2-0.1,0.3-0.1,0.5-0.2c0.7,0,1.4-0.1,2-0.5c0.1,0.9,0.4,1.4,1.3,1.5
		C34.3,43.6,33.3,44,32.3,44.4z"/>
	<path class="st45" d="M68.1,44.1c1.4,0.5,2.9,0.5,4.3,0.3c-0.6,1.4-1.8,2.1-3.1,2.6c-0.7,0.3-1,0-1-0.7
		C68.4,45.6,68.1,44.9,68.1,44.1z"/>
	<path class="st45" d="M27.9,44.4c1.4,0.4,2.9-0.1,4.3,0c-0.1,0.5-0.2,1-0.2,1.5c-0.1,1.5-0.2,1.5-1.5,1
		C29.4,46.3,28.5,45.6,27.9,44.4z"/>
</g>
</svg>
