<?xml version="1.0" encoding="utf-8"?>
<!-- Generator: Adobe Illustrator 22.1.0, SVG Export Plug-In . SVG Version: 6.00 Build 0)  -->
<svg version="1.1" id="Layer_1" xmlns="http://www.w3.org/2000/svg" xmlns:xlink="http://www.w3.org/1999/xlink" x="0px" y="0px"
	 viewBox="0 0 100 100" style="enable-background:new 0 0 100 100;" xml:space="preserve">
<style type="text/css">
	.st0{fill:#FED24D;}
	.st1{fill:#00E4A2;}
	.st2{fill:#C8F8EA;}
	.st3{fill:#FEE78B;}
	.st4{fill:#FEFEFE;}
	.st5{fill:#FEB624;}
	.st6{fill:#00B98E;}
	.st7{fill:#FEB725;}
	.st8{fill:#4A3247;}
	.st9{fill:#C68D00;}
	.st10{fill:#C68D01;}
	.st11{fill:#BC8F00;}
	.st12{fill:#FED24E;}
	.st13{fill:#FEE68A;}
	.st14{fill:#FEBD2E;}
	.st15{fill:#FEBC2D;}
	.st16{fill:#FEE17B;}
	.st17{fill:#EAF4E3;}
	.st18{fill:#D39E13;}
	.st19{fill:#FEBE2F;}
	.st20{fill:#FEDF76;}
	.st21{fill:#FEC93F;}
	.st22{fill:#00F1CB;}
	.st23{fill:#00B646;}
	.st24{fill:#E8E7E7;}
	.st25{fill:#00935E;}
	.st26{fill:#F0FAF7;}
	.st27{fill:#004C32;}
	.st28{fill:#0DC098;}
	.st29{fill:#9D6401;}
	.st30{fill:#AF7605;}
	.st31{fill:#007C5E;}
	.st32{fill:#00925E;}
	.st33{fill:#00D9BD;}
	.st34{fill:#FBFDFC;}
	.st35{fill:#FBFDFD;}
</style>
<g>
	<path class="st0" d="M78.6,67.3C73.7,77.5,66,84.7,55.4,88.7c-5.4,2-11,2.9-16.8,2.4c-16.4-1.5-28.2-9.8-35.2-24.8
		c-2.7-5.8-3.8-12-3.3-18.4C1.3,32,9.1,20.3,23.3,13c7.3-3.8,15.2-5,23.3-3.8c17.2,2.7,28.6,12.5,34.1,29c1.5,4.4,1.9,9,1.7,13.7
		c-0.4,0.4-0.8,0.2-1.2,0.1c-2.9-0.3-5.4,0.5-7.4,2.6c-2.9,3-2.5,8.1,0.8,10.6c1,0.7,2,1.4,3.2,1.6C78.1,66.9,78.6,66.8,78.6,67.3z"
		/>
	<path class="st1" d="M78.6,67.3c-2.7-0.6-4.9-1.9-6.2-4.3c-2.4-4.5,0.4-10,5.4-11c1.5-0.3,3-0.2,4.5,0c1.1,0.4,2.3,0.9,3.3,1.7
		c0.1,0,0.2-0.1,0.3-0.1c0-2.6-0.1-5.2,0-7.8c0.2-7.4,0.4-14.8,0.7-22.1c0-0.4,0-0.8,0-1.3c0.2-0.6,0-1.2,0.1-1.8
		c0-0.2-0.1-0.5,0.3-0.5c1.5,2.5,3.7,4.3,6.2,5.7c3.1,1.7,5.4,4.2,6.5,7.6c1,3-0.2,6.4-3.6,8c0.4-0.9,0.8-1.7,0.8-2.6
		c0.1-1.6-0.5-2.7-1.8-3.5c-1.1-0.7-2.3-1.3-3.5-1.9c-1.6-0.8-3.1-1.9-4.2-3.4c-0.3,0.2-0.2,0.5-0.2,0.7c0.3,8.9,0.7,17.8,1.1,26.6
		c0.1,2.1,0.3,4.1-0.9,5.9c-1.6,2.6-4,3.9-7,4.1C79.9,67.4,79.2,67.3,78.6,67.3z"/>
	<path class="st2" d="M87,20c-0.7,0.7,0,1.6-0.4,2.3c0-1,0-2.1,0-3.4C86.8,19.5,86.9,19.7,87,20z"/>
	<path class="st3" d="M3.4,40.9c0.9-4.3,2.7-8.2,4.8-12c1.6-2.8,3.5-5.3,5.7-7.5c2.9-3,6.3-5.4,10.1-7.1c3.1-1.4,6.4-2.4,9.7-2.8
		c3.5-0.5,6.9-0.7,10.4-0.4c3.7,0.4,7.3,0.9,10.9,2.1c4.4,1.5,8.3,3.6,11.8,6.7c6.9,6.1,10.8,13.8,12.7,22.7c0,0.1,0,0.2,0,0.3
		c0.1,0.2,0,0.3-0.2,0.2c-2.2-6.7-6-12.4-11.3-17.1c-0.2-0.3-0.3-0.5-0.4-0.8c-0.1-1-0.5-1.9-0.9-2.8c-1.2-2.6-3.7-3.6-6.4-2.6
		c-0.4,0.2-0.8,0.5-1.3,0.4c-2.5-0.9-4.9-1.9-7.5-2.4c-2.9-0.6-5.9-1.1-8.9-1.2c-4.5-0.1-9,0-13.4,1.3c-1.4,0.4-2.9,0.8-4.2,1.5
		c-0.3,0.3-0.7,0.1-1,0.1c-2.2-0.2-3.9,0.5-5,2.5c-0.2,0.4-0.3,0.9-0.9,1.1c-1.3,0.6-2.4,1.6-3.5,2.6c-4,3.6-7.2,7.8-9.7,12.7
		c-0.5,1-0.9,2.1-1.4,3.1C3.2,41.3,3.3,41.1,3.4,40.9z"/>
	<path class="st4" d="M36.7,36.1c1,2.9,1.7,5.8,1.4,8.9c-0.2,3-1,5.9-3.2,8.2c-2.5,2.7-6,3.1-9.1,1.2c-3.2-2-5-5-6.1-8.5
		c-0.4-1.3-0.5-2.6-0.8-3.9c-0.5-1.2-0.3-2.5-0.2-3.7c0.4-3.5,1.4-6.8,4.5-9c2.3-1.6,4.8-1.6,7.3-0.4c0.3,0.1,0.7,0.3,0.7,0.7
		c-0.3,0.4-0.7,0.2-1,0.2c-0.9-0.1-1.7-0.1-2.5,0.4c2.2,0.4,3,1.7,2.1,3.9c-0.6,0.9-1.3,1.4-2.4,1.6c-1.6,0-2.2-0.4-2.7-1.8
		c-1.5,3.6-0.7,8.4,1.6,10.8c2,2,4.7,1.9,6.5-0.3c0.9-1.1,1.5-2.4,1.8-3.8c0.4-2.4,0.5-4.8-0.5-7.1c-0.1-0.3-0.2-0.6-0.2-0.9
		c0-0.1,0.1-0.2,0.1-0.3c0.5-0.2,0.7,0.1,0.9,0.4C35.8,33.8,36.5,34.8,36.7,36.1z"/>
	<path class="st4" d="M64.8,30.2c2.2,1.4,3.4,3.5,4,6C70.2,42.3,69.1,48,65,53c-2.4,2.8-5.9,4-8.8,2.9c-2.8-1-4.4-3.2-5.2-5.9
		c-2-6.9-0.7-13.2,4.4-18.4c1.1-1.1,2.5-2,4.1-2.2c0,0.1-0.1,0.3-0.2,0.4c-0.1,0.1-0.3,0.2-0.4,0.3c1-0.3,1.8,0,2.4,0.7
		c0.8,1.1,0.7,2.2,0.1,3.3c-0.6,0.8-1.4,1.3-2.3,1.4c-1.6-0.1-2.6-0.9-2.6-2.2c-1,3.7-1.2,7.3,1.2,10.6c0.4,0.6,0.9,1.1,1.6,1.4
		c2.2,0.9,4,0.5,5.4-1.4c1.8-2.4,2.3-5.1,1.9-8c-0.2-1.7-0.8-3.4-1.9-4.8c-0.2-0.2-0.3-0.5-0.3-0.8C64.5,30.3,64.6,30.1,64.8,30.2z"
		/>
	<path class="st5" d="M5.5,64.9c2.2,3.5,4.7,6.8,7.8,9.5c4.4,4,9.5,7,15.2,8.6c3.5,1,7,1.5,10.6,1.7c7.1,0.3,13.9-0.8,20.4-3.8
		c0.1-0.1,0.2-0.2,0.4-0.2c0.9-0.1,1.7-0.4,2.3-0.9c0.2-0.1,0.4-0.3,0.5-0.5c0.2-0.1,0.2-0.4,0.5-0.3c4.5-2.7,8.3-6.3,11.5-10.4
		c0.2-0.1,0.3,0,0.2,0.2c-2.4,4.1-5.4,7.7-9,10.8c-3.2,2.8-6.7,4.9-10.6,6.5c-3.2,1.3-6.6,2.1-10.1,2.3c-4.3,0.3-8.5,0.1-12.7-0.7
		c-5.7-1.1-10.9-3.4-15.4-7.1c-5.2-4.1-9-9.2-11.8-15.2c-0.1-0.1-0.1-0.3-0.1-0.4C5.2,64.8,5.3,64.8,5.5,64.9z"/>
	<path class="st6" d="M64.5,30.5c3.3,3.6,3.2,9.8,0.7,13.4c-1.6,2.3-4,2.9-6.1,1.6c-0.1-0.2,0-0.3,0.2-0.4c0.2-0.1,0.5,0,0.7,0.1
		c0.5,0.2,0.7-0.1,0.7-0.6c0-0.5,0.1-1.1,0.2-1.6c0.1-0.5,0-0.9-0.5-1c-0.5-0.1-0.9-0.9-1.5-0.4c-0.6,0.6-1.3,1.4-1,2.5
		c-0.1,0.2-0.1,0.3-0.3,0.2c-2.7-2.8-2.6-9-1.1-11.3c0.4,1.7,0.9,2.2,2.6,2.4c0,0.2-0.1,0.4-0.3,0.5c-1,0.3-1.7-0.2-2.4-0.8
		c-0.3,1.5-0.3,2.9-0.1,4.4c0,0.2,0,0.5,0.3,0.6c0.3,0.1,0.4-0.2,0.6-0.4c0.4-0.4,0.7-1,1.4-0.9c0.3,0.2,0.4,0.5,0.5,0.7
		c0.9,1.7,1.4,1.9,3.2,1.6c0.2,0.1,0.3,0.2,0.4,0.4c0.3,0.5,0.6,0.8,1.2,0.5c0.5-0.2,0.9-0.6,0.8-1.2c-0.1-0.6-0.5-0.9-1.1-0.8
		c-0.1,0-0.3,0-0.4-0.2c-0.1-0.9,0.3-1.7,0.4-2.5c0.1-0.1,0.1-0.2,0.2-0.2c0.5-0.1,1.1,0,1.7,0.1c0.6,0.1,0.7-0.2,0.7-0.7
		c-0.3-2.2-1.1-4.1-2.8-5.5c-0.7-0.6-1.6-1-2.5-1c0.1,0.1-0.1,0-0.1,0c1.7,1,1.6,2.4,1,4c-0.2,0.2-0.4,0.4-0.7,0.1
		c0.1-0.3,0.3-0.6,0.4-1c0.5-1.7-0.7-3.1-2.4-2.9c-0.2,0-0.5,0.1-0.8,0c0.4-0.3,0.8-0.5,1.2-0.8c1.3-0.5,2.6-0.3,3.9,0.3
		C63.8,29.8,64.4,29.9,64.5,30.5z"/>
	<path class="st7" d="M18.4,40.6c0-2.5-0.3-5.1,0.4-7.6c1.1-3.8,3.2-6.1,7.2-6.8c4-0.6,6.8,1.3,8.8,4.5c0.9,1.4,1.6,2.8,1.9,4.4
		C36,35,36,34.3,35.7,33.8c-1.3-2-2.8-3.7-4.9-4.8c-4.1-2.1-8.6-0.4-10.6,3.8c-0.9,2-1.4,4.2-1.4,6.4c0,0.4,0.1,0.9-0.1,1.3
		C18.6,40.7,18.5,40.7,18.4,40.6z"/>
	<path class="st7" d="M51.8,35c1.1-3.1,2.8-5.8,5.8-7.4c2.9-1.4,6.2-0.7,8.7,1.1c2.2,1.7,3.1,4.1,3.5,6.7c0.3,1.7,0.1,3.4,0.2,5.4
		c-0.6-0.7-0.4-1.3-0.4-1.9c-0.2-2.7-0.8-5.3-2.6-7.5c-1.4-1.8-3.2-2.5-5.4-2.7c-3.5-0.3-6.1,1.6-8.1,4.2c-0.5,0.7-1,1.5-1.5,2.3
		C51.8,35.3,51.7,35.2,51.8,35z"/>
	<path class="st8" d="M55.5,70.4c0.1-1.2,0.2-2.2,1-2.9c1-1,2.3-0.9,2.9,0.3c0.5,1.1,0.9,2.3,1.2,3.5c0.3,1.2-0.3,2.2-1.4,2.6
		c-1.1,0.4-2.1,0.2-2.8-0.8C55.7,72.3,55.5,71.3,55.5,70.4z"/>
	<path class="st9" d="M18.2,22.9c0.1-0.1,0.2-0.2,0.2-0.4c1.5-3.2,3.1-4,6.7-3.4c1,0.6,2,1.1,2.7,2.1c0,0.4-0.2,0.4-0.4,0.2
		c-2.3-0.7-4.5-0.7-6.7,0.5c-1.2,0.7-2,1.8-3,2.9C17.9,24.2,18,23.6,18.2,22.9z"/>
	<path class="st10" d="M59.1,20c2.6-1.9,6.8-1.4,8.2,2.8c0.2,0.7,0.6,1.4,0.5,2.2c-0.4,0.1-0.6-0.2-0.7-0.4
		c-1.2-1.8-2.7-2.9-4.9-3.3c-0.2,0-0.3-0.1-0.4-0.3c-1.3-0.4-2.4,0.2-3.6,0.4c-0.3,0.1-0.5,0.1-0.4-0.2C58.2,20.8,58.7,20.4,59.1,20
		z"/>
	<path class="st11" d="M59.9,80.9c-0.1,0-0.3,0-0.4,0.1c-1.9-0.3-3.4-1.4-4.9-2.7c1.7,0.4,3.3,0.8,5,0.5c1.8-0.3,3.1-1.4,3.7-3.2
		c0.6,1.2,0.6,1.4-0.1,3.5c-0.1,0.1-0.3,0.3-0.4,0.4c-0.3,0.1-0.4,0.2-0.7,0.4C61.5,80.3,60.7,80.6,59.9,80.9z"/>
	<path class="st12" d="M18.6,40.6c0-2.6,0.3-5.1,1.2-7.5c2.1-5.3,8.5-6.9,12.8-3.2c1.8,1.5,2.9,3.4,4.1,5.3c0.4,0.3,0.1,0.6,0,0.8
		c-0.8-1.3-1.3-2.8-2.5-3.9c-0.2,0-0.4-0.2-0.6-0.3c-0.7-0.8-1.7-1.4-2.4-2.3c-1.8-1.7-5.4-1.9-7.8-0.2c-2.3,1.6-3.4,3.9-4.1,6.5
		c-0.5,2-0.4,4-0.4,6c-0.1,0-0.1,0-0.2,0C18.7,41.5,18.6,41.1,18.6,40.6z"/>
	<path class="st13" d="M61.8,21c2.2,0.2,4,1.2,5.3,3c0.2,0.3,0.3,0.8,0.7,1c0.1,0.3,0.2,0.5,0.2,0.8c-2.1-1.8-4.3-3.3-6.8-4.7
		C61.5,21.1,61.7,21,61.8,21z"/>
	<path class="st14" d="M5.5,64.9c-0.1,0.1-0.1,0.1-0.2,0.2c-0.5-0.5-0.5-1.2-0.7-1.9C4.9,63.7,5.2,64.3,5.5,64.9z"/>
	<path class="st15" d="M74.9,68.8c-0.1-0.1-0.1-0.1-0.2-0.2c0.4-0.5,0.7-1.1,1-1.6C75.8,67.8,75.4,68.3,74.9,68.8z"/>
	<path class="st16" d="M3.4,40.9c0,0.2,0,0.3,0.2,0.4c-0.2,0.6-0.4,1.1-0.6,1.7C2.9,42.3,3,41.5,3.4,40.9z"/>
	<path class="st17" d="M64.5,30.5c-0.4-0.3-0.7-0.6-1-0.8c0.6-0.1,1,0.2,1.3,0.5C64.7,30.3,64.6,30.4,64.5,30.5z"/>
	<path class="st18" d="M27.4,21.5c0.2,0,0.4-0.1,0.4-0.2c0.2,0.2,0.5,0.4,0.7,0.7c0,0.1-0.1,0.1-0.1,0.2
		C28.1,21.9,27.7,21.7,27.4,21.5z"/>
	<path class="st19" d="M51.8,35c0.1,0.1,0.1,0.1,0.2,0.2c-0.2,0.3-0.1,0.7-0.6,0.9C51.4,35.7,51.5,35.3,51.8,35z"/>
	<path class="st20" d="M79.3,42.9c0.1-0.1,0.1-0.1,0.2-0.2c0.3,0.3,0.2,0.7,0.2,1.2C79.4,43.5,79.3,43.3,79.3,42.9z"/>
	<path class="st21" d="M18.6,40.6c0.2,0.4,0.2,0.8,0.2,1.3c-0.3-0.4-0.4-0.8-0.4-1.3C18.5,40.6,18.5,40.6,18.6,40.6z"/>
	<path class="st18" d="M57.8,21.2c0.1,0.2,0.3,0.2,0.4,0.2c-0.2,0.2-0.5,0.3-0.9,0.4C57.3,21.5,57.6,21.4,57.8,21.2z"/>
	<path class="st22" d="M80,59.4c-1.3,0.1-2.4-0.1-3.5-0.7c-1-0.6-1.9-1.3-1.9-2.6c0-1.3,1-2,2-2.4c2.5-1.1,5-1.1,7.3,0.3
		c2,1.2,2,3.2-0.2,4.6C82.5,59.3,81.3,59.6,80,59.4z"/>
	<path class="st23" d="M73.3,59.2c1.5,2.7,3.7,4.1,6.8,3.8c2.9-0.3,5.2-1.6,6.8-4.1c0.5,4.5-3.1,7.9-7.5,7.2c-1.2-0.2-2.4-0.5-3.6-1
		C73.8,64.1,72.5,61.4,73.3,59.2z"/>
	<path class="st22" d="M97.9,38.6c0.2-1.2,0-2.4-0.2-3.6c-0.3-1.3-1.1-2.2-2.3-2.8c-2.3-1.2-4.7-2.2-6.7-3.8
		c-0.7-0.6-1.1-1.2-1.1-2.2c0.1-1.1,0-2.2,0-3.5c1.8,3.4,5.3,4.3,7.7,6.5c2,1.8,3.7,3.7,3.5,6.6C98.9,36.8,98.5,37.7,97.9,38.6z"/>
	<path class="st6" d="M31.3,29.7c1,0.5,1.8,1.4,2.5,2.2c0.2,0.2,0.3,0.5,0.4,0.7c1.3,3.1,1.6,6.2,0.5,9.4c-0.4,1-0.9,2-1.6,2.8
		c-2,2.2-4.9,2.2-6.9,0c-2-2.4-2.6-5.2-2.2-8.3c0.1-1.1,0.3-2.3,1.1-3.6c0,1,0.2,1.6,0.7,2.1c0.5,0.5,1.2,0.5,1.9,0.5
		c0.1,0.3-0.1,0.4-0.3,0.5c-1.1,0.3-1.9,0-2.5-0.9c-0.3,1.8-0.5,3.6,0.1,5.4c0.7-0.5,1.1-1.3,2-1.6c0.4,0,0.4,0.4,0.6,0.6
		c0.7,1.7,1.3,2,3.1,1.8c0.1,0,0.2,0,0.3,0.1c0.2,0.1,0.3,0.3,0.4,0.5c0.2,0.4,0.6,0.6,1,0.4c0.5-0.2,0.8-0.5,0.9-1.1
		c0.1-0.5-0.3-0.8-0.8-1c-0.2-0.1-0.5-0.1-0.6-0.3c-0.2-0.5,0.1-1,0.1-1.6c0.4-1.2,0.4-1.2,1.6-1c1,0.1,1.1,0,1-1
		c-0.3-1.7-0.9-3.3-2.2-4.7c-0.9-0.9-1.9-1.5-3.1-1.6c1.3,1,1.7,2.5,0.8,3.8c-0.2,0.1-0.3,0.1-0.4,0c0.6-1.8,0.2-2.9-1-3.4
		c-0.5-0.2-1.1,0-1.8-0.1C28.3,29.2,29.7,29.2,31.3,29.7z"/>
	<path class="st24" d="M37.7,45.2c-0.8,3.3-1.8,6.5-4.7,8.6c-1.6,1.2-3.4,1.1-5.3,0.4c-2.2-0.8-3.8-2.5-5.5-4.5
		C28.8,52.3,33.7,50.4,37.7,45.2z"/>
	<path class="st25" d="M29.7,34c0.1,0,0.2,0,0.4,0c0,0,0.1,0.1,0.1,0.1c-0.4,1.3-1.4,1.7-2.6,1.9c-0.1,0-0.2-0.1-0.2-0.2
		c0.1-0.1,0.1-0.2,0.2-0.4C28.5,35.3,29.2,34.7,29.7,34z"/>
	<path class="st26" d="M34.2,32.6c-0.2-0.2-0.4-0.4-0.4-0.7c0.2,0,0.4,0.1,0.4,0.4C34.3,32.4,34.2,32.5,34.2,32.6z"/>
	<path class="st24" d="M51.7,50.4c6.7,2.5,11.9,0.2,16.3-5c-0.3,1.7-1,2.9-1.8,4.2c-1.4,2.2-2.9,4.3-5.3,5.5c-2.1,1-4.1,0.8-6-0.5
		C53.6,53.5,52.5,52.2,51.7,50.4z"/>
	<path class="st27" d="M61.1,34c0.2-0.1,0.4-0.1,0.6-0.2c1.4,0.2,2.5,1.9,2.1,3.4l0,0c-0.3,0.3-0.7,0.4-1.1,0.4
		c-1.1,0.1-2.2,0.4-3.3,0.9c-0.3,0.1-0.6,0.4-0.9,0c-0.2-1-0.4-2,0.3-2.9c0.1-0.1,0.2-0.3,0.3-0.4C59.9,35,60.6,34.6,61.1,34z"/>
	<path class="st28" d="M59.3,45.2c-0.1,0.1-0.1,0.2-0.2,0.2c-0.6-0.2-1.1-0.7-1.5-1.3c0.1-0.1,0.1-0.1,0.2-0.2
		C58.6,44.1,59,44.5,59.3,45.2z"/>
	<path class="st29" d="M59.9,80.9c0.8-0.4,1.5-0.8,2.3-1.2c0.2-0.1,0.3,0,0.2,0.2C61.7,80.5,60.9,81,59.9,80.9z"/>
	<path class="st30" d="M62.4,79.9c-0.1-0.1-0.1-0.1-0.2-0.2c0.2-0.2,0.3-0.4,0.6-0.2C62.7,79.6,62.6,79.7,62.4,79.9z"/>
	<path class="st25" d="M63.9,37.1c-0.3-1.4-0.6-2.8-2.1-3.4c0.1-0.4,0.2-0.9,0.2-1.3c0-1.3-0.5-2.3-1.9-2.6c1.8-0.5,3.4,0.3,4.8,2.1
		c1.1,1.4,1.5,3.1,1.8,4.8c0.1,0.5-0.1,0.9-0.7,0.7C65.2,37.2,64.5,37.5,63.9,37.1z"/>
	<path class="st31" d="M58.7,38.5c1.6-1,3.4-1.3,5.2-1.4c0.1,0.9-0.2,1.8-0.4,2.6c-0.2,0.6-0.5,1-1,1.3c-1.2,0.7-2.3,0.5-3.1-0.7
		c-0.3-0.5-0.6-1-0.7-1.6C58.6,38.7,58.6,38.7,58.7,38.5C58.6,38.6,58.7,38.5,58.7,38.5z"/>
	<path class="st32" d="M58.7,38.5c0,0.1,0,0.1,0,0.2c-0.8,0.2-1.1,0.9-1.7,1.4c-0.2,0.1-0.3,0.5-0.6,0.4c-0.3-0.1-0.2-0.4-0.3-0.6
		c-0.4-1.9-0.2-3.7,0.1-5.8c0.6,1.1,1.5,1.5,2.6,1.5C58.6,36.6,58.6,37.6,58.7,38.5z"/>
	<path class="st33" d="M59.3,45.2c-0.5-0.4-1-0.8-1.5-1.3c-0.4-0.5-0.5-0.9,0-1.4c0.2-0.2,0.4-0.5,0.5-0.8c0.4-0.7,0.8-1.2,1.5-0.3
		c0.4,0.4,1.3,0.2,1.3,0.8c0,1-0.2,2-0.3,3c0,0.3-0.2,0.4-0.5,0.3C60,45.4,59.6,45.3,59.3,45.2z"/>
	<path class="st34" d="M62.4,41.1c0.2-0.5,0.5-1,1-1.3c0.6-0.2,1.2-0.1,1.5,0.5c0.3,0.4,0.2,0.9,0,1.3c-0.3,0.5-0.8,0.9-1.4,0.8
		C62.8,42.3,62.6,41.7,62.4,41.1z"/>
	<path class="st25" d="M30.1,34c0.7-1.9,0.2-3.1-1.5-3.8c0.7-0.4,2.2-0.1,3.2,0.7c1.9,1.6,2.8,3.6,3.1,6c0.1,0.7,0,1.3-1,0.9
		c-0.1,0-0.2,0-0.3-0.1c-0.8-0.4-1.2-0.1-1.4,0.7c-0.2-0.2-0.2-0.5-0.3-0.7c0.1-1.3-0.4-2.3-1.3-3.1C30.4,34.4,30.2,34.3,30.1,34
		L30.1,34z"/>
	<path class="st31" d="M32.2,37.5c0,0.3,0,0.6,0,0.8c0.1,0.6-0.2,1.1-0.2,1.6c-0.2,0.6-0.6,1.1-1.1,1.4c-1.8,0.6-3.1,0-3.7-1.9
		c-0.1-0.2,0-0.4-0.2-0.5c-0.1-0.1-0.1-0.2,0-0.3c1.2-0.8,2.6-1.2,4-1.4C31.4,37.2,31.8,37.2,32.2,37.5z"/>
	<path class="st25" d="M27,38.8c0,0.1,0,0.2,0,0.2c-0.7,0.7-1.4,1.3-2.2,2c-0.7-2.2-0.6-4.3-0.1-6.6c0.5,1.3,1.5,1.6,2.6,1.4l0,0
		C27.5,36.9,27.3,37.8,27,38.8z"/>
	<path class="st33" d="M25.8,43.4c0.4-0.6,0.9-1.3,1.4-2c0-0.1,0.3,0,0.4,0c0.2,0.1,0.4,0.2,0.5,0.3c0.4,0.4,1.3,0.1,1.4,0.6
		c0.1,0.7-0.1,1.5-0.2,2.2c-0.3,1.4-0.6,1.5-1.8,0.8C26.8,45,25.8,43.9,25.8,43.4z"/>
	<path class="st35" d="M30.9,41.5c0.1-0.7,0.5-1.1,1.1-1.4c0.7,0,1.4,0,1.6,0.9c0.1,0.7-0.2,1.2-0.8,1.5
		C31.9,42.9,31.2,42.6,30.9,41.5z"/>
	<path class="st27" d="M27,38.8c-0.1-1,0-2,0.4-2.9c1.2-0.2,2.2-0.7,2.7-1.8c1.5,0.7,2.1,1.9,2,3.5c-1.6,0-3.2,0.4-4.6,1.1
		C27.4,38.7,27.2,38.7,27,38.8z"/>
</g>
</svg>
