<?xml version="1.0" encoding="utf-8"?>
<!-- Generator: Adobe Illustrator 22.1.0, SVG Export Plug-In . SVG Version: 6.00 Build 0)  -->
<svg version="1.1" id="Layer_1" xmlns="http://www.w3.org/2000/svg" xmlns:xlink="http://www.w3.org/1999/xlink" x="0px" y="0px"
	 viewBox="0 0 100 100" style="enable-background:new 0 0 100 100;" xml:space="preserve">
<style type="text/css">
	.st0{fill:#FED24D;}
	.st1{fill:#EE0000;}
	.st2{fill:#FEB624;}
	.st3{fill:#FEE78B;}
	.st4{fill:#B40000;}
	.st5{fill:#AC1800;}
	.st6{fill:#FEE27E;}
	.st7{fill:#FEC134;}
	.st8{fill:#FEE27D;}
	.st9{fill:#FEDD6F;}
	.st10{fill:#D70000;}
	.st11{fill:#F67F7F;}
	.st12{fill:#F67E7E;}
</style>
<g>
	<path class="st0" d="M75,84c-2.8,2.7-6.1,4.8-9.6,6.6c-7.4,3.7-15.2,5.3-23.4,4.6C27.7,94,16.4,87.5,8.1,75.8
		C3.5,69.3,0.9,62,0.2,54c-1.9-20.6,10.7-39.9,30-46.7C36.9,5,43.9,4.1,50.9,5.1C68.9,7.9,81.3,17.9,87.9,35
		c1.8,4.7,2.5,9.7,2.6,14.7c0,1.4-0.1,2.8-0.2,4.2c-0.6,1-1.6,1.6-2.4,2.4c-0.4,0.4-0.7,0.1-0.9-0.3c-0.3-0.6-0.6-1.3-1-1.9
		c-2.1-3-5.2-3.6-8.7-2.3c-4.2,1.6-6.2,6.1-4.9,10.3c0.3,0.8,0.6,1.6,1,2.4c1,2,2.1,4,2.8,6.1c1.2,3.4,1.2,6.7-1.2,9.8
		c-0.5,0.6-1,1.2-1.7,1.6c-3,1.9-6,3.6-9.3,4.8c-5,1.9-10.3,2.9-15.7,3c-4.7,0.1-9.4-0.1-14-1.3C23.2,85.8,14.4,79.3,8,69.5
		c-0.5-0.8-0.8-1.6-1.3-2.4c-0.1-0.6-0.6-1-0.6-1.4c0.1,0.5,0.5,1.2,0.8,1.8c1.8,3.5,3.7,7,6.2,10.2c7,8.9,16.2,14.2,27.5,15.5
		c5.7,0.7,11.5,0.8,17.1-0.8c5.6-1.6,10.6-4.1,15.1-7.8C73.3,84.1,74,83.3,75,84z"/>
	<path class="st1" d="M73.4,81.9c3.8-3.7,4.5-7,2.2-12.2c-0.9-2.1-2-4.1-3-6.2c-2.9-6.4,1.7-13.1,8.6-12.6c2.3,0.2,4,1.4,5.2,3.4
		c0.4,0.6,0.7,1.3,1.1,2.1c0.8-1,1.7-1.8,2.8-2.5c5.7-3,9.4,2.1,9.6,6.4c0.3,6.1-2.3,11-6.8,14.9c-4.9,4.3-10.5,7.1-16.9,8.5
		c-0.4,0.1-0.8,0.1-1.1,0.1c-0.3,0.1-0.6,0-0.9,0.1c-0.5,0-1.1,0-1.4-0.6C72.7,82.7,73,82.3,73.4,81.9z"/>
	<path class="st2" d="M73.4,81.9c-0.7,1.6-0.5,1.8,1.8,1.9c-0.1,0.1-0.1,0.1-0.2,0.2c-0.8-0.2-1.5,0.2-2.1,0.7
		c-5.8,4.8-12.4,7.9-20,8.9c-6.8,0.9-13.6,0.3-20.2-1.7c-5.9-1.8-11.2-4.9-15.7-9.2c-4.1-4-7.4-8.5-9.8-13.7c-0.2-0.5-0.5-1-0.7-1.6
		c-0.1-0.2-0.1-0.3,0-0.5c1.4,1.9,2.5,4,4,5.8c5,6.2,11,11,18.5,13.9c5.3,2.1,10.8,3,16.5,3c5.8,0,11.5-0.6,17-2.6
		c3.4-1.2,6.6-2.7,9.5-4.6C72.6,82.3,72.9,81.9,73.4,81.9z"/>
	<path class="st3" d="M4.6,37.6c0.6-2.7,1.9-5.1,3.1-7.5c1.6-3.2,3.6-6.2,6-8.9c3-3.5,6.4-6.5,10.5-8.8c4.7-2.7,9.8-4.3,15.1-4.9
		c4.1-0.5,8.2-0.4,12.3,0.1c4,0.5,7.8,1.3,11.5,2.8c4.4,1.8,8.3,4.2,11.8,7.4c4.9,4.5,8.2,10,10.6,16.2c0.4,0.9,0.8,1.9,0.8,2.9
		c0.1,0.2,0.2,0.5-0.2,0.5c-2.2-5.6-5.5-10.4-10.1-14.4c-5.1-4.5-11.1-7.2-17.7-8.6c-2.7-0.6-5.5-0.9-8.2-1.1
		c-1.8-0.1-3.7-0.2-5.5-0.2c-9.3,0.3-18,2.5-25.8,8C12.6,25.6,8,31.2,4.8,37.9C4.6,37.9,4.5,37.9,4.6,37.6z"/>
	<path class="st4" d="M47.1,79.8c1.2-0.2,2.5-0.4,3.7,0c1.1,0.4,1.9,1,2.4,2c0.2,0.6,0.6,0.7,1.1,0.6c3.6-0.3,6.1-2.7,6.7-6.3
		c0.4-2.5,0.1-4.9-1-7.1c-0.3-0.6-0.1-0.8,0.2-1.3c2.7-3.5,2.7-7.7,0-11.2c-0.3-0.3-0.4-0.8-1-0.3c-2.2,1.8-4.9,2.2-7.7,2.1
		c0.2-0.4,0.5-0.4,0.8-0.4c3-0.6,5.5-2,7.4-4.4c0.5-0.6,0.8-0.4,1.3-0.1c4.8,3.5,5.6,8.9,2.2,14.1c-0.5,0.7-0.4,1.1,0,1.9
		c3.7,5.9,0,14.1-6.8,15.3c-1.3,0.2-2.6,0.4-3.9,0.4c-0.4,0-0.8,0-0.7-0.6c0.5-2.9-1.8-4.1-3.8-4.6C47.8,80,47.4,79.9,47.1,79.8z"/>
	<path class="st5" d="M43.1,47.4c-1.2-2.2-2.4-4-3.9-5.6C36,38.4,32,37.5,27.6,38c-2.7,0.3-5.3,0.9-8,2.3c1-3.2,2.6-5.5,5.3-6.9
		c6.8-3.6,15,0,17.2,7.4C42.8,42.8,43.3,44.9,43.1,47.4z"/>
	<path class="st5" d="M78.6,39.6C67.6,35.7,63.1,40,58.8,48c0.1-1.8,0.3-3.6,0.8-5.4c0.8-2.9,2-5.5,4.3-7.6c3.7-3.3,12.5-3.5,14.7,4
		C78.6,39.2,78.7,39.4,78.6,39.6z"/>
	<path class="st3" d="M55.2,81.4c2-4.4,1.4-8.4-1.6-12.2c1.9,0.1,3.5,0.4,5.1,0c0.3-0.1,0.6,0.1,0.7,0.5c0.9,2.5,1.5,4.9,0.6,7.5
		C59.2,79.5,57.6,80.6,55.2,81.4z"/>
	<path class="st2" d="M53.7,68c4.1-2.5,5.4-6.3,5.8-10.8c0.8,0.5,1,1.4,1.4,2.1c1.2,2.7,0.9,5.3-0.7,7.7c-0.8,1.2-2.1,1.5-3.4,1.5
		C55.8,68.5,54.8,68.5,53.7,68z"/>
	<path class="st6" d="M86,37.6c0.2-0.1,0.2-0.3,0.2-0.5c0.3,0.9,0.8,1.8,0.5,2.8C86.5,39.2,86.3,38.4,86,37.6z"/>
	<path class="st7" d="M6.7,67c0,0.2,0,0.3,0,0.5c-0.4-0.7-0.7-1.4-0.8-2.1C6.2,65.9,6.7,66.3,6.7,67z"/>
	<path class="st8" d="M4.6,37.6c0.1,0.1,0.2,0.2,0.2,0.2c-0.2,0.4-0.3,0.8-0.5,1.1c-0.2,0.1-0.3,0-0.2-0.2
		C4.1,38.3,4.2,37.9,4.6,37.6z"/>
	<path class="st9" d="M4.1,38.8c0.1,0.1,0.2,0.2,0.2,0.2c-0.2,0.4-0.4,0.8-0.6,1.3C3.6,39.6,3.8,39.2,4.1,38.8z"/>
	<path class="st10" d="M96.4,69.9c-5.8,6.7-12.4,12-21.8,13c2.2-2.1,3.5-4.5,3.6-7.3c0.1-2.8-0.6-5.4-2-8.1c3.3,2.1,6.4,3.8,9.9,4.3
		C89.8,72.2,93.2,71.6,96.4,69.9z"/>
	<path class="st11" d="M74.8,62.7c-1.5-2.4-1.7-4.6-0.7-6.9c1-2.4,3.6-3.8,6.4-3.7c2.3,0.1,4.7,1.6,5.5,3.8
		c-2.7-2.2-5.5-2.1-8.4-0.8C75,56.2,74.1,58.6,74.8,62.7z"/>
	<path class="st12" d="M96.4,54.6c-3.6-0.2-5.6,1.6-7.1,4.2c-0.1,0-0.2,0-0.2-0.1c-1.3-1.8-1.3-1.8,0.4-3.2
		C91.7,53.6,94,53.2,96.4,54.6z"/>
</g>
</svg>
