<?xml version="1.0" encoding="utf-8"?>
<!-- Generator: Adobe Illustrator 22.1.0, SVG Export Plug-In . SVG Version: 6.00 Build 0)  -->
<svg version="1.1" id="Layer_1" xmlns="http://www.w3.org/2000/svg" xmlns:xlink="http://www.w3.org/1999/xlink" x="0px" y="0px"
	 viewBox="0 0 100 100" style="enable-background:new 0 0 100 100;" xml:space="preserve">
<style type="text/css">
	.st0{fill:#FE3333;}
	.st1{fill:#FE0000;}
	.st2{fill:#FE6666;}
	.st3{fill:#DC5858;}
	.st4{fill:#BE3A3A;}
	.st5{fill:#00D2A0;}
	.st6{fill:#BE4C4C;}
	.st7{fill:#45FED2;}
	.st8{fill:#00BE90;}
	.st9{fill:#00EBBB;}
	.st10{fill:#00A27C;}
	.st11{fill:#890000;}
	.st12{fill:#FEFEFE;}
</style>
<g>
	<path class="st0" d="M21.6,26.7c-0.5-1-1.1-2-1.6-3.1c-1.3-3,0.2-6.3,3.4-7.2c0.7-0.2,1.4-0.4,2.1-0.5c0.4-0.5,1-0.7,1.6-0.8
		c4.5-0.9,9.1-1.5,13.7-1.4c3.1,0.1,6.2,0.5,9.3,1.3c4.4,1.3,8.6,3.2,12.2,6.1c5.7,4.6,9.6,10.4,12.1,17.2c1,2.6,1.5,5.2,1.6,7.9
		c0,0.2,0,0.5-0.1,0.7c0.1,9.4-3.6,16.8-11.2,22.3c-0.2,0.1-0.3,0.2-0.5,0.3c-0.4-0.4-0.4-0.8-0.4-1.3c0.2-5-0.7-9.9-2.4-14.6
		c-0.1-0.2-0.1-0.4-0.1-0.6c0.4-2.4-0.6-4.2-2.7-5.3c-1.5-2.2-3-4.3-4.9-6.2c-4.3-4.4-9.5-7.7-15.1-10.1c-5.2-2.2-10.6-3.7-16.2-4.5
		C22.2,27,21.9,26.9,21.6,26.7z"/>
	<path class="st1" d="M61.7,53.5c1.1,2.4,1.6,4.9,2.1,7.5c0.6,2.9,0.4,5.7,0.5,8.6c-2.9,2.1-6.3,3.3-9.8,3.9
		c-0.3,0.1-0.5,0.1-0.8,0.2c-0.8,0.6-1.9,0.4-2.8,0.5c-1.6,0.2-3.1,0.1-4.7-0.5c-3.4-0.7-6.8-1.7-9.8-3.6
		c-6.5-4.1-10.3-10-11.9-17.5C24,49.6,24,46.4,24,43.2c0.1-5.6-0.2-11.2-2.4-16.4c3,0,5.9,0.8,8.8,1.6c4,1,7.9,2.5,11.6,4.3
		c3.2,1.6,6.2,3.6,9,5.9c2.7,2.3,5.1,4.9,7.1,7.8c0.3,0.4,0.5,0.9,0.8,1.3c-0.1,0.1-0.2,0.2-0.4,0.2c-1.9-0.4-3.5,0.5-5,1.6
		c-0.4,0.3-0.8,0.6-1.3,0.8c-1.5,0.8-3,0.8-4.5,0c-1-0.5-1.9-1.3-2.9-1.8c-2.2-1.2-4.6-0.5-5.9,1.5c-1.1,1.8-0.4,4.3,1.5,5.6
		c1,0.7,2.1,1.3,3.2,2c0.7,0.4,1.4,0.9,2.1,1.4c2.8,1.7,5.6,1.9,8.4,0.1c0.7-0.5,1.5-1,2.3-1.4c1.1-0.7,2.2-1.4,3.3-2.1
		C60.5,55,60.7,53.9,61.7,53.5z"/>
	<path class="st2" d="M76,47c-1-13.6-11.2-27.8-25.7-31.5c0.1-0.6,0.6-0.6,1-0.7c1.3-0.3,2.6-0.7,3.9-0.6c0.4,0,0.7-0.1,1-0.2
		c5.4-0.8,10.8,0,16.1,1c0.3,0.1,0.5,0.1,0.8,0.1c0.6,0.1,0.8-0.1,0.9-0.7c0.1-0.7-0.2-1.4,0.4-2c0.3,0.8,0.2,1.7,0.1,2.5
		c-0.1,0.8,0.4,1.1,1.1,1.2c1.9,0.3,3.4,1.2,4.3,3c0.8,1.5,0.9,3.1,0.1,4.6c-3.7,6.5-4.2,13.5-3.8,20.8C76.1,45.4,76.2,46.2,76,47z"
		/>
	<path class="st3" d="M56.1,14.4c-1.4,0.4-2.9,0.2-4.3,0.7c-0.5,0.2-1.1,0.1-1.5,0.5c-8.3-2.2-16.6-1.6-24.8,0.4
		c0-0.9,0.1-1.8,0.1-2.7c0.1-5.3,4.8-9,10-8.1c1.1,0.2,2.1,0.7,3.3,0.4c4.1,1,8,2.5,11.5,4.8c1.2,0.9,2.5,1.7,3.6,2.7
		C54.6,13.7,55.4,14,56.1,14.4z"/>
	<path class="st4" d="M56.1,14.4c-1,0.2-1.6-0.4-2.2-1c-1.1-1-2.4-1.9-3.6-2.8c-0.3-0.5,0.1-0.8,0.5-1c3.1-1.8,6.4-3.1,9.8-4
		c0.2-0.1,0.5-0.1,0.7,0.1c1.1-0.2,2.2-0.4,3.3-0.6c4.8-0.9,9.3,2.5,9.8,7.3c0,0.7-0.1,1.5,0,2.2c0,0.8-0.1,1.2-1.1,0.9
		c-4.6-1-9.3-1.6-14-1.5C58.2,14.2,57.1,14.3,56.1,14.4z"/>
	<path class="st5" d="M46.3,73.8c2.5,0.2,5,0.2,7.4,0c0,0.1,0,0.2-0.1,0.3c0,1.7-0.1,3.4,0,5.1c0.1,1-0.3,1.7-1,2.3
		c-1.2,1.2-2.2,2.5-2.6,4.2c-0.6,2.2,0.2,4,2.4,4.8c0.9,0.4,1.2,0.8,1.2,1.8c-0.1,1.6,0.1,3.2-0.1,4.9c-0.4,2-1.9,3-4.1,2.8
		c-1.6-0.1-3.1-1.6-3.1-3.3c-0.1-1.5,0-2.9,0-4.4c0-0.4,0.1-0.8-0.4-1c0.1-3.5,0.1-6.9,0.1-10.4c0-0.3,0-0.6,0.1-0.9
		c0.4-1.6,0.1-3.2,0.2-4.8C46.3,74.7,46.3,74.3,46.3,73.8z"/>
	<path class="st6" d="M61.2,5.7c-3.5,1-7,2.2-10.2,4c-0.4,0.2-0.8,0.3-0.8,0.9c-3.1-2-6.5-3.4-10.1-4.5c-0.5-0.1-1.1,0-1.3-0.7
		C44-1.8,55.9-1.8,61.1,5.4C61.2,5.5,61.2,5.6,61.2,5.7z"/>
	<path class="st7" d="M60.7,76.6c2-0.7,4-0.6,6,0.2c2,0.8,2.9,2.8,2.3,5c-0.9,3.1-3.1,5.2-5.7,6.9c-1.6,0.2-3.1,0.2-4.5-0.5
		c-2.2-1.1-3-3.4-2.1-5.7c0.7-2,1.9-3.6,3.5-5C60.4,77.2,60.9,77.1,60.7,76.6z"/>
	<path class="st8" d="M36.7,88.7c-2.3-1.3-4.2-3.1-5.3-5.6c-1.6-3.5-0.3-6.1,3.5-6.9c1.4-0.3,2.8-0.2,4.1,0.3c0.4,0.9,1.3,1.4,2,2.2
		c1.4,1.6,2.5,3.3,2.5,5.5c0,2.1-1,3.5-3,4.2C39.3,88.9,38,88.9,36.7,88.7z"/>
	<path class="st9" d="M60.7,76.6c0.8,0,0.7,0.3,0.2,0.7C59.9,78,59,78.9,58.2,80c-0.6,0.8-1.1,1.8-1.4,2.8c-0.9,3,1.1,5.6,4.3,5.8
		c0.7,0,1.5-0.2,2.2,0.2c-2.5,1.6-5.2,2.7-8.2,2.6c-1.3-0.1-1.4,0.4-1.4,1.5c0,1.5,0.2,2.9-0.2,4.4c0-1.7,0-3.4,0-5.1
		c0-0.4,0.1-0.8-0.5-1c-3.6-1-4.1-3.9-2.6-6.9c0.6-1.1,1.3-2.2,2.2-2.9c0.7-0.6,1-1.3,1-2.2c0-1.6-0.2-3.2,0.1-4.8
		c0,1.9,0,3.8,0,5.9C56,78.4,58.2,77,60.7,76.6z"/>
	<path class="st10" d="M36.7,88.7c0.8-0.4,1.7-0.1,2.5-0.2c4.5-0.8,4.8-4.2,3.2-7.4c-0.8-1.6-2.2-2.8-3.5-4
		c-0.6-0.6-0.1-0.4,0.2-0.5c2.7,0.4,4.9,1.8,7,3.3c0.2,0.4,0.2,0.7,0.2,1.1c0,3,0,6,0,9.1c0,0.4,0,0.8-0.4,1.1
		C42.5,91.6,39.5,90.5,36.7,88.7z"/>
	<path class="st11" d="M43.4,57.7c-1.5-1-3.3-1.6-4.4-3.1c-1.3-1.7-1.2-3.9,0.1-5.4c1.6-1.8,3.7-2.3,5.7-1.2
		c1.1,0.6,2.1,1.3,3.2,1.9c1.3,0.8,2.6,0.8,3.9,0.1c0.8-0.5,1.7-1,2.5-1.5c1.4-0.9,2.9-1.4,4.6-0.8c2.5,1.4,3.1,2.6,2.8,5.8
		c-1.1,2.2-3.2,3.1-5.1,4.2c-0.3,0-0.5-0.2-0.6-0.5c-2.3-3.6-9.2-4.1-12,0.1C43.8,57.5,43.7,57.7,43.4,57.7z"/>
	<path class="st11" d="M67.8,47.8c0,0.4,0,0.8,0,1.2c-0.1,0.9-0.5,1.5-1.5,1.5c-1,0-1.4-0.7-1.5-1.6c-0.1-0.8-0.1-1.6,0-2.3
		c0.1-0.9,0.5-1.5,1.5-1.5c1,0,1.4,0.7,1.5,1.6C67.8,47.1,67.8,47.5,67.8,47.8z"/>
	<path class="st12" d="M43.4,57.7c1.5-3,5.3-4.4,9-3.4c1.9,0.5,3.4,1.5,4.2,3.4c-0.2,0.2-0.4,0.3-0.7,0.5C50.6,61.9,48,61,43.4,57.7
		z"/>
	<path class="st11" d="M32.3,47.8c0-0.4,0-0.8,0-1.3c0-0.8,0.5-1.3,1.3-1.4c0.9-0.1,1.6,0.3,1.7,1.2c0.1,1,0.1,2,0,3
		c-0.1,0.8-0.7,1.3-1.6,1.2c-0.9-0.1-1.3-0.6-1.4-1.4C32.3,48.7,32.3,48.2,32.3,47.8z"/>
</g>
</svg>
