<?xml version="1.0" encoding="utf-8"?>
<!-- Generator: Adobe Illustrator 22.1.0, SVG Export Plug-In . SVG Version: 6.00 Build 0)  -->
<svg version="1.1" id="Layer_1" xmlns="http://www.w3.org/2000/svg" xmlns:xlink="http://www.w3.org/1999/xlink" x="0px" y="0px"
	 viewBox="0 0 100 100" style="enable-background:new 0 0 100 100;" xml:space="preserve">
<style type="text/css">
	.st0{fill:#F8D1A6;}
	.st1{fill:#EEB988;}
	.st2{fill:#00EABA;}
	.st3{fill:#0084CD;}
	.st4{fill:#00E7B7;}
	.st5{fill:#00E3B2;}
	.st6{fill:#00EBBB;}
	.st7{fill:#00D4A2;}
	.st8{fill:#00CD9B;}
	.st9{fill:#00CC9A;}
	.st10{fill:#00DDAC;}
	.st11{fill:#00D9A8;}
	.st12{fill:#00DCAB;}
	.st13{fill:#00D7A6;}
	.st14{fill:#00E1B0;}
	.st15{fill:#00E8B8;}
	.st16{fill:#00DAA8;}
	.st17{fill:#00E4B4;}
	.st18{fill:#00D6A4;}
	.st19{fill:#00D19F;}
	.st20{fill:#00D09D;}
	.st21{fill:#00DFAE;}
	.st22{fill:#00D09E;}
	.st23{fill:#00DEAC;}
	.st24{fill:#00CE9C;}
</style>
<g>
	<path class="st0" d="M32.6,48.5c2.9-1.5,5.8-3.1,8.7-4.6c1-0.2,2-0.2,2.9-0.2c7.5,0,14.9,0,22.4,0c2,0,4,0,6-0.1
		c0.2,0.8,0.8,0.5,1.3,0.5c5.1,0,10.1,0.1,15.2,0c3.6-0.1,6.2,1.6,7.9,4.6c1.9,3.2,1.7,6.6-0.4,9.7c-0.7,1-0.6,1.5,0,2.4
		c2.7,3.8,1.7,9.4-2,12.2c-0.7,0.5-0.7,0.8-0.4,1.6c1.7,4.3,0.8,7.8-2.7,11c-0.6,0.5-0.7,0.9-0.4,1.7c2.6,5.5-1.3,12-7.3,12.7
		c-3.4,0.4-6.8,0.1-10.1,0.2c-4.6,0.1-9.2,0-13.8,0c-6.2,0-12.3-0.4-18.3-1.8c-3.4-0.8-6.8-1.8-10-3.4c-0.3-0.4-0.1-0.8,0-1.2
		c0.3-1.1,0.4-2.2,0.5-3.4c-0.1-1.4,0-2.8,0-4.2c-0.1-1.4,0-2.8,0-4.3c0-0.5,0-0.9,0-1.4c0-0.5,0-0.9,0-1.4c0-0.9,0-1.9,0-2.8
		c-0.1-0.7,0.1-1.4,0-2.1c0-1.2,0.1-2.3,0-3.5c-0.1-0.6,0.1-1.3,0-1.9c0-1.3,0-2.5,0-3.8c0-1,0-2.1,0-3.1c-0.1-1,0.1-1.9,0-2.9
		c-0.1-1.1,0.1-2.2,0-3.3c-0.1-1.2,0.1-2.3,0-3.5c0-1,0-1.9,0-2.8c0-0.2,0-0.4,0.1-0.6C32.4,48.6,32.5,48.5,32.6,48.5z"/>
	<path class="st1" d="M72.7,43.6c-0.3,0.5-0.8,0.5-1.4,0.5c-9.6,0-19.3,0-28.9,0c-0.4,0-0.8,0.1-1.1-0.2c3.5-2.3,6.9-4.7,9.7-7.8
		c3.8-4.2,6.3-8.9,6.8-14.6c0.4-4.3,3.9-6.6,8.3-5.9c6,1,10.4,6.6,10.3,12.5C76.4,33.5,75.4,38.7,72.7,43.6z"/>
	<path class="st2" d="M1.7,53.3c0-2.1-0.1-4.3,0-6.4c0-1.7,1.2-2.9,2.9-2.9c8.4,0,16.7,0,25.1,0c1.8,0,2.8,1.1,2.9,2.9
		c0,0.5,0,1,0.1,1.5l-0.1,0c-1.2-0.4-2.4-0.4-3.5-0.4c-8.1,0-16.3,0-24.5,0c-2.1,0-2.1,0-2.2,2.1c0,0.7,0.1,1.4,0,2
		C2.2,52.7,2.3,53.2,1.7,53.3z"/>
	<path class="st3" d="M20,99.9c-1.9,0.1-3.8,0.1-5.7,0c-0.5-0.5-0.4-1.2-0.4-1.8c0-3.3,0.1-6.5,0-9.8c0-1.3,0-2.6,0-4
		c0-0.5,0.1-1,0.4-1.5c0.5-0.7,1-1.2,1.8-1.6c0.1-0.1,0.2-0.1,0.4-0.1c0.5-0.1,1.1-0.1,1.6,0c0.5,0.1,0.9,0.3,1.3,0.6
		c0.4,0.4,0.7,0.8,0.9,1.4c0.4,1,0.3,2,0.3,3.1c0.1,1.3,0,2.5,0,3.7c0,1.1,0,2.2,0,3.4c0,1.7,0,3.3,0,5C20.5,98.9,20.6,99.5,20,99.9
		z"/>
	<path class="st4" d="M1.7,53.3c0.4-1,0.1-2.1,0.2-3.1c0.7-0.5,1.5-0.4,2.2-0.4c8.4,0,16.8,0,25.2,0c1.2,0,2.3,0,3.2-0.9
		c0,1,0,2.1,0,3.1C32.3,54,32.3,54,30.2,54c-8.7,0-17.4,0-26.1,0c-1.7,0-1.7,0-1.9,1.5c0,0.5,0,1.1,0,1.7c-0.1,0.8,0.4,1.7-0.6,2.3
		C1.7,57.5,1.7,55.4,1.7,53.3z"/>
	<path class="st5" d="M1.7,59.5c0.4-0.7,0.1-1.5,0.2-2.3c0.7-0.5,1.5-0.4,2.2-0.4c8.6,0,17.2,0,25.8,0c0.9,0,1.8,0.1,2.1-1
		c0.1-0.2,0.2-0.2,0.4-0.2c0,1.1,0,2.2,0,3.4c-0.2,1.6-0.3,1.7-2,1.7c-8.4,0-16.9,0-25.3,0c-0.4,0-0.8,0-1.1,0
		c-1.6,0-1.7,0.1-1.8,1.7c0,0.2,0,0.3,0,0.5c0,0.7,0,1.4,0,2.1c0,0.4,0,0.8,0,1.1c0,0.6,0,1.2,0,1.8c-0.1,0.4,0.1,0.9-0.5,1.1
		C1.7,65.9,1.7,62.7,1.7,59.5z"/>
	<path class="st6" d="M89,27.6c-1,0-2,0-3,0c-1.7-0.1-3-1.3-3-2.9c0-1.6,1.2-2.9,2.9-3c2.1-0.1,4.3-0.1,6.4,0
		c1.7,0.1,2.8,1.4,2.8,3.1c-0.1,1.6-1.3,2.8-2.9,2.8C91.1,27.6,90.1,27.6,89,27.6z"/>
	<path class="st6" d="M45.3,27.6c-1,0-2.1,0-3.1,0c-1.7-0.1-3-1.3-3-2.9c0-1.6,1.2-2.9,2.9-3c2.1-0.1,4.2-0.1,6.3,0
		c1.7,0.1,2.9,1.3,2.9,3c0,1.6-1.3,2.9-3,2.9C47.4,27.6,46.3,27.6,45.3,27.6z"/>
	<path class="st6" d="M79.7,0c2.2,0,3.6,2.2,2.6,4.2c-1,2-2.2,3.9-3.4,5.8c-0.8,1.4-2.6,1.7-4,0.8c-1.3-0.8-1.8-2.5-1-3.8
		c1-1.9,2.1-3.8,3.3-5.7C77.8,0.4,78.7,0,79.7,0z"/>
	<path class="st6" d="M54.7,0c1.1,0,1.9,0.5,2.5,1.4c1.1,1.8,2.2,3.7,3.2,5.6c0.8,1.4,0.2,3.2-1.1,3.9c-1.4,0.8-3.2,0.4-4-1
		c-1.1-1.8-2.2-3.7-3.2-5.6C51,2.2,52.5,0,54.7,0z"/>
	<path class="st7" d="M14.5,82.7c-0.1,0.4-0.2,0.9-0.3,1.3c-0.2,0.9-0.1,1.9-0.1,2.8c0.1,1.1-0.5,1.4-1.4,1.4c-1.1,0-2.2,0-3.3,0
		c-1.9,0-3.8,0-5.8,0c-1,0-1.4,0.4-1.4,1.4c0,0.8,0,1.7,0,2.6c0,1,0,2.1,0,3.1c0,0.8,0.2,1.7-0.4,2.4c-0.2-0.2-0.2-0.5-0.2-0.8
		c0-3.7,0-7.4,0-11.1c0.3-1-0.2-2,0.3-3c0.4-0.2,0.8-0.2,1.3-0.2c3.5,0,7,0,10.5,0C14,82.5,14.3,82.6,14.5,82.7z"/>
	<path class="st8" d="M20,99.9c0.4-2.2,0.1-4.4,0.2-6.6c0.8-0.3,1.7-0.1,2.5-0.1c2.3,0,4.6,0,6.9,0c0.8,0,1.7,0,2.4,0.7
		c-0.1,0.3-0.2,0.7-0.3,1C29.1,99.5,24.8,100.4,20,99.9z"/>
	<path class="st9" d="M1.8,97.7c0-0.8,0-1.6,0-2.4c0.5-0.5,1.2-0.4,1.8-0.4c2.6,0,5.2,0,7.8,0c2.1,0,2.1,0,2.1-2c0-0.2,0-0.4,0-0.6
		c-0.1-1-0.1-1.9,0-2.9c0-0.5-0.1-1.1,0.6-1.2c0,3.9,0,7.8,0,11.7c-3.2,0-6.3,0.1-9.5,0C3.1,99.9,2.3,99.2,1.8,97.7z"/>
	<path class="st10" d="M1.7,69.1c0.3-0.3,0.2-0.7,0.2-1c0.6-0.5,1.4-0.4,2.1-0.4c8.7,0,17.3,0,26,0c0.8,0,1.8,0.2,1.9-1.1
		c0.1-0.4,0-0.7,0.1-1.1c0-0.1,0.1-0.3,0.2-0.4c0.1-0.1,0.2-0.2,0.4-0.1c0,1.3,0,2.6,0,3.9c-0.2,0.7-0.7,0.9-1.4,0.9
		c-0.9,0-1.8,0-2.7,0c-7.8,0-15.7,0-23.5,0c-0.4,0-0.9,0-1.3,0c-1-0.1-1.4,0.4-1.4,1.4c0,0.4,0,0.8,0,1.1c0,0.8,0,1.6,0,2.3
		c0,0.6,0,1.2,0,1.8c0,0.5,0,1-0.2,1.5c-0.1,0.1-0.2,0.2-0.4,0.1C1.7,75.1,1.7,72.1,1.7,69.1z"/>
	<path class="st11" d="M1.7,78.1c0.1,0,0.1,0,0.2,0c0.4,0.4,0.4,0.8,0.4,1.3c0,0.7,0,1.4,0,2.1c0,0.5,0,1.1-0.4,1.5
		c-0.1,0.9,0.2,1.9-0.2,2.8C1.7,83.2,1.7,80.7,1.7,78.1z"/>
	<path class="st12" d="M1.9,72.4c0-3.1,0-3.1,3.1-3.1c8.6,0,17.3,0,25.9,0c0.6,0,1.2,0.1,1.6-0.5c0,0.6,0,1.2,0,1.8
		c-0.3,2.2-0.3,2.2-2.5,2.2c-8.6,0-17.3,0-25.9,0C3.3,72.8,2.5,73,1.9,72.4z"/>
	<path class="st13" d="M1.9,79.4c0-0.4,0-0.9,0-1.3c0-0.5,0-1,0-1.6c0.5-0.5,1.2-0.4,1.8-0.4c9.2,0,18.4,0,27.7,0
		c0.4,0,0.8,0,1.1,0.2c0,1,0,1.9,0,2.8c-0.5,0.9-1.4,0.7-2.2,0.7c-8.2,0-16.4,0-24.5,0c-0.8,0-1.6,0-2.4,0
		C2.8,79.8,2.3,79.8,1.9,79.4z"/>
	<path class="st14" d="M1.9,63.1c0-2.8,0-2.8,2.8-2.8c8.6,0,17.3,0,25.9,0c1,0,1.8-0.1,1.9-1.3c0,1,0,1.9,0,2.8
		c-0.3,0.5,0.2,1.2-0.5,1.5c-0.6,0.2-1.2,0.2-1.8,0.2c-8.8,0-17.5,0-26.3,0C3.2,63.6,2.5,63.7,1.9,63.1z"/>
	<path class="st15" d="M32.5,49c-0.1,1.2-0.9,1.3-1.9,1.3c-9.6,0-19.1,0-28.7,0c0-2.6,0-2.6,2.6-2.6c8.8,0,17.7,0,26.5,0
		c0.7,0,1.3,0,1.5,0.8C32.5,48.6,32.5,48.8,32.5,49z"/>
	<path class="st16" d="M1.9,72.4c9.3,0,18.7,0,28,0c2,0,2,0,2.6-1.8c0,1.2,0,2.4,0,3.6c-0.3,1-1.1,0.9-1.9,0.9
		c-3.7,0.1-7.4,0.1-11.1,0c-5.2,0-10.5,0-15.7,0c-0.7,0-1.4,0.1-2-0.4C1.9,74,1.9,73.2,1.9,72.4z"/>
	<path class="st17" d="M32.5,55.7c-0.1,0-0.1,0-0.2,0c-0.5,0.4-1,0.4-1.6,0.4c-9.1,0-18.2,0-27.3,0c-0.6,0-1.1,0-1.6-0.4
		c0-0.2,0-0.4,0-0.6c-0.2-1.1,0.3-1.4,1.4-1.4c9,0.1,18,0,27,0.1c1.2,0,2.2-0.1,2.2-1.6C32.5,53.3,32.5,54.5,32.5,55.7z"/>
	<path class="st18" d="M1.9,79.4c9.7,0,19.3,0,29,0c0.5,0,1.1,0.1,1.6-0.2c0,0.4,0,0.9,0,1.3c0,1.1-0.6,1.4-1.6,1.4
		c-3.3,0-6.6,0-10,0c-0.6,0-1.2,0-1.8,0.1c-0.3-0.2-0.7-0.4-1-0.5c-0.6-0.2-1.2-0.2-1.8,0c-0.1,0-0.2,0-0.3,0
		c-0.8,0.3-1.6,0.4-2.4,0.4c-3.3,0-6.6,0-9.9,0c-0.7,0-1.4,0.1-2-0.4C1.9,80.7,1.9,80.1,1.9,79.4z"/>
	<path class="st11" d="M1.9,74.7c9.7,0,19.3,0,29,0c0.6,0,1.2,0.1,1.6-0.5c0,0.7,0,1.4,0,2.1c-0.5,0.3-1.1,0.2-1.6,0.2
		c-9.7,0-19.3,0-29,0C1.9,75.9,1.9,75.3,1.9,74.7z"/>
	<path class="st19" d="M20.2,89.9c0-1.3,0-2.6,0-3.9c0.2-0.1,0.4-0.2,0.6-0.2c3.7,0.1,7.4,0,11.1,0.1c0.2,0,0.4,0.1,0.6,0.2
		c0,1.5,0,2.9,0,4.4c-0.7,0.3-1.4,0.1-2.2,0.1c-2.8,0-5.6,0-8.3,0C21.3,90.6,20.6,90.7,20.2,89.9z"/>
	<path class="st7" d="M32.5,86.1c-0.1,0.1-0.2,0.2-0.4,0.2c-4,0.1-8,0.4-12-0.2c0-1,0-2.1-0.3-3.1c0.4-0.8,1.1-0.7,1.8-0.7
		c2.6,0,5.1,0,7.7,0c1.1,0,2.2,0,3.2-0.6C32.5,83.2,32.5,84.6,32.5,86.1z"/>
	<path class="st20" d="M20.2,89.9c0.5,0.3,1,0.3,1.5,0.3c3.1,0,6.2,0,9.3,0c0.5,0,1-0.1,1.5,0.2c-0.1,1.1-0.1,2.3-0.5,3.4
		c-3.4-0.5-6.8-0.2-10.2-0.2c-0.5,0-1.1,0.1-1.6-0.3C20.2,92.2,20.2,91,20.2,89.9z"/>
	<path class="st18" d="M32.5,81.7c-0.2,0.8-0.7,1.1-1.5,1.1c-3.2-0.1-6.3,0-9.5,0c-0.5,0-1.1,0-1.6,0.3c-0.2-0.3-0.5-0.7-0.8-1
		c0.1-0.7,0.7-0.5,1.1-0.5c3.6,0,7.2-0.1,10.7,0c0.9,0,1.3-0.3,1.5-1C32.5,80.8,32.5,81.3,32.5,81.7z"/>
	<path class="st21" d="M32.3,63.1c0.1-0.4-0.2-0.9,0.2-1.3c0,1,0,2,0,3.1h-0.1h-0.1C31.8,64.3,31.8,63.7,32.3,63.1z"/>
	<path class="st22" d="M14.2,88.2c-0.5,1.3-0.1,2.7-0.2,4.1c-0.5,0.4-1,0.4-1.6,0.4c-3,0-6,0-9,0c-0.5,0-1.1,0-1.6-0.4
		c0-1,0.1-2.1,0-3.1c-0.1-1,0.2-1.3,1.3-1.3c3.2,0.1,6.4,0,9.6,0.1c1,0,1.3-0.3,1.3-1.2c0-0.9-0.3-1.8,0.2-2.6
		C14.2,85.4,14.2,86.8,14.2,88.2z"/>
	<path class="st18" d="M1.9,81.4c4.7,0,9.5,0,14.2,0c-0.5,0.4-1,0.9-1.5,1.3C14,83,13.5,83,12.9,83c-3.7,0-7.3,0-11,0
		C1.9,82.5,1.9,81.9,1.9,81.4z"/>
	<path class="st18" d="M16.3,81.4c0.6-0.4,1.2-0.4,1.8,0C17.5,81.4,16.9,81.4,16.3,81.4z"/>
	<path class="st17" d="M1.9,55.7c10.1,0,20.3,0,30.4,0c0.2,1.2-0.3,1.6-1.5,1.6c-9.6-0.1-19.3,0-28.9,0C1.9,56.7,1.9,56.2,1.9,55.7z
		"/>
	<path class="st21" d="M32.3,63.1c0,0.6,0,1.2,0,1.8c0,0.1,0,0.2,0,0.3c-0.5,0.4-1.1,0.4-1.7,0.4c-9,0-18,0-27,0
		c-0.6,0-1.2,0-1.7-0.4c0-0.7,0-1.4,0-2.1C12,63.1,22.1,63.1,32.3,63.1z"/>
	<path class="st23" d="M32.3,66.2c0,1.8,0,1.8-1.8,1.8c-9.5,0-19.1,0-28.6,0c0-0.6,0-1.2,0-1.8c0.5-0.4,1.1-0.4,1.7-0.4
		c9,0,18,0,27,0C31.2,65.8,31.8,65.8,32.3,66.2z"/>
	<ellipse class="st21" cx="17.1" cy="65.7" rx="15.2" ry="0.7"/>
	<path class="st24" d="M1.9,92.3c4,0,8.1,0,12.1,0c0,3.1,0,3.1-3,3.1c-3,0-6,0-9.1,0C1.9,94.3,1.9,93.3,1.9,92.3z"/>
</g>
</svg>
