<?xml version="1.0" encoding="utf-8"?>
<!-- Generator: Adobe Illustrator 22.1.0, SVG Export Plug-In . SVG Version: 6.00 Build 0)  -->
<svg version="1.1" id="Layer_1" xmlns="http://www.w3.org/2000/svg" xmlns:xlink="http://www.w3.org/1999/xlink" x="0px" y="0px"
	 viewBox="0 0 100 100" style="enable-background:new 0 0 100 100;" xml:space="preserve">
<style type="text/css">
	.st0{fill:#F8D1A6;}
	.st1{fill:#EEB988;}
	.st2{fill:#00EBBB;}
	.st3{fill:#00CB98;}
	.st4{fill:#33CBFE;}
	.st5{fill:#0084CD;}
	.st6{fill:#01EBBC;}
	.st7{fill:#01EBBB;}
	.st8{fill:#DAAD86;}
	.st9{fill:#DAAE86;}
	.st10{fill:#02EBBC;}
	.st11{fill:#EEBA89;}
	.st12{fill:#F9E4CF;}
</style>
<g>
	<path class="st0" d="M32.2,18c1.3-0.4,2.9,0.2,3.9,1.5c0.6,0.9,1.1,1.9,1.7,2.8c0.2,0.1,0.5,0.2,0.6,0.4c4,6.5,8,12.8,12,19.2
		c0.5,0.9,0.9,0.9,1.4,0c0.8-1.3,0.8-2.7,0-4c-1.7-2.8-3.4-5.5-5.1-8.2c-1.6-2.6-3.2-5.2-4.9-7.8C41.4,21,41.1,20,41.2,19
		c0.1-0.4,0-0.8-0.2-1.2c1.5-0.5,3.3,0.2,4.3,1.7c2.5,3.9,4.9,7.8,7.4,11.7c0.2,0.4,0.5,0.8,0.7,1.2c0.9,1.4,1.5,3.2,3.7,2.9
		c-1.2,0.6-1.2,0.6-0.4,1.8c1.5,2.3,2.9,4.6,4.4,7c0.2,0.3,0.4,0.7,0.7,1c0.4,0.4,0.7,0.4,1-0.1c0.2-0.3,0.2-0.7,0.3-1
		c0.4-2.1,0.9-4.2,1.4-6.2c0.5-2.3,2.5-3.7,4.5-3.4c2.2,0.3,3.7,2,3.7,4.4c0,6.9,0,13.9,0,20.8c0,1,0.1,1.9,0.4,2.8
		c0.1,0.7-0.5,0.9-1,1.1c-3.3,2.1-6.6,4.2-9.9,6.2c-3.2,2-6.5,4-9.7,6.1c-0.4,0.2-0.7,0.7-1.2,0.4c-1.1-2.5-3.3-4-5.4-5.5
		c-1.3-0.9-2.7-1.7-4.1-2.4c-1.3-0.6-2.5-1.5-3.4-2.6c-0.4-0.6-1-1-1.7-1.1c-0.2-0.3,0.7,0.2,0.2-0.4c-0.9-1.1-1.5-2.3-2.3-3.5
		c-0.6-1.2-1.6-2.3-2.1-3.5c-0.1-0.2-0.2-0.4-0.2-0.7c-0.3-0.2-0.6-0.3-0.6-0.7c0-0.4,0.3-0.5,0.5-0.8c1.3-1.6,1.4-3.1,0.3-4.9
		c-2-3.2-4.1-6.4-6.2-9.6c-0.8-1.2-1.5-2.4-1.1-4c0.1-0.4-0.2-0.6-0.4-0.8c0.2-0.1,0.3-0.2,0.5-0.2c1,0.2,1.5-0.3,1.9-1.1
		c3.6,4,5.9,8.9,8.8,13.3c0.6,0.9,1.2,1.8,1.7,2.7c0.4,0.7,0.8,0.7,1.3,0c0.8-1.2,1-2.4,0.3-3.7c-1.3-2.4-2.8-4.6-4.3-6.9
		c-1.8-2.9-3.7-5.8-5.4-8.7c-0.5-0.9-0.9-1.8-0.8-2.9c0.1-0.5,0.2-1,0.7-1.3c0.9-0.2,1.7,0.5,2.6,0.4c0.5-0.1,0.6,0.3,0.8,0.6
		c3.6,6.1,7.6,12.1,11.2,18.1c0.5,0.9,0.8,0.9,1.5,0.1c0.9-1.1,0.9-2.6,0-4.1c-1.4-2.3-2.8-4.5-4.2-6.7c-2.7-4.3-5.4-8.6-8-12.8
		c-0.8-1.3-1.4-2.6-0.6-4.1C32.7,18.2,32.3,18.2,32.2,18z"/>
	<path class="st1" d="M72.8,62.4c-0.6-0.7-0.7-1.4-0.7-2.3c0-7.2,0-14.4,0-21.6c0-2.2-1.5-3.8-3.4-4.1c-1.5-0.2-3.8,0.8-4.2,3.1
		c-0.5,2.4-1.1,4.8-1.6,7.1c-0.1,0.5-0.2,0.9-0.8,1c-0.5,0.1-0.7-0.3-1-0.7c-1.8-2.9-3.7-5.8-5.5-8.7c-0.6-1-0.6-1,0.6-1
		c0.2,0,0.4,0,0.6,0c1.2,0.1,2.3,0.2,3.5,0.2c0.4,0,0.8,0,1-0.4c0.2-0.4-0.1-0.7-0.3-1c-1.6-1.8-3.1-3.7-4.7-5.5
		c-1.5-1.7-1.4-3.9,0.1-5.5c1.6-1.5,3.6-1.4,5.5,0.1c2.9,2.3,5.8,4.5,8.7,6.8c2.6,2,5.3,4.1,7.9,6.1c0.7,0.6,1.6,0.8,2.5,1
		c0.5,0.3,0.3,0.8,0.2,1.2c-0.4,4.1-0.7,8.2-1.1,12.3c-0.3,3.7-0.6,7.4-1.1,11c0,0.4,0,0.7-0.4,0.9c-1.4-0.2-2.9-0.3-4.3,0.1
		C74,62.5,73.4,62.7,72.8,62.4z"/>
	<path class="st2" d="M86.4,35.8c0.1-0.7,0.6-0.9,1.2-0.9c3.7,0.1,7.3,0.2,11,0.3c1.1,0,1.4,0.5,1.3,1.7c-0.5,5.8-1,11.6-1.6,17.4
		c-0.2,1.9-0.4,3.9-0.6,5.8c-0.3-0.7-0.7-0.8-1.4-0.9c-3.5-0.4-7.1-1-10.6-1.6c-0.7-0.1-1.2-0.4-1.4-1.1c-0.2-1.2,0.1-2.4,0.2-3.7
		c0-0.8,0.1-1.5,0.2-2.3c0.4-3.6,0.6-7.3,1-10.9C85.9,38.5,85.6,37,86.4,35.8z"/>
	<path class="st2" d="M76.8,65.9c0.7-0.3,1.3-0.1,1.7,0.6c2.1,2.9,4.1,5.9,6.2,8.8c0.5,0.7,0.5,1.4-0.2,1.9
		c-6.1,3.8-12.2,7.6-18.3,11.5c-0.8,0.1-1.2-0.4-1.6-1c-1.6-2.9-3.2-5.9-4.9-8.8c-0.4-0.6-0.6-1.3-0.3-2c1.2-1.2,2.8-1.8,4.1-2.8
		c0.3-0.2,0.6-0.4,0.9-0.6c3.6-2.2,7.2-4.5,10.8-6.7C75.7,66.3,76.2,65.9,76.8,65.9z"/>
	<path class="st3" d="M59.6,76.7c-0.2,1.8,1.1,2.9,1.8,4.3c1,2.1,2.2,4,3.3,6.1c0.4,0.7,0.8,1.3,1.5,1.5c-2.3,1.4-4.5,2.9-6.8,4.3
		c-0.8,0.5-1.4,0.3-1.9-0.6c-1.7-3.2-3.5-6.3-5.3-9.5c-0.5-0.8-0.1-1.3,0.4-1.9c0.7-0.8,1.7-1.2,2.6-1.8c1.1-0.8,2.3-1.5,3.5-2.2
		C58.9,76.9,59.2,76.5,59.6,76.7z"/>
	<path class="st1" d="M32.2,18c0.2,0.1,0.7-0.1,0.5,0.3c-0.8,1.9,0.3,3.4,1.2,4.8c3.9,6.2,7.8,12.4,11.7,18.6
		c1.1,1.7,0.9,3.5-0.5,4.9c-0.5,0.5-0.8,0.5-1.2-0.2c-1.9-3.1-3.8-6.1-5.8-9.2c-1.7-2.7-3.3-5.4-5-8c-0.5-0.7-0.6-1.6-1.3-2.2
		c-0.9-1.5-2.1-2.8-2.6-4.5C28.7,20.6,30,18.5,32.2,18z"/>
	<path class="st3" d="M84.6,56.6c0.4,0.7,1.1,0.7,1.8,0.8c3.2,0.5,6.4,1,9.6,1.4c0.2,0,0.4,0.1,0.6,0.1c1-0.2,1.3,0.2,1.2,1.1
		c0,2.1-0.3,4.1-0.5,6.1c-0.1,1-0.8,1.2-1.7,1.1c-3-0.5-6.1-0.9-9.1-1.4c-0.5-0.1-1-0.2-1.5-0.2c-0.8-0.1-1.2-0.5-1.2-1.3
		c-0.3-0.5-0.3-1.2-0.2-1.8c0.2-1.5,0.3-3.1,0.4-4.6C84.1,57.5,84.2,57,84.6,56.6z"/>
	<path class="st1" d="M41,17.8c0.2,0.1,0.7-0.1,0.5,0.4c-0.7,2.3,0.8,3.8,1.9,5.5c2.9,4.7,5.9,9.4,8.8,14.2c0.9,1.4,0.7,3.3-0.3,4.6
		c-0.5,0.6-0.9,0.8-1.4-0.1c-3.1-5-6.2-10-9.4-14.9c-1-1.6-2-3.1-2.9-4.7c-0.3-0.2,0-0.6-0.2-0.9C38.1,19.7,39.2,18.2,41,17.8z"/>
	<path class="st1" d="M29.3,26.8c-0.7,1.3-0.6,2.5,0.2,3.7c1.5,2.5,3.1,4.9,4.6,7.4c1.8,2.9,3.6,5.7,5.3,8.6
		c0.8,1.4,0.4,3.2-0.7,4.3c-0.5,0.5-0.8,0.6-1.2-0.1c-2.4-3.9-4.8-7.7-7.2-11.5c-0.8-1.3-1.4-2.8-2.8-3.7c-0.3-0.2-0.7-0.7-0.5-1.2
		c0-0.8-0.7-1.3-1-1.9C24.6,29.7,26.4,26.8,29.3,26.8z"/>
	<path class="st1" d="M24.6,35.5c0.6-0.1,0.9,0.1,0.7,0.8c-0.4,1.1,0,2.1,0.6,3c2.1,3.4,4.3,6.8,6.5,10.1c1.4,2,1.3,4.3-0.6,5.9
		c-0.1,0.1-0.1,0.2-0.1,0.3c-0.5,0-0.6-0.4-0.8-0.8c-0.8-1.3-1.5-2.5-3.1-3.1c-0.7-0.2-1.3-0.9-1.5-1.7c0.1-0.2,0.2-0.4,0.4-0.5
		c0.9-0.7,0.5-1.2-0.2-1.6c-0.4-0.5-0.8-1-1-1.6c-0.8-1.9-2.6-2.7-3.9-4c-0.1-0.1-0.1-0.1-0.1-0.2c0.6-0.8,0.7-1.6,0.5-2.7
		C21.5,37.7,22.7,36.2,24.6,35.5z"/>
	<path class="st4" d="M86.4,35.8c-0.3,3.1-0.5,6.2-0.8,9.2c-0.2,1.9-0.4,3.8-0.6,5.7c-0.2,0.2-0.5,0.3-0.9,0.3c-1.4-0.1-2.7,0-4-0.5
		c0.3-3.6,0.6-7.1,0.9-10.7c0.1-0.9,0.2-1.8,0.2-2.8c0.2-1.3,0.5-1.4,1.7-1.4C84.2,35.7,85.3,36.2,86.4,35.8z"/>
	<path class="st5" d="M59.6,76.7c-2,1.3-4.1,2.5-6.1,3.8c-0.3,0.2-0.6,0.3-0.9,0.5c-0.6-0.9-1.1-1.9-1.8-2.8
		c-0.6-0.8-0.6-1.6,0.3-2.2c3.2-2,6.4-4,9.6-5.9c0.4-0.3,0.8-0.5,1.3-0.7c0.2,0,0.4,0.1,0.6,0.2c0.8,1.1,1.5,2.2,2.1,3.4
		c0.1,0.1,0,0.3,0,0.4C63,74.7,61.2,75.6,59.6,76.7z"/>
	<path class="st4" d="M64.6,73.5c-0.8-1.4-1.6-2.9-2.6-4.1c3.3-2.1,6.7-4.2,10-6.3c0.3-0.2,0.6-0.4,1-0.7c0.6-0.2,1.2-0.4,1.7,0
		c0.7,1.2,1.3,2.4,2.2,3.4C72.7,68.4,68.8,71.1,64.6,73.5z"/>
	<path class="st5" d="M80.1,50.5c1.6,0.1,3.3,0.1,4.9,0.2c-0.1,2-0.3,4-0.4,6c-0.2,2.6-0.5,5.2-0.7,7.7c-1.1-0.1-2.2-0.3-3.4-0.3
		c-1.1-0.1-1.6-0.5-1.6-1.6c0.3-3.6,0.7-7.1,1-10.7C80,51.3,80,50.9,80.1,50.5z"/>
	<path class="st6" d="M1.2,30c1.6,0.4,3.1,0.8,4.6,1.2c2.6,0.7,5.3,1.4,7.9,2.2c0.5,0.1,1.2,0.1,1,0.9c-0.2,0.8-0.9,0.5-1.4,0.4
		c-4.1-0.7-8.2-1.3-12.3-2c-0.8-0.1-1.2-0.4-1-1.3C0.2,30.8,0,29.9,1.2,30z"/>
	<path class="st7" d="M28.2,19.1c0,0.4-0.1,0.7-0.4,0.8c-0.3,0.1-0.6,0-0.7-0.3c-0.4-0.5-0.8-1.1-1.2-1.7c-2.1-3-4.2-6.1-6.3-9.1
		c-0.5-0.7-0.5-1.2,0.3-1.7c0.8-0.5,1.3-0.5,1.8,0.4c2,3.6,4.1,7.2,6.2,10.8C28,18.6,28.1,18.9,28.2,19.1z"/>
	<path class="st7" d="M8.9,17.4c0.3,0,0.5,0.2,0.8,0.4c3.4,2.7,6.7,5.4,10.1,8.2c0.3,0.3,0.7,0.5,0.4,1c-0.4,0.5-0.8,0.3-1.2,0
		c-3.6-2.4-7.1-4.9-10.7-7.3c-0.4-0.2-0.8-0.5-0.5-1C8.1,18.2,8.3,17.6,8.9,17.4z"/>
	<path class="st8" d="M34.6,60.3c0.7,1.1,1.5,2.2,2.2,3.4c0.2,0.4,0.4,0.7-0.3,0.7c-1-0.1-2-0.1-3.1-0.2c-2.7-0.3-4-3.5-2.5-6
		c0.1,0,0.2-0.1,0.2,0C32,59.4,33.3,59.8,34.6,60.3z"/>
	<path class="st9" d="M26.3,50c0.7,1,1.7,1.6,2.8,2.1c1,0.5,1.3,1.7,1.9,2.5c0.2,0.3,0.4,0.6,0.5,0.9c0.1,0.2,0.3,0.4,0.4,0.7
		c-1.1-0.1-2.1-0.1-3.2-0.3C26.1,55.5,24.8,52.5,26.3,50z"/>
	<path class="st9" d="M21.4,42.1c0.1,0,0.3-0.1,0.4-0.1c1.4,1.5,3.4,2.5,4.1,4.6c0.1,0.4,0.7,0.7,0.6,1.2c-0.8,0-1.7,0-2.5-0.2
		C21.3,47.1,20.1,44.5,21.4,42.1z"/>
	<path class="st10" d="M17.3,41.9c0,0.3-0.2,0.5-0.5,0.7c-1.9,1.4-3.7,2.7-5.6,4.1c-0.7,0.6-1.1,0.3-1.6-0.4s-0.5-1.2,0.3-1.6
		c2-1.1,4.1-2.2,6.1-3.2C16.8,41.1,17.4,41.3,17.3,41.9z"/>
	<path class="st11" d="M34.6,60.3c-1.6,0-2.8-0.7-3.6-2.1c0.3-0.5,0.8-0.9,1.3-1.3C33.3,57.9,33.9,59.1,34.6,60.3z"/>
	<path class="st12" d="M38.1,21.8c0.3,0.2,0.2,0.6,0.2,0.9c-0.2-0.1-0.4-0.2-0.4-0.5C37.9,22.1,38,22,38.1,21.8z"/>
</g>
</svg>
